<svg width="100" height="40" viewBox="0 0 100 40" fill="none" xmlns="http://www.w3.org/2000/svg">
<path d="M10.42 21.1382L30.3716 14.1463V10.9756L10.42 3.73984V8.04878L23.6672 12.6829L10.42 17.0732V21.1382V21.1382ZM5.16963 1.86992L0 0V4.47154L5.16963 6.26016V1.86992ZM5.16963 18.7805L0 20.4878V24.7967L5.16963 23.0081V18.7805Z" fill="#E31B23"/>
<path d="M18.5787 34.0649V28.7804C18.5787 27.3982 18.2556 26.4226 17.6901 25.8535C17.1247 25.2844 16.0746 25.0405 14.7014 25.0405C13.409 25.0405 12.359 25.2844 11.4704 25.7722C10.5819 26.26 10.0972 26.8291 10.0972 27.5609C10.0972 27.8861 10.178 28.0487 10.3396 28.2113C10.5011 28.3739 10.7434 28.4552 11.1473 28.4552H13.1667V26.5039C13.3283 26.5039 13.4898 26.4226 13.5706 26.4226C14.4591 26.3413 15.0245 26.5039 15.4284 26.8291C15.7515 27.1544 15.8323 27.6422 15.8323 28.3739V28.8617C13.1667 29.4308 11.5512 29.9999 10.8242 30.569C10.0972 31.1381 9.69336 31.8698 9.69336 32.8454C9.69336 33.6584 9.93569 34.3088 10.5011 34.8779C10.9858 35.3657 11.7127 35.6909 12.5205 35.6909C13.0859 35.6909 13.5706 35.6096 14.2168 35.3657C14.7822 35.2031 15.3476 34.8779 15.9938 34.3901L16.2362 35.5283H20.0326V34.3901L18.821 34.3088L18.5787 34.0649ZM13.2475 31.1381C13.7321 30.8129 14.5399 30.4877 15.8323 30.2438V33.4145C15.4284 33.5771 15.1053 33.7397 14.7822 33.821C13.8937 34.0649 13.3283 33.9836 12.9244 33.5771C12.6821 33.3332 12.5205 33.008 12.5205 32.5202C12.6013 31.8698 12.8436 31.4633 13.2475 31.1381Z" fill="#1C1B1A"/>
<path d="M27.545 26.0161C27.2219 25.8535 26.9796 25.6909 26.6565 25.5283C26.3334 25.3657 26.0103 25.2844 25.6872 25.2031C25.3641 25.1218 25.041 25.1218 24.7987 25.0405C24.5564 25.0405 24.314 24.9592 24.0717 24.9592C23.587 24.9592 23.1024 24.9592 22.537 25.0405C21.9715 25.1218 21.4061 25.2031 20.7599 25.447H20.6791V28.3739H22.1331L22.3754 26.7478L22.6177 26.5852C22.7793 26.5039 22.9408 26.4226 23.1832 26.3413C23.4255 26.26 23.7486 26.26 24.0717 26.26C24.4756 26.26 24.7987 26.3413 25.041 26.4226C25.2833 26.5039 25.5257 26.6665 25.768 26.8292C25.9295 26.9918 26.0911 27.1544 26.2526 27.3983C26.4142 27.6422 26.495 27.8048 26.5757 28.0487C26.6565 28.2926 26.7373 28.5365 26.7373 28.7804C26.7373 29.0243 26.8181 29.2682 26.8181 29.4308H22.9408V30.8129H26.8181C26.8181 31.4633 26.7373 32.1137 26.5757 32.5202C26.4142 32.9267 26.2526 33.3332 25.9295 33.5771C25.6872 33.821 25.3641 33.9836 25.1218 34.1462C24.6371 34.3088 24.314 34.3088 23.9909 34.3088C23.8294 34.3088 23.6678 34.3088 23.3447 34.2275C23.1024 34.2275 22.7793 34.0649 22.3754 33.9023L22.2139 33.7397L21.9715 31.9511H20.5176V35.2031H20.5984C21.3253 35.3657 21.9715 35.5283 22.537 35.6096C23.1024 35.6909 23.587 35.6909 23.9101 35.6909C24.6371 35.6909 25.3641 35.6096 26.0911 35.3657C26.8181 35.1218 27.3835 34.7966 27.9489 34.3901C28.5144 33.9836 28.9182 33.4145 29.2413 32.7641C29.5644 32.1137 29.726 31.3007 29.726 30.4064C29.726 29.2682 29.4837 28.3739 29.0798 27.7235C28.6759 26.9918 28.1105 26.4226 27.545 26.0161Z" fill="#1C1B1A"/>
<path d="M37.8841 25.0405C37.3994 25.0405 36.9147 25.1218 36.3493 25.3657C35.8647 25.5283 35.38 25.8535 34.7338 26.26V25.1218H33.6837L30.6143 26.0974V27.073H31.9874V38.4552L31.7451 38.6991L30.6143 38.7804V39.9999H36.2685V38.8617L34.9761 38.7804L34.7338 38.5365V35.447C34.9761 35.447 35.2185 35.5283 35.4608 35.5283C35.7031 35.5283 36.0262 35.5283 36.2685 35.5283C37.9648 35.5283 39.2572 35.0405 40.3073 34.0649C41.2766 33.0893 41.7613 31.7072 41.7613 30.0812C41.7613 28.6991 41.3574 27.4796 40.6304 26.5852C39.9034 25.5283 39.0149 25.0405 37.8841 25.0405ZM38.7726 30.3251C38.7726 31.4633 38.5303 32.4389 37.9648 33.1706C37.4802 33.821 36.7532 34.2275 35.8647 34.2275C35.6223 34.2275 35.4608 34.2275 35.2185 34.2275C35.0569 34.2275 34.8146 34.1462 34.653 34.1462V27.4796C34.9761 27.3983 35.2185 27.2357 35.4608 27.2357C35.7031 27.1544 35.9454 27.1543 36.1878 27.1543C36.9955 27.1543 37.6417 27.4796 38.0456 28.0487C38.611 28.4552 38.7726 29.2682 38.7726 30.3251Z" fill="#1C1B1A"/>
<path d="M48.546 25.0405C46.9305 25.0405 45.6381 25.5283 44.6688 26.5039C43.6995 27.4796 43.2148 28.7804 43.2148 30.4064C43.2148 31.9511 43.6995 33.2519 44.6688 34.2275C45.6381 35.2031 46.9305 35.6909 48.4653 35.6909C50.0808 35.6909 51.3732 35.2031 52.3425 34.2275C53.3118 33.2519 53.7964 32.0324 53.7964 30.4877C53.7964 28.8617 53.3118 27.5609 52.4233 26.5852C51.3732 25.5283 50.0808 25.0405 48.546 25.0405ZM50.0808 33.3332C49.6769 33.9836 49.1115 34.3088 48.3845 34.3088C47.6575 34.3088 47.1728 33.9836 46.769 33.2519C46.3651 32.5202 46.1228 31.5446 46.1228 30.2438C46.1228 28.943 46.3651 27.9674 46.769 27.317C47.1728 26.6665 47.7383 26.3413 48.3845 26.3413C49.1115 26.3413 49.6769 26.6665 50.0808 27.3983C50.4846 28.13 50.727 29.1056 50.727 30.4064C50.727 31.6259 50.4846 32.6828 50.0808 33.3332Z" fill="#1C1B1A"/>
<path d="M64.3786 33.9839L63.167 31.6261C63.0862 31.4635 62.9246 31.3009 62.8439 31.1383C62.6823 30.9757 62.6015 30.8131 62.3592 30.6505C62.1169 30.4066 61.713 30.1627 61.3899 30.0814C61.5515 30.0001 61.713 29.8375 61.8746 29.6749C62.0361 29.5123 62.1169 29.2684 62.1977 29.1058L62.7631 27.7237C62.8439 27.6424 62.8439 27.4798 62.9246 27.3985C62.9246 27.3172 63.0054 27.3172 63.0054 27.2359L64.2171 28.0489C64.6209 27.9676 64.944 27.805 65.1864 27.5611C65.3479 27.3172 65.5095 26.992 65.5095 26.6668C65.5095 26.3416 65.4287 26.0164 65.3479 25.8538C65.1864 25.6912 65.1056 25.5286 64.8633 25.366C64.7017 25.2847 64.4594 25.2034 64.2978 25.2034C64.1363 25.2034 63.9747 25.1221 63.8132 25.1221C63.5709 25.1221 63.3285 25.2034 63.0862 25.2847C62.8439 25.366 62.6823 25.5286 62.44 25.6912C62.2784 25.8538 62.1169 26.0977 61.9553 26.3416C61.7938 26.5855 61.6322 26.8294 61.5515 27.1546L60.9053 28.618C60.8245 28.8619 60.6629 29.1058 60.5014 29.2684C60.3398 29.431 60.0975 29.5123 59.7744 29.5123H58.7243V26.7481L58.9666 26.5042L60.0975 26.4229V25.2847H54.6855V26.4229L55.8164 26.5042L56.0587 26.7481V33.9839L55.8164 34.2278L54.6855 34.3091V35.4473H60.0975V34.3091L59.0474 34.2278L58.8051 33.9839V30.8131H59.2898C59.6129 30.8131 59.8552 30.8944 60.0975 31.057C60.3398 31.2196 60.5014 31.4635 60.5822 31.6261L61.7938 34.6343V35.366H65.9133V34.2278H64.7017L64.3786 33.9839Z" fill="#1C1B1A"/>
<path d="M68.4171 26.4229L69.7903 26.5042L70.0326 26.7481C70.0326 27.3985 69.9519 28.0489 69.8711 28.6993C69.7903 29.3497 69.7095 30.0001 69.548 30.6505C69.3864 31.3009 69.3057 31.87 69.0633 32.4391C68.9018 32.9269 68.7402 33.3335 68.4979 33.74L67.367 32.683H67.2863C66.9632 32.683 66.8016 32.7643 66.5593 32.9269C66.3977 33.0082 66.2362 33.1709 66.1554 33.3335C66.0746 33.4961 65.9939 33.6587 65.9939 33.8213C65.9939 33.9839 65.9131 34.1465 65.9131 34.2278C65.9131 34.6343 65.9939 35.0408 66.2362 35.2847C66.4785 35.5286 66.8824 35.6912 67.367 35.6912C67.9325 35.6912 68.4171 35.5286 68.9018 35.2034C69.3057 34.8782 69.7095 34.4717 69.9519 33.9839C70.275 33.4961 70.4365 32.9269 70.6788 32.2765C70.8404 31.6261 71.0019 30.9757 71.0827 30.3253C71.1635 29.6749 71.2443 29.0245 71.325 28.3741C71.4058 27.805 71.4058 27.2359 71.4058 26.7481H73.1829V34.1465L72.9406 34.3904H71.9713V35.5286H77.464V34.3904L76.3331 34.3091L76.0908 34.0652V26.8294L76.3331 26.5855L77.464 26.5042V25.366H68.4171V26.4229Z" fill="#1C1B1A"/>
<path d="M84.8143 26.4229L85.9452 26.5855L86.1067 26.8294L84.0065 32.2765L81.9064 26.8294L82.0679 26.5855L83.118 26.4229V25.366H77.7061V26.4229L78.9985 26.5855L82.5526 35.6099C82.3103 36.179 82.0679 36.6668 81.8256 37.0733C81.5833 37.4798 81.341 37.7237 81.0986 37.9676L79.3216 36.7481H79.2408C78.9177 36.9107 78.5946 37.1546 78.433 37.3985C78.2715 37.6424 78.1099 37.9676 78.1099 38.2928C78.1099 38.6993 78.2715 39.1058 78.6754 39.431C78.9985 39.7562 79.4831 39.9188 79.9678 39.9188C80.6947 39.9188 81.4217 39.5936 82.0679 38.8619C82.7141 38.2115 83.3603 37.2359 83.845 36.0977L87.7222 26.5855L88.8531 26.4229V25.366H84.7335V26.4229H84.8143Z" fill="#1C1B1A"/>
<path d="M99.5156 28.1301C99.1925 27.4797 98.8694 26.9106 98.3847 26.5041C98.0616 26.1789 97.6578 25.935 97.0923 25.6911C96.5269 25.4472 95.8807 25.2846 95.0729 25.2846C94.2652 25.2846 93.4574 25.4472 92.7305 25.8537C92.0843 26.1789 91.5996 26.6667 91.1957 27.2358C91.2765 26.5854 91.3573 26.0163 91.5996 25.6098C91.8419 25.122 92.165 24.7154 92.4881 24.4715C92.8112 24.1463 93.2151 23.9837 93.619 23.8211C94.0229 23.6585 94.5075 23.5772 94.9114 23.4959L96.5269 23.252C96.9308 23.1707 97.2539 23.0894 97.577 23.0081C97.9001 22.8455 98.2232 22.6829 98.5463 22.439C98.8694 22.1951 99.1117 21.8699 99.2733 21.4634C99.5156 21.0569 99.5964 20.5691 99.6772 20V19.8374H98.304V19.9187C98.2232 20.1626 98.0616 20.3252 97.7385 20.4065C97.577 20.4878 97.4154 20.4878 97.2539 20.4878C97.0923 20.4878 96.9308 20.5691 96.7692 20.5691L95.1537 20.7317C94.8306 20.813 94.5075 20.813 94.1844 20.8943C93.8613 20.9756 93.5382 21.0569 93.2151 21.2195C92.892 21.3821 92.5689 21.5447 92.2458 21.7073C91.9227 21.9512 91.5996 22.1951 91.2765 22.5203C90.9534 22.9268 90.6303 23.4146 90.388 23.9837C90.1456 24.5528 89.9033 25.122 89.7418 25.7724C89.5802 26.4228 89.4994 26.9919 89.4187 27.6423C89.3379 28.2927 89.3379 28.8618 89.3379 29.5122C89.3379 29.9187 89.3379 30.3252 89.4187 30.7317C89.4187 31.1382 89.4994 31.5447 89.661 31.9512C89.7418 32.3577 89.9033 32.7642 90.1456 33.1707C90.388 33.5772 90.6303 33.9024 90.9534 34.2276C91.2765 34.5528 91.6804 34.7967 92.3266 35.1219C92.892 35.3658 93.619 35.5284 94.5883 35.5284C95.1537 35.5284 95.7999 35.4471 96.4461 35.2845C97.0923 35.1219 97.6578 34.878 98.2232 34.4715C98.4655 34.3089 98.7078 34.065 98.9502 33.7398C99.1925 33.4959 99.3541 33.1707 99.5156 32.8455C99.8387 32.1951 100 31.3008 100 30.2439C100 29.5122 99.8387 28.7805 99.5156 28.1301ZM94.6691 34.3089C94.1036 34.3089 93.6998 34.1463 93.4574 33.9024C93.1343 33.5772 92.892 33.252 92.8112 32.8455C92.6497 32.439 92.5689 31.9512 92.5689 31.5447C92.5689 31.1382 92.4881 30.7317 92.4881 30.4065C92.4881 29.6748 92.5689 29.1057 92.6497 28.6992C92.7305 28.2927 92.892 27.9675 93.0536 27.6423C93.2151 27.3171 93.4574 27.0732 93.6998 26.8293C93.9421 26.5854 94.346 26.5041 94.7498 26.5041C95.2345 26.5041 95.5576 26.5854 95.8807 26.8293C96.2038 27.0732 96.4461 27.3984 96.6077 27.7236C96.7692 28.1301 96.9308 28.5366 96.9308 29.0244C97.0116 29.5122 97.0116 30 97.0116 30.4065C97.0116 30.5691 97.0116 30.6504 97.0116 30.813V31.3821C97.0116 31.7886 96.9308 32.1951 96.7692 32.6016C96.6077 33.0081 96.3654 33.3333 96.0423 33.6585C95.6384 34.2276 95.1537 34.3089 94.6691 34.3089Z" fill="#1C1B1A"/>
</svg>
