<svg width="92" height="36" viewBox="0 0 92 36" fill="none" xmlns="http://www.w3.org/2000/svg">
<path d="M10.4658 21.3164L30.5923 14.2784V11.0379L10.4658 3.74682V8.10124L23.8499 12.7595L10.4658 17.1645V21.3164ZM5.23285 1.87341L0 0V4.50631L5.23285 6.3291V1.87341ZM5.23285 18.886L0 20.6075V24.9619L5.23285 23.1392V18.886Z" fill="#E31B23" style="fill:#E31B23;fill:color(display-p3 0.8902 0.1059 0.1373);fill-opacity:1;"/>
<path d="M18.7679 34.3287V29.0123C18.7679 27.6452 18.466 26.6326 17.8622 26.0756C17.2584 25.5186 16.252 25.2148 14.7929 25.2148C13.535 25.2148 12.428 25.468 11.5726 25.9237C10.6669 26.43 10.2141 27.0376 10.2141 27.6958C10.2141 27.9996 10.3147 28.2022 10.4657 28.3541C10.6166 28.506 10.9185 28.5566 11.2707 28.5566H13.2834V26.5819C13.4343 26.5313 13.5853 26.5313 13.6859 26.5313C14.5413 26.43 15.1954 26.5819 15.5476 26.987C15.8495 27.2908 16.0005 27.8478 16.0005 28.5566V29.0629C13.3337 29.6705 11.6733 30.2275 10.9185 30.7844C10.1638 31.3414 9.76123 32.1009 9.76123 33.1136C9.76123 33.9237 10.0128 34.5819 10.5663 35.1389C11.0695 35.6452 11.7739 35.8984 12.5789 35.8984C13.1324 35.8984 13.6859 35.7971 14.2394 35.5439C14.7929 35.3414 15.3967 35.0376 16.0005 34.5819L16.252 35.6958H20.0761V34.5819L18.9188 34.4806L18.7679 34.3287ZM13.384 31.3414C13.8369 30.987 14.7425 30.6832 15.9501 30.3794V33.5186C15.5979 33.7211 15.2457 33.873 14.9438 33.9743C14.0381 34.2781 13.4343 34.1262 13.0318 33.7211C12.7802 33.468 12.6293 33.1136 12.6293 32.6579C12.6796 32.1515 12.9312 31.6958 13.384 31.3414Z" fill="#1C1B1A" style="fill:#1C1B1A;fill:color(display-p3 0.1098 0.1059 0.1020);fill-opacity:1;"/>
<path d="M26.0639 25.2148C24.5544 25.2148 23.2965 25.7212 22.3405 26.7338C21.3845 27.7465 20.8813 29.0629 20.8813 30.6326C20.8813 32.2022 21.3845 33.5186 22.2902 34.4806C23.2462 35.4427 24.5041 35.949 26.0639 35.949C26.7684 35.949 27.5231 35.8477 28.2275 35.6452C28.932 35.4427 29.6867 35.1389 30.3911 34.7338L30.4414 34.6832V32.911L30.2905 33.0123C29.6867 33.3667 29.1332 33.6705 28.5797 33.8731C28.0263 34.0756 27.4728 34.1262 26.9696 34.1262C25.9633 34.1262 25.2086 33.8224 24.6048 33.1642C24.0513 32.506 23.7494 31.6452 23.7494 30.5313H30.4918V30.025C30.4918 28.506 30.0892 27.3414 29.3345 26.5313C28.5294 25.6705 27.4225 25.2148 26.0639 25.2148ZM25.8123 26.5819C26.3658 26.5819 26.7684 26.7845 27.0199 27.1895C27.3218 27.5946 27.4728 28.2528 27.4728 29.0629V29.1642H23.7997C23.85 28.3541 24.0513 27.7465 24.4035 27.2908C24.7557 26.8351 25.2589 26.5819 25.8123 26.5819Z" fill="#1C1B1A" style="fill:#1C1B1A;fill:color(display-p3 0.1098 0.1059 0.1020);fill-opacity:1;"/>
<path d="M38.8946 25.3669C38.6431 25.3163 38.4418 25.2656 38.1902 25.2656C38.1399 25.2656 38.0896 25.2656 37.9889 25.2656C37.9386 25.2656 37.838 25.2656 37.687 25.3163H37.6367C37.1839 25.6201 36.7814 25.9745 36.3788 26.3289C36.0769 26.6327 35.7247 26.9365 35.4228 27.2403L35.5234 25.3163H34.4165L31.2969 26.3289V27.3416H32.756V34.3289L32.5045 34.5821L31.3472 34.6833V35.8479H37.2342V34.6833L35.7247 34.5821L35.4731 34.3289V28.5061C35.775 28.3542 36.0266 28.2023 36.2279 28.1011C36.4795 27.9998 36.6304 27.9492 36.8317 27.9492C37.1336 27.9492 37.3348 27.9998 37.5361 28.1011C37.7374 28.2023 37.8883 28.4049 38.0393 28.6074L38.0896 28.658H39.3475L39.5991 25.6201H39.6494C39.3978 25.5188 39.1462 25.4175 38.8946 25.3669Z" fill="#1C1B1A" style="fill:#1C1B1A;fill:color(display-p3 0.1098 0.1059 0.1020);fill-opacity:1;"/>
<path d="M45.6871 25.2656C44.077 25.2656 42.7184 25.7719 41.7624 26.734C40.7561 27.696 40.2529 29.0124 40.2529 30.6327C40.2529 32.2023 40.7561 33.5188 41.7121 34.4808C42.6681 35.4428 43.9763 35.9491 45.5361 35.9491C47.1463 35.9491 48.5048 35.4428 49.4608 34.5314C50.4671 33.5694 50.9703 32.3036 50.9703 30.734C50.9703 29.0631 50.4671 27.7466 49.5614 26.7846C48.5551 25.772 47.2469 25.2656 45.6871 25.2656ZM47.2469 33.62C46.8444 34.2783 46.2909 34.6327 45.5361 34.6327C44.8317 34.6327 44.2782 34.2783 43.8757 33.5694C43.4732 32.8605 43.2719 31.8479 43.2719 30.5314C43.2719 29.2656 43.4732 28.253 43.8757 27.5441C44.2782 26.8352 44.8317 26.5314 45.5361 26.5314C46.2406 26.5314 46.7941 26.8859 47.1966 27.5947C47.5991 28.3036 47.8004 29.3162 47.8004 30.5821C47.901 31.8985 47.6494 32.9112 47.2469 33.62Z" fill="#1C1B1A" style="fill:#1C1B1A;fill:color(display-p3 0.1098 0.1059 0.1020);fill-opacity:1;"/>
<path d="M59.4741 33.8735C59.0213 34.0254 58.5684 34.1267 58.1156 34.1267C57.1596 34.1267 56.4048 33.7722 55.9017 33.114C55.3482 32.4558 55.0966 31.4938 55.0966 30.2786C55.0966 29.2153 55.3482 28.3039 55.8513 27.595C56.3545 26.8862 56.9583 26.5824 57.6627 26.5824C57.713 26.5824 57.8137 26.5824 57.864 26.5824C57.9143 26.5824 57.9646 26.5824 58.0653 26.633V28.8102L58.1156 28.8608C58.3168 29.0127 58.5181 29.114 58.7194 29.1646C58.9206 29.2153 59.1722 29.2659 59.4238 29.2659C59.8766 29.2659 60.2792 29.114 60.5811 28.8608C60.883 28.5571 61.0339 28.2026 61.0339 27.7469C61.0339 27.0381 60.6817 26.4811 60.0276 26.0254C59.3735 25.6204 58.5181 25.3672 57.5118 25.3672C55.952 25.3672 54.6437 25.8735 53.6374 26.8862C52.6311 27.8988 52.1279 29.2153 52.1279 30.8355C52.1279 32.3545 52.5808 33.6203 53.5368 34.5823C54.4425 35.5444 55.7004 36.0001 57.1596 36.0001C57.8137 36.0001 58.4678 35.8988 59.1219 35.7469C59.776 35.5444 60.4301 35.2912 61.0842 34.9368L61.1345 34.8861V33.1646L60.9836 33.2659C60.4301 33.4684 59.927 33.7216 59.4741 33.8735Z" fill="#1C1B1A" style="fill:#1C1B1A;fill:color(display-p3 0.1098 0.1059 0.1020);fill-opacity:1;"/>
<path d="M65.7632 34.2793V20.3047H64.7568L61.5869 21.3173V22.33H63.0461V34.2793L62.7945 34.5325L61.5869 34.6844V35.7983H67.2727V34.6844L66.0147 34.5325L65.7632 34.2793Z" fill="#1C1B1A" style="fill:#1C1B1A;fill:color(display-p3 0.1098 0.1059 0.1020);fill-opacity:1;"/>
<path d="M78.1411 34.3289V25.2656H77.0844L74.0654 26.2783V27.2909H75.3737V33.6707C75.0214 33.7719 74.7195 33.8226 74.468 33.8732C74.2164 33.9238 73.9145 33.9238 73.7132 33.9238C73.0591 33.9238 72.5559 33.7719 72.3044 33.4175C72.0025 33.0631 71.8515 32.5061 71.8515 31.696V25.2656H70.7446L67.7256 26.2783V27.2909H69.0338V32.3542C69.0338 33.5694 69.2854 34.4808 69.7382 35.0884C70.2414 35.696 70.9458 35.9998 71.9522 35.9998C72.4553 35.9998 73.0088 35.8985 73.5623 35.696C74.0654 35.4934 74.6692 35.1896 75.3233 34.7846V35.8479H79.399V34.6833L78.292 34.5821L78.1411 34.3289Z" fill="#1C1B1A" style="fill:#1C1B1A;fill:color(display-p3 0.1098 0.1059 0.1020);fill-opacity:1;"/>
<path d="M89.9153 26.6338C89.1606 25.7224 88.1543 25.2667 86.9467 25.2667C86.4938 25.2667 85.9907 25.368 85.4875 25.5199C85.0347 25.6718 84.5818 25.8743 84.0786 26.1275V20.3047H82.9717L79.8018 21.3173V22.33H81.2609V35.7477L83.6258 35.7983H84.1793C84.9843 35.7983 85.6888 35.7477 86.2422 35.697C86.7957 35.5958 87.2989 35.4945 87.7014 35.3426C88.7581 34.8363 89.6134 34.1781 90.1669 33.2667C90.7204 32.4059 91.0223 31.3426 91.0223 30.1274C91.0726 28.6591 90.6701 27.4945 89.9153 26.6338ZM88.1039 30.6338C88.1039 31.9502 87.8021 32.9629 87.2486 33.5705C86.6951 34.1781 85.7894 34.4819 84.5818 34.4819C84.4309 34.4819 84.2799 34.4819 84.1793 34.4819C84.129 34.4819 84.0786 34.4819 84.0283 34.4819V27.2414C84.2799 27.1907 84.4812 27.1401 84.6321 27.1401C84.8334 27.0895 85.0347 27.0895 85.1856 27.0895C86.0913 27.0895 86.7957 27.3933 87.2989 28.0009C87.8524 28.6085 88.1039 29.4692 88.1039 30.6338Z" fill="#1C1B1A" style="fill:#1C1B1A;fill:color(display-p3 0.1098 0.1059 0.1020);fill-opacity:1;"/>
</svg>
