<svg width="16" height="16" viewBox="0 0 16 16" fill="none" xmlns="http://www.w3.org/2000/svg">
<path d="M13 6.99997H4.62L7.13 4.49998C7.3183 4.31168 7.42409 4.05628 7.42409 3.78998C7.42409 3.52368 7.3183 3.26828 7.13 3.07998C6.9417 2.89168 6.6863 2.78589 6.42 2.78589C6.1537 2.78589 5.8983 2.89168 5.71 3.07998L1.5 7.28997C1.40896 7.38508 1.3376 7.49722 1.29 7.61997C1.18998 7.86344 1.18998 8.13651 1.29 8.37997C1.3376 8.50273 1.40896 8.61487 1.5 8.70997L5.71 12.92C5.80296 13.0137 5.91356 13.0881 6.03542 13.1389C6.15728 13.1897 6.28799 13.2158 6.42 13.2158C6.55201 13.2158 6.68272 13.1897 6.80458 13.1389C6.92643 13.0881 7.03704 13.0137 7.13 12.92C7.22373 12.827 7.29812 12.7164 7.34889 12.5946C7.39966 12.4727 7.4258 12.342 7.4258 12.21C7.4258 12.078 7.39966 11.9473 7.34889 11.8254C7.29812 11.7036 7.22373 11.593 7.13 11.5L4.62 8.99997H13C13.2652 8.99997 13.5196 8.89462 13.7071 8.70708C13.8946 8.51954 14 8.26519 14 7.99997C14 7.73476 13.8946 7.4804 13.7071 7.29287C13.5196 7.10533 13.2652 6.99997 13 6.99997Z" fill="#545B5E"/>
</svg>
