<svg width="117" height="39" viewBox="0 0 117 39" fill="none" xmlns="http://www.w3.org/2000/svg">
<rect width="117" height="39" rx="8" fill="#151515" fill-opacity="0.8"/>
<path d="M18.52 14.545V25H17.155V14.545H18.52ZM25.0014 16.63C26.0014 16.63 26.8114 16.935 27.4314 17.545C28.0514 18.145 28.3614 19.015 28.3614 20.155V25H27.0114V20.35C27.0114 19.53 26.8064 18.905 26.3964 18.475C25.9864 18.035 25.4264 17.815 24.7164 17.815C23.9964 17.815 23.4214 18.04 22.9914 18.49C22.5714 18.94 22.3614 19.595 22.3614 20.455V25H20.9964V16.78H22.3614V17.95C22.6314 17.53 22.9964 17.205 23.4564 16.975C23.9264 16.745 24.4414 16.63 25.0014 16.63ZM36.2552 18.295C36.5252 17.825 36.9252 17.435 37.4552 17.125C37.9952 16.805 38.6202 16.645 39.3302 16.645C40.0602 16.645 40.7202 16.82 41.3102 17.17C41.9102 17.52 42.3802 18.015 42.7202 18.655C43.0602 19.285 43.2302 20.02 43.2302 20.86C43.2302 21.69 43.0602 22.43 42.7202 23.08C42.3802 23.73 41.9102 24.235 41.3102 24.595C40.7202 24.955 40.0602 25.135 39.3302 25.135C38.6302 25.135 38.0102 24.98 37.4702 24.67C36.9402 24.35 36.5352 23.955 36.2552 23.485V28.9H34.8902V16.78H36.2552V18.295ZM41.8352 20.86C41.8352 20.24 41.7102 19.7 41.4602 19.24C41.2102 18.78 40.8702 18.43 40.4402 18.19C40.0202 17.95 39.5552 17.83 39.0452 17.83C38.5452 17.83 38.0802 17.955 37.6502 18.205C37.2302 18.445 36.8902 18.8 36.6302 19.27C36.3802 19.73 36.2552 20.265 36.2552 20.875C36.2552 21.495 36.3802 22.04 36.6302 22.51C36.8902 22.97 37.2302 23.325 37.6502 23.575C38.0802 23.815 38.5452 23.935 39.0452 23.935C39.5552 23.935 40.0202 23.815 40.4402 23.575C40.8702 23.325 41.2102 22.97 41.4602 22.51C41.7102 22.04 41.8352 21.49 41.8352 20.86ZM46.5419 18.115C46.7819 17.645 47.1219 17.28 47.5619 17.02C48.0119 16.76 48.5569 16.63 49.1969 16.63V18.04H48.8369C47.3069 18.04 46.5419 18.87 46.5419 20.53V25H45.1769V16.78H46.5419V18.115ZM54.5076 25.135C53.7376 25.135 53.0376 24.96 52.4076 24.61C51.7876 24.26 51.2976 23.765 50.9376 23.125C50.5876 22.475 50.4126 21.725 50.4126 20.875C50.4126 20.035 50.5926 19.295 50.9526 18.655C51.3226 18.005 51.8226 17.51 52.4526 17.17C53.0826 16.82 53.7876 16.645 54.5676 16.645C55.3476 16.645 56.0526 16.82 56.6826 17.17C57.3126 17.51 57.8076 18 58.1676 18.64C58.5376 19.28 58.7226 20.025 58.7226 20.875C58.7226 21.725 58.5326 22.475 58.1526 23.125C57.7826 23.765 57.2776 24.26 56.6376 24.61C55.9976 24.96 55.2876 25.135 54.5076 25.135ZM54.5076 23.935C54.9976 23.935 55.4576 23.82 55.8876 23.59C56.3176 23.36 56.6626 23.015 56.9226 22.555C57.1926 22.095 57.3276 21.535 57.3276 20.875C57.3276 20.215 57.1976 19.655 56.9376 19.195C56.6776 18.735 56.3376 18.395 55.9176 18.175C55.4976 17.945 55.0426 17.83 54.5526 17.83C54.0526 17.83 53.5926 17.945 53.1726 18.175C52.7626 18.395 52.4326 18.735 52.1826 19.195C51.9326 19.655 51.8076 20.215 51.8076 20.875C51.8076 21.545 51.9276 22.11 52.1676 22.57C52.4176 23.03 52.7476 23.375 53.1576 23.605C53.5676 23.825 54.0176 23.935 54.5076 23.935ZM64.0573 16.645C64.7673 16.645 65.3873 16.8 65.9173 17.11C66.4573 17.42 66.8573 17.81 67.1173 18.28V16.78H68.4973V25.18C68.4973 25.93 68.3373 26.595 68.0173 27.175C67.6973 27.765 67.2373 28.225 66.6373 28.555C66.0473 28.885 65.3573 29.05 64.5673 29.05C63.4873 29.05 62.5873 28.795 61.8673 28.285C61.1473 27.775 60.7223 27.08 60.5923 26.2H61.9423C62.0923 26.7 62.4023 27.1 62.8723 27.4C63.3423 27.71 63.9073 27.865 64.5673 27.865C65.3173 27.865 65.9273 27.63 66.3973 27.16C66.8773 26.69 67.1173 26.03 67.1173 25.18V23.455C66.8473 23.935 66.4473 24.335 65.9173 24.655C65.3873 24.975 64.7673 25.135 64.0573 25.135C63.3273 25.135 62.6623 24.955 62.0623 24.595C61.4723 24.235 61.0073 23.73 60.6673 23.08C60.3273 22.43 60.1573 21.69 60.1573 20.86C60.1573 20.02 60.3273 19.285 60.6673 18.655C61.0073 18.015 61.4723 17.52 62.0623 17.17C62.6623 16.82 63.3273 16.645 64.0573 16.645ZM67.1173 20.875C67.1173 20.255 66.9923 19.715 66.7423 19.255C66.4923 18.795 66.1523 18.445 65.7223 18.205C65.3023 17.955 64.8373 17.83 64.3273 17.83C63.8173 17.83 63.3523 17.95 62.9323 18.19C62.5123 18.43 62.1773 18.78 61.9273 19.24C61.6773 19.7 61.5523 20.24 61.5523 20.86C61.5523 21.49 61.6773 22.04 61.9273 22.51C62.1773 22.97 62.5123 23.325 62.9323 23.575C63.3523 23.815 63.8173 23.935 64.3273 23.935C64.8373 23.935 65.3023 23.815 65.7223 23.575C66.1523 23.325 66.4923 22.97 66.7423 22.51C66.9923 22.04 67.1173 21.495 67.1173 20.875ZM72.319 18.115C72.559 17.645 72.899 17.28 73.339 17.02C73.789 16.76 74.334 16.63 74.974 16.63V18.04H74.614C73.084 18.04 72.319 18.87 72.319 20.53V25H70.954V16.78H72.319V18.115ZM84.1997 20.575C84.1997 20.835 84.1847 21.11 84.1547 21.4H77.5847C77.6347 22.21 77.9097 22.845 78.4097 23.305C78.9197 23.755 79.5347 23.98 80.2547 23.98C80.8447 23.98 81.3347 23.845 81.7247 23.575C82.1247 23.295 82.4047 22.925 82.5647 22.465H84.0347C83.8147 23.255 83.3747 23.9 82.7147 24.4C82.0547 24.89 81.2347 25.135 80.2547 25.135C79.4747 25.135 78.7747 24.96 78.1547 24.61C77.5447 24.26 77.0647 23.765 76.7147 23.125C76.3647 22.475 76.1897 21.725 76.1897 20.875C76.1897 20.025 76.3597 19.28 76.6997 18.64C77.0397 18 77.5147 17.51 78.1247 17.17C78.7447 16.82 79.4547 16.645 80.2547 16.645C81.0347 16.645 81.7247 16.815 82.3247 17.155C82.9247 17.495 83.3847 17.965 83.7047 18.565C84.0347 19.155 84.1997 19.825 84.1997 20.575ZM82.7897 20.29C82.7897 19.77 82.6747 19.325 82.4447 18.955C82.2147 18.575 81.8997 18.29 81.4997 18.1C81.1097 17.9 80.6747 17.8 80.1947 17.8C79.5047 17.8 78.9147 18.02 78.4247 18.46C77.9447 18.9 77.6697 19.51 77.5997 20.29H82.7897ZM89.0615 25.135C88.4315 25.135 87.8665 25.03 87.3665 24.82C86.8665 24.6 86.4715 24.3 86.1815 23.92C85.8915 23.53 85.7315 23.085 85.7015 22.585H87.1115C87.1515 22.995 87.3415 23.33 87.6815 23.59C88.0315 23.85 88.4865 23.98 89.0465 23.98C89.5665 23.98 89.9765 23.865 90.2765 23.635C90.5765 23.405 90.7265 23.115 90.7265 22.765C90.7265 22.405 90.5665 22.14 90.2465 21.97C89.9265 21.79 89.4315 21.615 88.7615 21.445C88.1515 21.285 87.6515 21.125 87.2615 20.965C86.8815 20.795 86.5515 20.55 86.2715 20.23C86.0015 19.9 85.8665 19.47 85.8665 18.94C85.8665 18.52 85.9915 18.135 86.2415 17.785C86.4915 17.435 86.8465 17.16 87.3065 16.96C87.7665 16.75 88.2915 16.645 88.8815 16.645C89.7915 16.645 90.5265 16.875 91.0865 17.335C91.6465 17.795 91.9465 18.425 91.9865 19.225H90.6215C90.5915 18.795 90.4165 18.45 90.0965 18.19C89.7865 17.93 89.3665 17.8 88.8365 17.8C88.3465 17.8 87.9565 17.905 87.6665 18.115C87.3765 18.325 87.2315 18.6 87.2315 18.94C87.2315 19.21 87.3165 19.435 87.4865 19.615C87.6665 19.785 87.8865 19.925 88.1465 20.035C88.4165 20.135 88.7865 20.25 89.2565 20.38C89.8465 20.54 90.3265 20.7 90.6965 20.86C91.0665 21.01 91.3815 21.24 91.6415 21.55C91.9115 21.86 92.0515 22.265 92.0615 22.765C92.0615 23.215 91.9365 23.62 91.6865 23.98C91.4365 24.34 91.0815 24.625 90.6215 24.835C90.1715 25.035 89.6515 25.135 89.0615 25.135ZM97.0484 25.135C96.4184 25.135 95.8534 25.03 95.3534 24.82C94.8534 24.6 94.4584 24.3 94.1684 23.92C93.8784 23.53 93.7184 23.085 93.6884 22.585H95.0984C95.1384 22.995 95.3284 23.33 95.6684 23.59C96.0184 23.85 96.4734 23.98 97.0334 23.98C97.5534 23.98 97.9634 23.865 98.2634 23.635C98.5634 23.405 98.7134 23.115 98.7134 22.765C98.7134 22.405 98.5534 22.14 98.2334 21.97C97.9134 21.79 97.4184 21.615 96.7484 21.445C96.1384 21.285 95.6384 21.125 95.2484 20.965C94.8684 20.795 94.5384 20.55 94.2584 20.23C93.9884 19.9 93.8534 19.47 93.8534 18.94C93.8534 18.52 93.9784 18.135 94.2284 17.785C94.4784 17.435 94.8334 17.16 95.2934 16.96C95.7534 16.75 96.2784 16.645 96.8684 16.645C97.7784 16.645 98.5134 16.875 99.0734 17.335C99.6334 17.795 99.9334 18.425 99.9734 19.225H98.6084C98.5784 18.795 98.4034 18.45 98.0834 18.19C97.7734 17.93 97.3534 17.8 96.8234 17.8C96.3334 17.8 95.9434 17.905 95.6534 18.115C95.3634 18.325 95.2184 18.6 95.2184 18.94C95.2184 19.21 95.3034 19.435 95.4734 19.615C95.6534 19.785 95.8734 19.925 96.1334 20.035C96.4034 20.135 96.7734 20.25 97.2434 20.38C97.8334 20.54 98.3134 20.7 98.6834 20.86C99.0534 21.01 99.3684 21.24 99.6284 21.55C99.8984 21.86 100.038 22.265 100.048 22.765C100.048 23.215 99.9234 23.62 99.6734 23.98C99.4234 24.34 99.0684 24.625 98.6084 24.835C98.1584 25.035 97.6384 25.135 97.0484 25.135Z" fill="#FDFDFD"/>
</svg>
