<svg width="16" height="255" viewBox="0 0 16 255" fill="none" xmlns="http://www.w3.org/2000/svg">
<path d="M8 87.5C11.5899 87.5 14.5 84.5899 14.5 81C14.5 77.4101 11.5899 74.5 8 74.5C4.41015 74.5 1.5 77.4101 1.5 81C1.5 84.5899 4.41015 87.5 8 87.5Z" stroke="#545B5E" stroke-width="3"/>
<path d="M8 17.5C11.5899 17.5 14.5 14.5899 14.5 11C14.5 7.41015 11.5899 4.5 8 4.5C4.41015 4.5 1.5 7.41015 1.5 11C1.5 14.5899 4.41015 17.5 8 17.5Z" stroke="#545B5E" stroke-width="3"/>
<path d="M9 143V89H7V143H9Z" fill="#545B5E"/>
<path d="M9 73V19H7V73H9Z" fill="#545B5E"/>
<path d="M8 157.5C11.5899 157.5 14.5 154.59 14.5 151C14.5 147.41 11.5899 144.5 8 144.5C4.41015 144.5 1.5 147.41 1.5 151C1.5 154.59 4.41015 157.5 8 157.5Z" stroke="#545B5E" stroke-width="3"/>
<path d="M9 213V159H7V213H9Z" fill="#545B5E"/>
<path d="M8 227.5C11.5899 227.5 14.5 224.59 14.5 221C14.5 217.41 11.5899 214.5 8 214.5C4.41015 214.5 1.5 217.41 1.5 221C1.5 224.59 4.41015 227.5 8 227.5Z" stroke="#545B5E" stroke-width="3"/>
<path d="M9 234V229H7V234H9Z" fill="#545B5E"/>
<path d="M9 241V236H7V241H9Z" fill="#545B5E"/>
<path d="M9 248V243H7V248H9Z" fill="#545B5E"/>
<path d="M9 255V250H7V255H9Z" fill="#545B5E"/>
</svg>
