<svg width="16" height="16" viewBox="0 0 16 16" fill="none" xmlns="http://www.w3.org/2000/svg">
<path d="M15.8933 0.826267C15.7581 0.500625 15.4993 0.241849 15.1737 0.106615C15.0135 0.0383268 14.8415 0.00210563 14.6673 0H5.33848C4.98504 0 4.64605 0.140408 4.39613 0.390336C4.1462 0.640264 4.0058 0.979239 4.0058 1.33269C4.0058 1.68615 4.1462 2.02512 4.39613 2.27504C4.64605 2.52497 4.98504 2.66537 5.33848 2.66537H11.4555L0.394207 13.7133C0.269296 13.8372 0.170152 13.9847 0.102493 14.1471C0.0348345 14.3095 0 14.4836 0 14.6596C0 14.8355 0.0348345 15.0097 0.102493 15.1721C0.170152 15.3345 0.269296 15.4819 0.394207 15.6057C0.518099 15.7307 0.665495 15.8299 0.827896 15.8975C0.990296 15.9652 1.16449 16 1.34041 16C1.51635 16 1.69053 15.9652 1.85293 15.8975C2.01533 15.8299 2.16273 15.7307 2.28663 15.6057L13.3347 4.54447V10.6615C13.3347 11.015 13.4751 11.3539 13.7249 11.6039C13.9749 11.8538 14.3139 11.9942 14.6673 11.9942C15.0208 11.9942 15.3597 11.8538 15.6096 11.6039C15.8596 11.3539 16 11.015 16 10.6615V1.33269C15.9979 1.15854 15.9617 0.986487 15.8933 0.826267Z" fill="#414141"/>
</svg>
