<svg width="20" height="20" viewBox="0 0 20 20" fill="none" xmlns="http://www.w3.org/2000/svg">
<path d="M19.8667 1.03283C19.6977 0.625782 19.3742 0.302312 18.9672 0.133269C18.7668 0.0479085 18.5518 0.00263203 18.3342 0H6.6731C6.2313 0 5.80757 0.17551 5.49517 0.48792C5.18275 0.80033 5.00725 1.22405 5.00725 1.66586C5.00725 2.10768 5.18275 2.5314 5.49517 2.8438C5.80757 3.15622 6.2313 3.33172 6.6731 3.33172H14.3194L0.492758 17.1417C0.33662 17.2965 0.21269 17.4808 0.128117 17.6838C0.0435432 17.8868 0 18.1045 0 18.3245C0 18.5443 0.0435432 18.7622 0.128117 18.9652C0.21269 19.1682 0.33662 19.3523 0.492758 19.5072C0.647623 19.6633 0.831868 19.7873 1.03487 19.8718C1.23787 19.9565 1.45561 20 1.67552 20C1.89543 20 2.11317 19.9565 2.31617 19.8718C2.51917 19.7873 2.70342 19.6633 2.85828 19.5072L16.6683 5.68058V13.3269C16.6683 13.7687 16.8438 14.1924 17.1562 14.5048C17.4687 14.8172 17.8923 14.9928 18.3342 14.9928C18.776 14.9928 19.1997 14.8172 19.512 14.5048C19.8245 14.1924 20 13.7687 20 13.3269V1.66586C19.9973 1.44817 19.9522 1.23311 19.8667 1.03283Z" fill="black"/>
</svg>
