<svg width="16" height="17" viewBox="0 0 16 17" fill="none" xmlns="http://www.w3.org/2000/svg">
<path d="M8.53619 9.81127C8.46672 9.26171 8.96765 8.26783 10.2037 8.26782C11.4398 8.26782 11.8581 9.47218 11.7429 10.0451C11.609 10.7116 11.0899 11.4132 10.2037 11.4132C9.1775 11.4132 8.6441 10.6648 8.53619 9.81127ZM8.53619 9.81127H7.58612M7.58612 9.81127C7.56953 9.19695 7.11473 8.26782 6.02906 8.26782C4.94566 8.26783 4.54283 9.02887 4.48365 9.58911M7.58612 9.81127C7.58842 9.89637 7.5823 9.97542 7.5683 10.0451C7.43438 10.7116 6.91525 11.4132 6.02906 11.4132C5.14288 11.4132 4.53647 10.7233 4.47816 9.81127C4.4738 9.743 4.47531 9.66805 4.48365 9.58911M4.48365 9.58911L3.25377 9.90481M6.43719 8.96939C6.34779 8.91092 6.11069 8.79867 5.87747 8.81738C5.64425 8.83609 5.43047 8.92651 5.35273 8.96939M10.6235 9.25002C10.5418 9.19935 10.2946 9.10035 9.95878 9.1097C9.62295 9.11906 9.41461 9.20714 9.35241 9.25002" stroke="#151515" stroke-width="0.190476" stroke-linecap="round"/>
<path d="M8.10504 9.98635C8.33164 10.2658 8.77906 10.978 8.75591 11.591C8.76556 11.7163 8.69517 11.9813 8.33646 12.0391M11.5278 12.0391C11.7734 10.99 11.8446 9.94139 11.8222 9.17681L11.9813 3.52447L4.34448 3.23535L3.57789 9.98635C2.99451 9.77914 1.88852 9.67699 2.13151 10.926C2.36974 12.1505 3.44764 12.7109 3.91235 12.4463C3.92724 12.4378 3.94674 12.4429 3.95489 12.458C4.84752 14.108 5.68749 14.9895 6.39833 15.4603C6.58084 15.5812 6.75483 15.675 6.91903 15.7478C7.48841 16.0003 7.93987 16.0002 8.21945 16.0001L8.23523 16.0001C8.66075 16.0001 9.03595 15.9155 9.37786 15.7223C10.2098 15.2522 10.8446 14.1394 11.5278 12.0391ZM11.5278 12.0391C11.8959 11.8608 12.936 11.3886 12.6756 8.67084M7.56989 13.8317C8.17737 14.2654 8.63732 14.2133 9.37786 13.8317" stroke="#151515" stroke-width="0.190476" stroke-linecap="round"/>
<path d="M4.14185 7.92526C4.66024 9.43492 4.55944 10.8768 4.44425 11.4091C4.40585 11.4285 4.29161 11.3888 4.14185 11.0752C3.95465 10.6833 3.76747 10.0881 3.23468 9.94298C2.80844 9.82685 3.13385 9.94298 2.67308 9.94298C2.09705 8.7817 1.80846 6.58979 2.14027 5.31237C2.67306 3.2612 3.72428 2.08982 4.93386 2.75755C6.18664 0.1737 9.38338 -0.704751 11.2697 0.594662C15.3593 2.75755 14.2937 8.78171 11.7305 9.30428L11.5001 6.40108C9.15296 6.27043 7.62658 6.3285 5.79781 5.31237C5.79781 6.94978 4.71784 7.54784 4.14185 7.92526Z" fill="#151515"/>
<ellipse cx="5.98502" cy="9.84044" rx="0.402985" ry="0.404404" fill="#151515"/>
<ellipse cx="10.1046" cy="10.11" rx="0.402985" ry="0.404404" fill="#151515"/>
</svg>
