<svg width="20" height="20" viewBox="0 0 20 20" fill="none" xmlns="http://www.w3.org/2000/svg">
<path d="M10 13V16C10 17.6569 8.65685 19 7 19C5.34315 19 4 17.6569 4 16C4 14.3431 5.34315 13 7 13M10 13H7M10 13V7M7 13C5.34315 13 4 11.6569 4 10C4 8.34315 5.34315 7 7 7M13 7C11.3431 7 10 8.34315 10 10C10 11.6569 11.3431 13 13 13C14.6569 13 16 11.6569 16 10C16 8.34315 14.6569 7 13 7ZM13 7H10M13 7C14.6569 7 16 5.65685 16 4C16 2.34315 14.6569 1 13 1L10 1M10 7H7M10 7V1M7 7C5.34315 7 4 5.65685 4 4C4 2.34315 5.34315 1 7 1L10 1" stroke="#545B5E" stroke-width="2"/>
</svg>
