<svg width="410" height="296" viewBox="0 0 410 296" fill="none" xmlns="http://www.w3.org/2000/svg">
<path d="M133.341 209.652C132.239 192.811 138.488 155.799 150.104 141.539C164.625 123.714 181.965 121.235 205.591 121.235C229.202 121.235 253.447 119.818 267.098 141.539C277.959 158.821 290.354 197.139 290.236 214.374" stroke="#151515" stroke-width="2"/>
<path d="M156.125 94.9098C155.086 88.8658 158.447 86.9613 160.257 86.7645L179.736 36.8306L238.41 49.1075L248.917 74.9598C251.75 96.8694 243.723 104.236 239.355 105.18C235.766 118.968 226.762 132.173 222.709 137.053L228.611 148.149C217.184 161.37 194.179 155.311 184.105 150.628L191.424 134.692C186.985 132.897 176.903 117.26 172.417 109.666C163.327 111.2 157.424 102.465 156.125 94.9098Z" fill="#FDFDFD"/>
<path d="M409 266.314L1 266.314" stroke="#151515" stroke-width="2" stroke-linecap="round"/>
<path d="M102.342 264.898C101.586 256.587 109.661 237.983 113.793 229.72L141.959 232.553L146.563 278.709C117.167 278.119 103.286 275.286 102.342 264.898Z" fill="#FDFDFD"/>
<path d="M212.565 85.7997C211.954 80.9733 216.361 72.2449 227.236 72.2449C238.11 72.2448 241.79 82.8217 240.778 87.8534C239.599 93.7066 235.032 99.8679 227.236 99.8679C218.207 99.8679 213.514 93.2959 212.565 85.7997ZM212.565 85.7997H204.207M204.207 85.7997C204.061 80.4046 200.059 72.2448 190.508 72.2449C180.976 72.2449 177.432 78.9285 176.912 83.8486M204.207 85.7997C204.227 86.547 204.173 87.2413 204.05 87.8534C202.872 93.7066 198.304 99.8679 190.508 99.8679C182.711 99.8679 177.376 93.8093 176.863 85.7997C176.825 85.2001 176.838 84.5418 176.912 83.8486M176.912 83.8486L166.091 86.6212M194.604 79.0915C193.077 78.1295 190.531 77.8761 188.622 78.1295C186.712 78.383 184.803 79.6501 184.133 80.4264M233.091 81.0439C232.2 79.5634 230.18 78.3844 227.236 78.1295C224.308 77.8761 222.564 78.64 222.017 79.0165" stroke="#151515" stroke-width="2" stroke-linecap="round"/>
<path d="M303.744 228.067L276.305 234.56L273.944 277.765C293.305 277.057 312.43 272.335 315.264 266.432C317.824 261.099 313.07 243.531 303.744 228.067Z" fill="#FDFDFD"/>
<path d="M185.216 147.913C187.336 150.92 196.736 156.046 207.426 156.046C217.728 156.046 226.719 150.327 228.542 147.913M185.216 147.913L191.473 134.338M185.216 147.913C171.472 149.684 159.666 154.642 149.159 159.836C138.653 165.03 114.751 199.313 108.312 228.185C108.19 229.12 108.751 231.307 111.971 232.575M228.542 147.913L222.639 137.171M228.542 147.913C244.903 147.913 264.111 156.84 270.993 161.607C289.055 174.12 305.541 217.72 308.167 221.865C310.268 225.182 306.214 228.359 304.464 228.887M209.08 87.6773C211.072 90.1341 215.007 96.3949 214.803 101.783C214.888 102.884 214.269 105.214 211.115 105.722M239.178 105.722C241.338 96.4999 241.964 87.2821 241.768 80.5609L243.167 30.8731L176.01 28.3315L169.269 87.6773C164.139 85.8558 154.413 84.9578 156.549 95.9374C158.644 106.702 168.123 111.627 172.21 109.302C172.341 109.227 172.512 109.272 172.584 109.404C180.434 123.91 185.222 130.199 191.473 134.338M239.178 105.722C242.416 104.155 251.562 100.004 249.272 76.1131M239.178 105.722C233.171 124.185 226.535 134.338 222.639 137.171M201.957 122.374C207.299 126.186 211.344 125.729 217.856 122.374M191.473 134.338C193.078 135.401 197.206 137.685 198.65 138.325C203.657 140.544 207.627 140.543 210.086 140.542L210.225 140.542C213.966 140.542 219.633 138.869 222.639 137.171M164.69 98.1019C164.817 99.881 166.725 101.914 168.506 102.296M157.881 280.126C139.819 278.71 136.04 278.742 121.281 276.923C111.84 275.759 102.041 270.801 103.576 260.767C104.533 254.51 105.007 245.538 111.971 232.575M260.958 275.522C288.111 272.453 280.817 277.022 295.312 275.522C309.007 274.106 316.68 266.905 316.68 261.593C316.68 252.031 310.348 239.763 304.464 228.887M298.096 247.073L285.514 251.913M122.597 250.733L132.353 253.293M111.971 232.575L144.791 241.076H277.014L304.464 228.887" stroke="#151515" stroke-width="2" stroke-linecap="round"/>
<path d="M173.444 69.3478C178.024 82.5577 177.133 95.1749 176.116 99.8322C175.776 100.002 174.767 99.6544 173.444 96.9108C171.79 93.4813 170.137 88.2735 165.43 87.0033C161.664 85.9872 164.539 87.0033 160.468 87.0033C155.379 76.8419 152.83 57.6621 155.761 46.4845C160.468 28.5362 169.755 18.2864 180.441 24.1292C191.509 1.51991 219.75 -6.16673 236.415 5.20343C272.544 24.1292 263.13 76.842 240.486 81.4145L238.451 56.0109C217.715 54.8677 204.23 55.3758 188.074 46.4845C188.074 60.8122 178.533 66.0453 173.444 69.3478Z" fill="#151515"/>
<path d="M193.132 86.0564C193.132 87.7373 191.72 89.1314 189.938 89.1314C188.157 89.1314 186.745 87.7373 186.745 86.0564C186.745 84.3756 188.157 82.9815 189.938 82.9815C191.72 82.9815 193.132 84.3756 193.132 86.0564Z" stroke="#151515" stroke-width="1.16898"/>
<path d="M229.493 86.0564C229.493 87.7373 228.081 89.1314 226.3 89.1314C224.518 89.1314 223.106 87.7373 223.106 86.0564C223.106 84.3756 224.518 82.9815 226.3 82.9815C228.081 82.9815 229.493 84.3756 229.493 86.0564Z" stroke="#151515" stroke-width="1.16898"/>
<path d="M377.966 252.735C378.793 259.11 380.092 290.628 364.154 290.746C358.415 290.789 355.005 285.644 353.104 278.824C344.178 272.921 339.481 263.596 341.842 259.464C343.731 256.159 348.795 256.67 351.091 257.339C351.157 255.681 351.265 254.129 351.405 252.735C355.261 250.256 366.633 246.786 377.966 252.735Z" fill="#FDFDFD"/>
<path d="M351.405 252.735C360.094 255.852 373.008 254.034 377.966 252.735M351.405 252.735C355.261 250.256 366.633 246.786 377.966 252.735M351.405 252.735C351.265 254.129 351.157 255.681 351.091 257.339M377.966 252.735C378.793 259.11 380.092 290.628 364.154 290.746C358.415 290.789 355.005 285.644 353.104 278.824M351.091 257.339C348.795 256.67 343.731 256.159 341.842 259.464C339.481 263.596 344.178 272.921 353.104 278.824M351.091 257.339C350.831 263.919 351.249 272.169 353.104 278.824" stroke="#151515" stroke-width="2" stroke-linecap="round"/>
<path d="M358.606 211.773C356.442 214.921 353.979 223.861 361.44 234.438" stroke="#151515" stroke-width="2" stroke-linecap="round"/>
<path d="M367.697 243.645C370.136 240.498 372.598 233.154 367.697 225.466C361.676 216.022 370.294 205.398 372.065 205.162" stroke="#151515" stroke-width="2" stroke-linecap="round"/>
<path d="M44.7296 219.102C49.3006 209.576 54.1385 208.126 56.101 208.598C56.1387 208.606 56.1756 208.616 56.2116 208.627C59.4288 208.738 66.0961 212.252 67.028 225.419C67.0762 226.101 67.1188 226.766 67.156 227.415C70.1086 226.916 74.1579 223.439 75.6679 219.102C76.9991 215.278 76.806 206.419 81.4653 206.585C83.1294 206.807 87.3863 209.54 86.124 217.555C84.5711 227.415 82.2936 230.192 78.3596 232.767C73.5338 235.926 69.6853 236.393 67.3582 236.226C67.2198 245.185 65.9871 250.016 65.8631 254.847C65.7652 258.664 65.7813 264.693 65.8188 269.203C65.8323 270.823 65.8041 271.595 65.8188 272.649L57.2677 272.961L49.7795 272.95L44.7873 272.752C44.6173 271.533 44.5487 270.737 44.3699 269.288C44.0045 266.328 43.6328 262.939 43.3033 259.336C37.7326 258.893 26.1975 256.964 22.8693 246.324C18.7092 233.023 18.9937 223.092 24.3187 221.263C28.5787 219.8 30.5413 227.304 31.1515 231.239C31.3733 236.171 32.4821 241.181 34.7452 245.038C37.0083 248.895 40.8664 248.973 42.5125 248.53C41.8758 236.571 42.115 224.55 44.7296 219.102Z" fill="#FDFDFD"/>
<path d="M38.0733 271.14C40.2366 273.135 49.8882 272.969 55.8788 272.969C60.6713 272.969 73.0186 272.636 73.5178 271.14M38.0733 271.14C38.6692 270.048 40.3908 269.549 44.3699 269.288M38.0733 271.14C38.0733 279.89 33.5681 295 55.3059 295C76.9101 295 73.5178 279.064 73.5178 271.14M73.5178 271.14C73.5178 270.199 70.5431 269.534 65.8188 269.203M56.101 208.598C54.1385 208.126 49.3006 209.576 44.7296 219.102C42.115 224.55 41.8758 236.571 42.5125 248.53M56.101 208.598C56.139 208.607 56.1758 208.617 56.2116 208.627M56.101 208.598C56.1387 208.606 56.1756 208.616 56.2116 208.627M56.101 208.598C54.3408 208.224 50.8366 211.902 50.0546 229.742C49.0561 252.52 50.3874 252.686 50.0546 260.666C49.7883 267.051 49.7795 271.398 49.7795 272.95M56.2116 208.627C59.4288 208.738 66.0961 212.252 67.028 225.419C67.0762 226.101 67.1188 226.766 67.156 227.415M56.2116 208.627C57.321 209.015 59.4399 213.316 59.0405 227.415C58.5413 245.038 57.5428 247.199 57.21 255.845C56.9438 262.761 57.1568 270.023 57.2678 272.961M49.7795 272.95L44.7873 272.752C44.6173 271.533 44.5487 270.737 44.3699 269.288M49.7795 272.95L57.2678 272.961M57.2678 272.961L65.8188 272.649C65.8041 271.595 65.8323 270.823 65.8188 269.203M67.156 227.415C70.1086 226.916 74.1579 223.439 75.6679 219.102C76.9991 215.278 76.806 206.419 81.4653 206.585M67.156 227.415C67.2331 228.758 67.2873 230.03 67.322 231.239M81.4653 206.585C83.1294 206.807 87.3863 209.54 86.124 217.555C84.5711 227.415 82.2936 230.192 78.3596 232.767C73.5338 235.926 69.6853 236.393 67.3582 236.226M81.4653 206.585C82.131 211.24 82.7034 215.81 80.1741 221.263C77.0124 228.08 70.7776 230.74 67.322 231.239M67.3582 236.226C67.2198 245.185 65.9871 250.016 65.8631 254.847C65.7652 258.664 65.7813 264.693 65.8188 269.203M67.3582 236.226C67.3819 234.692 67.3735 233.036 67.322 231.239M42.5125 248.53C40.8664 248.973 37.0083 248.895 34.7452 245.038C32.4821 241.181 31.3733 236.171 31.1515 231.239C30.5413 227.304 28.5787 219.8 24.3187 221.263M42.5125 248.53C42.6044 250.256 42.7145 251.98 42.8384 253.684M24.3187 221.263C18.9937 223.092 18.7092 233.023 22.8693 246.324C26.1975 256.964 37.7326 258.893 43.3033 259.336M24.3187 221.263C28.0457 238.355 24.0952 252.52 42.8384 253.684M43.3033 259.336C43.1352 257.498 42.9781 255.604 42.8384 253.684M43.3033 259.336C43.6328 262.939 44.0045 266.328 44.3699 269.288" stroke="#151515" stroke-width="2"/>
<rect x="66.521" y="269.856" width="5.43056" height="2.36007" fill="#151515"/>
<rect x="39.1323" y="269.856" width="5.66667" height="2.36007" fill="#151515"/>
<path d="M40.4303 219.804L44.7983 223.581M46.4511 209.77L48.4581 214.374M64.8678 209.062L61.7983 212.839M68.4094 217.443L64.8678 219.804M84.7011 219.804L88.5969 218.624M75.3747 208.235L77.9719 212.131M30.9858 220.748L28.5067 225.352M16.1108 232.435L21.4233 234.206M18.472 245.656L23.1942 244.358M38.3053 231.845L43.3817 234.206M70.7706 242.705L65.6942 245.066" stroke="#151515" stroke-width="2" stroke-linecap="round" stroke-linejoin="round"/>
<ellipse cx="189.938" cy="86.8827" rx="2.125" ry="2.12485" fill="#151515"/>
<ellipse cx="226.3" cy="86.8827" rx="2.125" ry="2.12485" fill="#151515"/>
<path d="M207.597 156.176C197.775 156.932 188.629 151.218 185.284 148.267C149.986 156.176 144.555 161.725 132.278 177.425C127.36 183.713 110.791 218.741 108.666 224.762C106.966 229.578 110.162 232.277 111.972 233.025L125.903 235.976H286.104C290.944 234.56 301.711 231.089 306.055 228.539C310.4 225.99 308.416 221.26 306.882 219.214L284.923 177.661C275.762 156.79 243.565 149.133 228.611 147.913C225.699 150.353 217.419 155.421 207.597 156.176Z" fill="#151515"/>
<path d="M287.874 294.643L133.871 294.532C131.686 294.531 129.917 292.76 129.917 290.576C129.917 288.39 131.688 286.619 133.873 286.619H287.877C290.092 286.619 291.889 288.415 291.889 290.631C291.889 292.848 290.091 294.645 287.874 294.643Z" fill="#151515"/>
<path d="M296.959 178.372L291.395 281.571C291.275 283.803 289.429 285.552 287.193 285.552H135.202C133.015 285.552 131.192 283.877 131.009 281.697L122.504 180.626C122.299 178.192 124.202 176.096 126.644 176.065L292.703 173.937C295.137 173.906 297.09 175.941 296.959 178.372Z" fill="#FDFDFD" stroke="#151515" stroke-width="2"/>
<path d="M217.709 227.965C217.78 231.498 214.392 234.704 209.77 234.796C205.148 234.889 201.635 231.82 201.564 228.287C201.494 224.754 204.881 221.547 209.503 221.455C214.126 221.363 217.639 224.431 217.709 227.965Z" stroke="#151515" stroke-width="2"/>
</svg>
