<svg width="22" height="22" viewBox="0 0 22 22" fill="none" xmlns="http://www.w3.org/2000/svg">
<path d="M20.9982 20H16.8573V13.5038C16.8573 11.9546 16.8297 9.96046 14.7036 9.96046C12.5468 9.96046 12.2168 11.6482 12.2168 13.3909V19.9995H8.07587V6.64059H12.0511V8.46624H12.1068C12.5047 7.78483 13.0795 7.22427 13.7703 6.84427C14.461 6.46425 15.2417 6.27903 16.0291 6.3083C20.2262 6.3083 21 9.07378 21 12.6715L20.9982 20ZM3.40348 4.81452C2.9282 4.8146 2.46357 4.6735 2.06834 4.40907C1.67311 4.14462 1.36505 3.76871 1.18309 3.32888C1.00112 2.88904 0.953455 2.40503 1.04609 1.93805C1.13872 1.47108 1.36751 1.0421 1.70352 0.705375C2.03954 0.368652 2.46768 0.139309 2.93382 0.0463404C3.39994 -0.0466279 3.88313 0.000956094 4.32226 0.183075C4.7614 0.365203 5.13676 0.673671 5.40088 1.0695C5.66499 1.46533 5.80602 1.93071 5.8061 2.40683C5.80616 2.72295 5.74407 3.03599 5.62335 3.32808C5.50264 3.62016 5.32568 3.88557 5.10258 4.10914C4.87947 4.33272 4.61459 4.51008 4.32306 4.63111C4.03154 4.75214 3.71906 4.81446 3.40348 4.81452ZM5.47397 20H1.32869V6.64059H5.47397V20Z" fill="#414141"/>
</svg>
