<svg width="24" height="25" viewBox="0 0 24 25" fill="none" xmlns="http://www.w3.org/2000/svg">
<path d="M14.0623 16.8174C13.828 17.3447 13.4947 17.8386 13.0623 18.271L11.4544 19.8789C9.56719 21.7661 6.50743 21.7661 4.62023 19.8789C2.73303 17.9917 2.73303 14.932 4.62023 13.0448L6.22813 11.4369C8.11533 9.54968 11.1751 9.54969 13.0623 11.4369C13.5495 11.9241 13.911 12.4895 14.1466 13.0928" stroke="#0066FF" stroke-width="1.4" stroke-miterlimit="2" stroke-linecap="round" stroke-linejoin="round"/>
<path d="M9.93618 8.18249C10.1704 7.6552 10.5038 7.16125 10.9362 6.72886L12.544 5.12097C14.4312 3.23377 17.491 3.23377 19.3782 5.12097C21.2654 7.00817 21.2654 10.0679 19.3782 11.9551L17.7703 13.563C15.8831 15.4502 12.8233 15.4502 10.9362 13.563C10.4489 13.0758 10.0875 12.5104 9.85181 11.9071" stroke="#0066FF" stroke-width="1.4" stroke-miterlimit="2" stroke-linecap="round" stroke-linejoin="round"/>
</svg>
