<svg width="29" height="30" viewBox="0 0 29 30" fill="none" xmlns="http://www.w3.org/2000/svg">
<path d="M27.5476 25.3571H22.4815V17.5269C22.4815 15.6596 22.4477 13.2559 19.8465 13.2559C17.2078 13.2559 16.8041 15.2903 16.8041 17.3909V25.3566H11.7379V9.25429H16.6014V11.4548H16.6696C17.1563 10.6335 17.8596 9.95783 18.7047 9.49979C19.5497 9.04173 20.5048 8.81847 21.4682 8.85376C26.6031 8.85376 27.5498 12.1871 27.5498 16.5237L27.5476 25.3571ZM6.02156 7.05321C5.44009 7.05331 4.87164 6.88324 4.3881 6.5645C3.90457 6.24574 3.52767 5.79264 3.30505 5.26249C3.08243 4.73233 3.02411 4.14891 3.13744 3.58604C3.25077 3.02317 3.53068 2.5061 3.94177 2.10023C4.35286 1.69436 4.87667 1.41792 5.44696 1.30586C6.01723 1.1938 6.60838 1.25115 7.14563 1.47067C7.68289 1.6902 8.14212 2.06201 8.46525 2.53913C8.78838 3.01624 8.96092 3.5772 8.96102 4.15109C8.96109 4.53213 8.88513 4.90946 8.73743 5.26153C8.58975 5.61359 8.37325 5.9335 8.1003 6.20299C7.82734 6.47247 7.50328 6.68626 7.14661 6.83214C6.78995 6.97803 6.40766 7.05314 6.02156 7.05321ZM8.55467 25.3571H3.48318V9.25429H8.55467V25.3571Z" fill="black"/>
</svg>
