<svg width="20" height="21" viewBox="0 0 20 21" fill="none" xmlns="http://www.w3.org/2000/svg">
<path d="M18.9985 17.75H15.5046V12.2688C15.5046 10.9617 15.4813 9.27914 13.6874 9.27914C11.8676 9.27914 11.5892 10.7032 11.5892 12.1736V17.7496H8.09527V6.478H11.4494V8.01839H11.4964C11.8321 7.44345 12.3171 6.97048 12.8999 6.64985C13.4827 6.32921 14.1414 6.17293 14.8058 6.19763C18.3471 6.19763 19 8.531 19 11.5666L18.9985 17.75ZM4.15294 4.93725C3.75192 4.93732 3.35989 4.81827 3.02641 4.59515C2.69294 4.37202 2.43301 4.05485 2.27948 3.68374C2.12595 3.31263 2.08573 2.90424 2.16389 2.51023C2.24205 2.11622 2.43509 1.75427 2.7186 1.47016C3.00211 1.18605 3.36336 0.992542 3.75666 0.9141C4.14995 0.835658 4.55764 0.875807 4.92816 1.02947C5.29868 1.18314 5.61539 1.44341 5.83824 1.77739C6.06109 2.11137 6.18008 2.50404 6.18015 2.90576C6.1802 3.17249 6.12781 3.43662 6.02595 3.68307C5.9241 3.92951 5.77479 4.15345 5.58655 4.34209C5.3983 4.53073 5.17481 4.68038 4.92883 4.7825C4.68286 4.88462 4.41921 4.9372 4.15294 4.93725ZM5.89991 17.75H2.40233V6.478H5.89991V17.75Z" fill="#545B5E"/>
</svg>
