<svg width="98" height="25" viewBox="0 0 98 25" fill="none" xmlns="http://www.w3.org/2000/svg">
<path d="M94.6038 9.26651V15.0098C94.6038 15.5809 94.6489 15.9429 94.8443 16.2003C95.0396 16.4577 95.4755 16.5623 96.009 16.514C96.4448 16.4657 97.0309 16.2003 97.0309 16.2003L98.0002 18.8387C96.8806 19.3535 96.2494 19.5626 95.5205 19.5626C94.5512 19.6109 93.6721 19.3052 93.2362 18.9915C92.312 18.3721 91.6808 17.5919 91.5831 15.9348V9.25847H89.3965V6.36269H91.5831V1.85815H94.5512V6.41095H97.5644V9.30673H94.5963V9.26651H94.6038Z" fill="#151515"/>
<path d="M26.262 19.3132H23.2939V0H26.262V19.3132Z" fill="#151515"/>
<path d="M34.2874 19.619C32.5817 19.619 31.0262 18.9433 29.8089 17.6483C28.5916 16.3532 27.9604 14.6479 27.9604 12.83C27.9604 11.0121 28.6442 9.30685 29.8089 8.0118C31.0262 6.71674 32.5817 5.9928 34.2874 5.9928C35.9931 5.9928 37.5486 6.71674 38.7659 8.0118C39.9831 9.30685 40.6143 11.0121 40.6143 12.83C40.6143 14.6479 39.9831 16.3532 38.7659 17.6483C37.5936 18.9433 35.9931 19.619 34.2874 19.619ZM34.2874 8.90466C32.2961 8.90466 30.6881 10.6663 30.6881 12.7898C30.6881 14.9617 32.2961 16.675 34.2874 16.675C36.2787 16.675 37.8867 14.9697 37.8867 12.7898C37.8867 10.6663 36.2787 8.90466 34.2874 8.90466Z" fill="#151515"/>
<path d="M55.1088 6.41876V18.3799C55.1088 20.5517 54.1395 22.5707 52.4338 23.7612C51.3668 24.5897 49.9992 25 48.5414 25H48.3911C46.6403 24.9517 44.6942 24.3806 42.5526 23.1901L43.9653 20.5517C45.671 21.5331 47.1738 21.9996 48.4888 22.0559C49.368 22.1042 50.1419 21.8468 50.7731 21.3803C51.5997 20.7609 52.1332 19.5141 52.1332 18.4282V16.562C50.2847 18.4764 47.2715 19.1521 44.8369 17.7525C39.0961 14.4384 42.1619 5.3811 48.3385 5.95221C49.7963 6.10505 51.1564 6.78073 52.1332 7.86664V6.46702H55.1013V6.41876H55.1088ZM51.8477 12.162C51.8477 10.0385 50.0443 8.43775 48.053 8.63885H48.0981C46.3473 8.79168 44.8895 10.3441 44.8895 12.2103C44.9346 14.0765 46.3999 15.6289 48.1507 15.7335H48.1056C50.0443 15.8381 51.8477 14.2856 51.8477 12.162Z" fill="#151515"/>
<path d="M60.429 3.42669H57.4233V0.0161133H60.429V3.42669ZM60.429 6.43508H57.4233V19.3293H60.429V6.43508Z" fill="#151515"/>
<path d="M71.6929 19.3133V13.3046C71.6929 12.267 71.738 10.8754 71.0617 10.0469C70.4756 9.32293 69.5514 8.96096 68.6271 9.00922C67.6052 9.05748 66.8237 9.37119 66.2902 10.0469C65.6064 10.8754 65.6064 12.1141 65.6064 13.1518V15.4845C65.6064 16.7795 65.6064 18.0183 65.6064 19.2651H62.6909V6.41911H65.659V8.28528C65.659 8.13244 67.0717 5.95257 69.9872 6.16171C72.0761 6.31454 73.6391 7.6096 74.2703 9.6849C74.7587 11.1328 74.7587 12.6852 74.7587 14.2377V19.3133C74.7587 19.3133 71.6929 19.3133 71.6929 19.3133Z" fill="#151515"/>
<path d="M88.9151 12.114L79.3345 14.4949C80.0634 16.1037 81.7165 16.9805 83.3696 16.5622C84.4367 16.3048 85.3609 15.5246 85.8493 14.3904L88.329 15.6291C87.9383 16.5059 87.3597 17.3907 86.6233 18.0101C85.8418 18.6858 84.9702 19.1523 83.9933 19.4097C82.3402 19.8199 80.6871 19.5143 79.2293 18.5329C77.7716 17.5999 76.7947 16.0474 76.4115 14.2858C76.0208 12.5242 76.3138 10.7144 77.193 9.16189C78.0721 7.60944 79.4773 6.52352 81.1304 6.10524C82.7835 5.69501 84.4367 6.00068 85.8944 6.98202C86.9163 7.6577 87.7429 8.63905 88.2764 9.78127C88.4718 10.2478 88.6671 10.7144 88.7648 11.2292L88.9151 12.114ZM85.4586 10.5615C84.632 9.32277 83.1743 8.69535 81.7165 9.00906C80.2588 9.37103 79.1842 10.6661 78.9889 12.1703L85.4586 10.5615Z" fill="#151515"/>
<path d="M18.034 0.0078125H0V19.313H18.034V0.0078125Z" fill="#2BC744"/>
<path d="M12.0077 6.45898H0V19.313H12.0077V6.45898Z" fill="#0B9C4C"/>
<path d="M6.02638 0.0078125H0V6.45895H6.02638V0.0078125Z" fill="#0B9C4C"/>
<path d="M18.0342 12.8623H12.0078V19.3134H18.0342V12.8623Z" fill="#0B9C4C"/>
<path d="M12.0527 12.8623H6.02637V19.3134H12.0527V12.8623Z" fill="#008E46"/>
<path d="M6.02638 6.45898H0V12.9101H6.02638V6.45898Z" fill="#008E46"/>
<path d="M6.02638 12.8623H0V19.3134H6.02638V12.8623Z" fill="#07874B"/>
</svg>
