<svg width="182" height="44" viewBox="0 0 182 44" fill="none" xmlns="http://www.w3.org/2000/svg">
<path d="M15.7061 26.0753C15.5497 24.8388 16.6768 22.6025 19.458 22.6025C22.2391 22.6025 23.1803 25.3123 22.9212 26.6015C22.6199 28.1011 21.4519 29.6796 19.458 29.6796C17.149 29.6796 15.9489 27.9958 15.7061 26.0753ZM15.7061 26.0753H13.5684M13.5684 26.0753C13.5311 24.6931 12.5078 22.6025 10.065 22.6025C7.62738 22.6025 6.721 24.3149 6.58785 25.5754M13.5684 26.0753C13.5736 26.2668 13.5598 26.4446 13.5283 26.6015C13.227 28.1011 12.0589 29.6796 10.065 29.6796C8.0711 29.6796 6.70668 28.1274 6.5755 26.0753C6.56568 25.9217 6.56909 25.753 6.58785 25.5754M6.58785 25.5754L3.82061 26.2858M10.9833 24.1811C10.7822 24.0495 10.2487 23.797 9.72394 23.839C9.1992 23.8811 8.71819 24.0846 8.54327 24.1811M20.4024 24.8125C20.2187 24.6985 19.6625 24.4757 18.9069 24.4968C18.1513 24.5178 17.6825 24.716 17.5426 24.8125" stroke="#151515" stroke-width="0.465825" stroke-linecap="round"/>
<path d="M14.7355 26.469C15.2453 27.0979 16.252 28.7003 16.2 30.0794C16.2216 30.3613 16.0633 30.9577 15.2562 31.0878M22.4366 31.0878C22.9893 28.7272 23.1494 26.3679 23.0992 24.6476L23.4572 11.9298L6.27421 11.2793L4.54939 26.469C3.2368 26.0028 0.748312 25.773 1.29504 28.5832C1.83105 31.3384 4.25634 32.5992 5.30193 32.0039C5.33544 31.9848 5.37931 31.9963 5.39764 32.0302C7.40607 35.7429 9.29599 37.7261 10.8954 38.7855C11.306 39.0575 11.6975 39.2686 12.067 39.4324C13.3481 40.0005 14.3639 40.0002 14.9929 39.9999L15.0284 39.9999C15.9858 39.9999 16.83 39.8095 17.5993 39.3748C19.4712 38.3172 20.8996 35.8134 22.4366 31.0878ZM22.4366 31.0878C23.2649 30.6866 25.605 29.6241 25.0193 23.5092M13.5314 35.121C14.8982 36.0968 15.9331 35.9797 17.5993 35.121" stroke="#151515" stroke-width="0.465825" stroke-linecap="round"/>
<path d="M5.81917 21.8318C6.98554 25.2286 6.75875 28.4729 6.49955 29.6705C6.41316 29.714 6.15613 29.6248 5.81917 28.9193C5.39796 28.0374 4.9768 26.6983 3.77802 26.3717C2.819 26.1104 3.55116 26.3717 2.51443 26.3717C1.21837 23.7588 0.569029 18.827 1.3156 15.9528C2.51439 11.3377 4.87964 8.70209 7.60119 10.2045C10.4199 4.39082 17.6126 2.41431 21.8569 5.33799C31.0583 10.2045 28.6608 23.7589 22.8936 24.9346L22.3753 18.4024C17.0942 18.1085 13.6598 18.2391 9.54508 15.9528C9.54508 19.637 7.11514 20.9826 5.81917 21.8318Z" fill="#151515"/>
<ellipse cx="9.96629" cy="26.1411" rx="0.906716" ry="0.909909" fill="#151515"/>
<ellipse cx="19.2353" cy="26.7478" rx="0.906716" ry="0.909909" fill="#151515"/>
<path d="M44.0068 25.5566H45.6934V15.0615H43.7168V17.167H40.2148V12.2148H55.0283V17.167H51.5049V15.0615H49.2598V25.5566H50.9785V28.5H44.0068V25.5566ZM55.3136 11.7852H60.3302V18.4023C60.7528 18.0156 61.2147 17.7148 61.716 17.5C62.2244 17.278 62.783 17.167 63.3918 17.167C64.731 17.167 65.755 17.543 66.464 18.2949C67.173 19.0397 67.5275 20.1318 67.5275 21.5713V25.5566H69.1603V28.5H64.1867V22.3232C64.1867 21.7002 64.0327 21.2096 63.7248 20.8516C63.4168 20.4935 63.0194 20.3145 62.5324 20.3145C62.2101 20.3145 61.8592 20.404 61.4796 20.583C61.1001 20.762 60.717 21.0234 60.3302 21.3672V25.5566H61.963V28.5H55.3136V25.5566H57.0324V14.7285H55.3136V11.7852ZM76.6321 27.8984C76.3815 28.056 76.1523 28.1921 75.9446 28.3066C75.737 28.4141 75.5293 28.5 75.3216 28.5645C75.1139 28.6361 74.8991 28.6862 74.6771 28.7148C74.4551 28.7507 74.2116 28.7686 73.9466 28.7686C73.2806 28.7686 72.6826 28.679 72.1527 28.5C71.6299 28.3138 71.1859 28.0632 70.8206 27.748C70.4626 27.4258 70.1868 27.0498 69.9935 26.6201C69.8001 26.1833 69.7034 25.7106 69.7034 25.2021C69.7034 24.6865 69.8001 24.2103 69.9935 23.7734C70.194 23.3366 70.4805 22.9642 70.8529 22.6562C71.2252 22.3411 71.68 22.0977 72.2171 21.9258C72.7614 21.7467 73.3808 21.6572 74.0755 21.6572C74.584 21.6572 75.0459 21.6859 75.4613 21.7432C75.8838 21.7933 76.2741 21.8577 76.6321 21.9365V21.5928C76.6321 21.3135 76.5784 21.0736 76.471 20.873C76.3636 20.6654 76.2132 20.4971 76.0198 20.3682C75.8265 20.2321 75.5937 20.1354 75.3216 20.0781C75.0495 20.0137 74.7523 19.9814 74.43 19.9814C73.7568 19.9814 73.1624 20.0495 72.6468 20.1855C72.1383 20.3145 71.6478 20.5042 71.1751 20.7549L70.1439 18.6709C70.8743 18.1696 71.637 17.7865 72.432 17.5215C73.234 17.2565 74.0827 17.124 74.9779 17.124C75.6725 17.124 76.3135 17.2028 76.9007 17.3604C77.4951 17.5107 78.0036 17.7614 78.4261 18.1123C78.8486 18.4561 79.178 18.9072 79.4144 19.4658C79.6579 20.0244 79.7796 20.7048 79.7796 21.5068V25.5566H81.2728V28.5H76.6321V27.8984ZM74.1829 26.2334C74.6914 26.2334 75.1533 26.151 75.5687 25.9863C75.984 25.8216 76.3385 25.6211 76.6321 25.3848V23.9668H74.054C73.8893 23.9668 73.7282 23.9919 73.5706 24.042C73.4131 24.0921 73.2698 24.1637 73.1409 24.2568C73.0192 24.3499 72.9189 24.4645 72.8402 24.6006C72.7685 24.7367 72.7327 24.8942 72.7327 25.0732C72.7327 25.4027 72.8509 25.6784 73.0872 25.9004C73.3307 26.1224 73.696 26.2334 74.1829 26.2334ZM87.0796 17.3711H89.3032V20.1855H87.0581L87.0366 24.8906C87.0366 25.1628 87.0581 25.3848 87.1011 25.5566C87.144 25.7214 87.2049 25.8538 87.2837 25.9541C87.3696 26.0544 87.4699 26.1224 87.5845 26.1582C87.699 26.194 87.8315 26.2119 87.9819 26.2119C88.254 26.2119 88.494 26.1868 88.7016 26.1367C88.9093 26.0794 89.117 26.015 89.3247 25.9434L89.7866 28.0166C89.4214 28.2458 89.0132 28.4284 88.562 28.5645C88.118 28.7005 87.588 28.7686 86.9721 28.7686C86.5353 28.7686 86.1164 28.6934 85.7153 28.543C85.3214 28.3926 84.9741 28.167 84.6733 27.8662C84.3725 27.5583 84.1326 27.1751 83.9536 26.7168C83.7746 26.2585 83.6886 25.7249 83.6958 25.1162L83.728 20.1855H82.1274V17.3711H83.7388L83.7602 14.707L87.1011 13.1172L87.0796 17.3711ZM92.7038 17.124H90.3512V11.5596L93.4342 11.3877L92.7038 17.124ZM100.906 20.7764C100.906 20.6045 100.849 20.4398 100.734 20.2822C100.627 20.1247 100.466 19.9886 100.251 19.874C100.036 19.7523 99.771 19.6556 99.4559 19.584C99.1479 19.5124 98.797 19.4766 98.4031 19.4766C98.2527 19.4766 98.0916 19.4909 97.9197 19.5195C97.7479 19.541 97.5867 19.584 97.4363 19.6484C97.2931 19.7129 97.1714 19.8024 97.0711 19.917C96.978 20.0244 96.9314 20.1641 96.9314 20.3359C96.9314 20.4219 96.9422 20.5042 96.9637 20.583C96.9923 20.6618 97.0424 20.737 97.1141 20.8086C97.1857 20.8802 97.2824 20.9482 97.4041 21.0127C97.533 21.07 97.6977 21.1165 97.8982 21.1523L99.9178 21.5498C100.648 21.693 101.261 21.8721 101.755 22.0869C102.249 22.3018 102.646 22.5524 102.947 22.8389C103.248 23.1253 103.463 23.444 103.592 23.7949C103.728 24.1458 103.796 24.5254 103.796 24.9336C103.796 25.571 103.645 26.1296 103.345 26.6094C103.051 27.0892 102.661 27.4902 102.174 27.8125C101.694 28.1276 101.15 28.3639 100.541 28.5215C99.9393 28.6862 99.3305 28.7686 98.7146 28.7686C98.3136 28.7686 97.9484 28.7435 97.6189 28.6934C97.2967 28.6432 97.0031 28.5752 96.7381 28.4893C96.4803 28.4033 96.2475 28.3031 96.0398 28.1885C95.8393 28.0667 95.6531 27.9342 95.4813 27.791H93.5369V24.8047H96.577V24.8691C96.5841 25.0768 96.6486 25.2594 96.7703 25.417C96.8921 25.5674 97.0496 25.6963 97.243 25.8037C97.4435 25.9111 97.6691 25.9935 97.9197 26.0508C98.1704 26.1009 98.4354 26.126 98.7146 26.126C99.3592 26.126 99.8283 26.0436 100.122 25.8789C100.415 25.707 100.562 25.4886 100.562 25.2236C100.562 25.016 100.491 24.8405 100.347 24.6973C100.204 24.5469 99.95 24.4287 99.5848 24.3428L97.5223 23.9023C96.226 23.6517 95.2485 23.2363 94.5896 22.6562C93.9308 22.069 93.6014 21.3171 93.6014 20.4004C93.6014 19.8633 93.7267 19.3763 93.9773 18.9395C94.228 18.4954 94.5682 18.1195 94.9979 17.8115C95.4275 17.4964 95.9288 17.2529 96.5018 17.0811C97.0818 16.9092 97.7013 16.8232 98.3602 16.8232C98.8113 16.8232 99.2124 16.8519 99.5633 16.9092C99.9142 16.9593 100.229 17.0273 100.509 17.1133C100.788 17.1992 101.031 17.3031 101.239 17.4248C101.454 17.5394 101.644 17.6611 101.808 17.79H103.678V20.7764H100.906ZM115.57 27.8984C115.32 28.056 115.091 28.1921 114.883 28.3066C114.675 28.4141 114.468 28.5 114.26 28.5645C114.052 28.6361 113.837 28.6862 113.615 28.7148C113.393 28.7507 113.15 28.7686 112.885 28.7686C112.219 28.7686 111.621 28.679 111.091 28.5C110.568 28.3138 110.124 28.0632 109.759 27.748C109.401 27.4258 109.125 27.0498 108.932 26.6201C108.738 26.1833 108.642 25.7106 108.642 25.2021C108.642 24.6865 108.738 24.2103 108.932 23.7734C109.132 23.3366 109.419 22.9642 109.791 22.6562C110.164 22.3411 110.618 22.0977 111.155 21.9258C111.7 21.7467 112.319 21.6572 113.014 21.6572C113.522 21.6572 113.984 21.6859 114.4 21.7432C114.822 21.7933 115.212 21.8577 115.57 21.9365V21.5928C115.57 21.3135 115.517 21.0736 115.409 20.873C115.302 20.6654 115.151 20.4971 114.958 20.3682C114.765 20.2321 114.532 20.1354 114.26 20.0781C113.988 20.0137 113.691 19.9814 113.368 19.9814C112.695 19.9814 112.101 20.0495 111.585 20.1855C111.077 20.3145 110.586 20.5042 110.113 20.7549L109.082 18.6709C109.813 18.1696 110.575 17.7865 111.37 17.5215C112.172 17.2565 113.021 17.124 113.916 17.124C114.611 17.124 115.252 17.2028 115.839 17.3604C116.433 17.5107 116.942 17.7614 117.364 18.1123C117.787 18.4561 118.116 18.9072 118.353 19.4658C118.596 20.0244 118.718 20.7048 118.718 21.5068V25.5566H120.211V28.5H115.57V27.8984ZM113.121 26.2334C113.63 26.2334 114.092 26.151 114.507 25.9863C114.922 25.8216 115.277 25.6211 115.57 25.3848V23.9668H112.992C112.828 23.9668 112.666 23.9919 112.509 24.042C112.351 24.0921 112.208 24.1637 112.079 24.2568C111.957 24.3499 111.857 24.4645 111.778 24.6006C111.707 24.7367 111.671 24.8942 111.671 25.0732C111.671 25.4027 111.789 25.6784 112.026 25.9004C112.269 26.1224 112.634 26.2334 113.121 26.2334ZM137.722 28.5V25.707C137.278 26.4876 136.845 27.0605 136.422 27.4258C136 27.791 135.52 28.0846 134.983 28.3066C134.453 28.5286 133.74 28.6361 132.845 28.6289C132.401 28.6217 131.957 28.5716 131.513 28.4785C131.069 28.3783 130.639 28.2422 130.224 28.0703C129.809 27.8913 129.4 27.68 128.999 27.4365C128.606 27.1859 128.247 26.8994 127.925 26.5771C127.13 25.7751 126.511 24.8477 126.067 23.7949C125.63 22.735 125.412 21.582 125.412 20.3359C125.412 19.5697 125.505 18.8285 125.691 18.1123C125.877 17.3962 126.138 16.7266 126.475 16.1035C126.812 15.4805 127.216 14.9147 127.689 14.4062C128.169 13.8906 128.699 13.4502 129.279 13.085C129.866 12.7197 130.496 12.4368 131.169 12.2363C131.843 12.0358 132.548 11.9355 133.286 11.9355C134.131 11.9355 134.865 12.0501 135.488 12.2793C136.111 12.5013 136.78 12.9202 137.497 13.5361H139.903V17.167H136.583C136.254 16.6585 135.942 16.2897 135.649 16.0605C135.362 15.8314 135.047 15.6416 134.704 15.4912C134.367 15.3408 133.894 15.2656 133.286 15.2656C132.684 15.2656 132.125 15.4017 131.61 15.6738C131.094 15.946 130.647 16.3148 130.267 16.7803C129.895 17.2386 129.601 17.7829 129.386 18.4131C129.171 19.0361 129.064 19.6771 129.064 20.3359C129.064 20.9876 129.161 21.6071 129.354 22.1943C129.547 22.7816 129.841 23.3115 130.235 23.7842C130.629 24.2497 131.087 24.6077 131.61 24.8584C132.133 25.109 132.691 25.2344 133.286 25.2344C134.045 25.2344 134.707 25.0124 135.273 24.5684C135.839 24.1243 136.247 23.5192 136.497 22.7529H133.393V19.8096H140.934V28.5H137.722ZM145.366 23.6338L145.398 23.9668C145.477 24.2891 145.609 24.5719 145.796 24.8154C145.989 25.0589 146.214 25.263 146.472 25.4277C146.73 25.5924 147.017 25.7178 147.332 25.8037C147.647 25.8825 147.965 25.9219 148.288 25.9219C148.61 25.9219 148.914 25.904 149.201 25.8682C149.494 25.8252 149.777 25.7715 150.049 25.707C150.322 25.6354 150.587 25.5566 150.844 25.4707C151.102 25.3776 151.364 25.2809 151.629 25.1807L152.81 27.3828C152.402 27.6335 152.026 27.8483 151.682 28.0273C151.346 28.1992 151.005 28.3424 150.662 28.457C150.318 28.5716 149.953 28.654 149.566 28.7041C149.179 28.7614 148.728 28.79 148.213 28.79C147.246 28.79 146.386 28.6325 145.634 28.3174C144.882 27.9951 144.249 27.5618 143.733 27.0176C143.225 26.4733 142.834 25.8359 142.562 25.1055C142.297 24.375 142.165 23.6016 142.165 22.7852C142.165 21.9688 142.304 21.2025 142.584 20.4863C142.87 19.7702 143.271 19.1471 143.787 18.6172C144.302 18.0801 144.918 17.6576 145.634 17.3496C146.351 17.0417 147.145 16.8877 148.019 16.8877C148.893 16.8877 149.666 17.0345 150.339 17.3281C151.02 17.6146 151.593 18.0156 152.058 18.5312C152.524 19.0397 152.882 19.6413 153.132 20.3359C153.383 21.0234 153.519 21.7646 153.541 22.5596C153.562 22.7386 153.573 22.9176 153.573 23.0967C153.58 23.2686 153.576 23.4476 153.562 23.6338H145.366ZM147.933 19.5732C147.532 19.5732 147.188 19.6234 146.902 19.7236C146.623 19.8167 146.386 19.9492 146.193 20.1211C146 20.2858 145.846 20.4756 145.731 20.6904C145.616 20.9053 145.527 21.1309 145.463 21.3672H150.114C150.064 21.1237 149.992 20.8945 149.899 20.6797C149.806 20.4648 149.677 20.2751 149.512 20.1104C149.348 19.9456 149.136 19.8167 148.879 19.7236C148.628 19.6234 148.313 19.5732 147.933 19.5732ZM163.709 22.0977C163.709 21.4746 163.544 20.9876 163.215 20.6367C162.885 20.2786 162.448 20.0996 161.904 20.0996C161.532 20.0996 161.156 20.182 160.776 20.3467C160.397 20.5114 160.028 20.8193 159.67 21.2705V25.5566H161.474V28.5H154.556V25.5566H156.189V20.3145H154.578V17.3711H159.648V18.3486C160.114 17.9834 160.633 17.6969 161.206 17.4893C161.786 17.2744 162.395 17.167 163.032 17.167C164.371 17.167 165.402 17.543 166.126 18.2949C166.849 19.0397 167.211 20.1318 167.211 21.5713V25.5566H168.79V28.5H163.709V22.0977ZM172.47 23.6338L172.502 23.9668C172.581 24.2891 172.713 24.5719 172.899 24.8154C173.093 25.0589 173.318 25.263 173.576 25.4277C173.834 25.5924 174.12 25.7178 174.435 25.8037C174.751 25.8825 175.069 25.9219 175.392 25.9219C175.714 25.9219 176.018 25.904 176.305 25.8682C176.598 25.8252 176.881 25.7715 177.153 25.707C177.425 25.6354 177.69 25.5566 177.948 25.4707C178.206 25.3776 178.467 25.2809 178.732 25.1807L179.914 27.3828C179.506 27.6335 179.13 27.8483 178.786 28.0273C178.449 28.1992 178.109 28.3424 177.766 28.457C177.422 28.5716 177.057 28.654 176.67 28.7041C176.283 28.7614 175.832 28.79 175.316 28.79C174.35 28.79 173.49 28.6325 172.738 28.3174C171.986 27.9951 171.352 27.5618 170.837 27.0176C170.328 26.4733 169.938 25.8359 169.666 25.1055C169.401 24.375 169.268 23.6016 169.268 22.7852C169.268 21.9688 169.408 21.2025 169.687 20.4863C169.974 19.7702 170.375 19.1471 170.891 18.6172C171.406 18.0801 172.022 17.6576 172.738 17.3496C173.454 17.0417 174.249 16.8877 175.123 16.8877C175.997 16.8877 176.77 17.0345 177.443 17.3281C178.124 17.6146 178.697 18.0156 179.162 18.5312C179.628 19.0397 179.986 19.6413 180.236 20.3359C180.487 21.0234 180.623 21.7646 180.644 22.5596C180.666 22.7386 180.677 22.9176 180.677 23.0967C180.684 23.2686 180.68 23.4476 180.666 23.6338H172.47ZM175.037 19.5732C174.636 19.5732 174.292 19.6234 174.006 19.7236C173.726 19.8167 173.49 19.9492 173.297 20.1211C173.103 20.2858 172.949 20.4756 172.835 20.6904C172.72 20.9053 172.631 21.1309 172.566 21.3672H177.218C177.168 21.1237 177.096 20.8945 177.003 20.6797C176.91 20.4648 176.781 20.2751 176.616 20.1104C176.451 19.9456 176.24 19.8167 175.982 19.7236C175.732 19.6234 175.417 19.5732 175.037 19.5732Z" fill="#151515"/>
<rect x="40" y="32.5" width="141" height="2" fill="#151515"/>
</svg>
