<svg width="22" height="22" viewBox="0 0 22 22" fill="none" xmlns="http://www.w3.org/2000/svg">
<path d="M11.2688 22C9.48169 22 7.89067 21.7573 6.49572 21.272C5.10078 20.7922 3.92152 20.0865 2.95795 19.1548C1.99438 18.2287 1.26049 17.0962 0.756294 15.7573C0.252098 14.4184 0 12.8954 0 11.1883C0 9.50349 0.252098 7.9749 0.756294 6.60251C1.26609 5.23013 2.00838 4.053 2.98316 3.07113C3.95794 2.08368 5.1484 1.32497 6.55455 0.794979C7.9663 0.264993 9.57412 0 11.378 0C13.0475 0 14.5377 0.242678 15.8486 0.728035C17.1651 1.21339 18.2799 1.90516 19.1931 2.80335C20.1118 3.69596 20.8093 4.75872 21.2855 5.99163C21.7673 7.21897 22.0054 8.57741 21.9998 10.0669C22.0054 11.0934 21.9157 12.0363 21.7308 12.8954C21.546 13.7545 21.2547 14.5049 20.8569 15.1464C20.4648 15.7824 19.9494 16.2873 19.3107 16.6611C18.6721 17.0293 17.899 17.2385 16.9914 17.2887C16.3416 17.3389 15.8149 17.2915 15.4116 17.1464C15.0082 17.0014 14.7001 16.7866 14.4872 16.5021C14.28 16.212 14.1455 15.8745 14.0839 15.4895H13.983C13.8486 15.8243 13.5853 16.1283 13.1931 16.4017C12.801 16.6695 12.322 16.8787 11.7562 17.0293C11.196 17.1743 10.5993 17.2273 9.96627 17.1883C9.30522 17.1492 8.67777 16.9958 8.08394 16.728C7.49571 16.4603 6.97191 16.0725 6.51253 15.5649C6.05876 15.0572 5.70022 14.4296 5.43691 13.682C5.17921 12.9344 5.04756 12.0697 5.04196 11.0879C5.04756 10.1172 5.18482 9.27197 5.45372 8.5523C5.72823 7.83264 6.08957 7.22734 6.53774 6.7364C6.99152 6.24547 7.49571 5.86053 8.05033 5.58159C8.60495 5.30265 9.16236 5.12413 9.72258 5.04603C10.3556 4.95119 10.9551 4.95119 11.5209 5.04603C12.0867 5.14087 12.5629 5.29428 12.9494 5.50628C13.3416 5.71827 13.5853 5.947 13.6805 6.19247H13.7982V5.25523H16.4284V13.4226C16.434 13.8075 16.5208 14.106 16.6889 14.318C16.857 14.53 17.0838 14.636 17.3696 14.636C17.7561 14.636 18.0782 14.4658 18.3359 14.1255C18.5992 13.7852 18.7953 13.2636 18.9242 12.5607C19.0586 11.8577 19.1258 10.9623 19.1258 9.87448C19.1258 8.82566 18.9858 7.90516 18.7057 7.11297C18.4312 6.3152 18.0446 5.63738 17.546 5.0795C17.053 4.51604 16.4788 4.05858 15.8234 3.70711C15.1679 3.35565 14.4564 3.09902 13.6889 2.93724C12.927 2.77545 12.1427 2.69456 11.336 2.69456C9.94106 2.69456 8.72259 2.90656 7.68059 3.33054C6.63858 3.74895 5.77024 4.33752 5.07557 5.09624C4.3809 5.85495 3.8599 6.74477 3.51257 7.76569C3.17083 8.78103 2.99717 9.88842 2.99156 11.0879C2.99717 12.41 3.18204 13.5816 3.54618 14.6025C3.91592 15.6179 4.45933 16.4714 5.17641 17.1632C5.89349 17.855 6.77864 18.3794 7.83184 18.7364C8.88505 19.0934 10.0951 19.272 11.4621 19.272C12.1063 19.272 12.7366 19.2245 13.3528 19.1297C13.969 19.0404 14.5264 18.9289 15.025 18.795C15.5236 18.6667 15.9242 18.5411 16.2267 18.4184L17.0586 20.8452C16.7057 21.046 16.2267 21.2329 15.6217 21.4059C15.0222 21.5844 14.3444 21.7266 13.5881 21.8326C12.8374 21.9442 12.0643 22 11.2688 22ZM10.8822 14.4351C11.5657 14.4351 12.1091 14.304 12.5125 14.0418C12.9214 13.7796 13.2127 13.3919 13.3864 12.8787C13.5657 12.3598 13.6497 11.7211 13.6385 10.9623C13.6329 10.2929 13.5461 9.72664 13.378 9.2636C13.2155 8.79498 12.9326 8.44073 12.5293 8.20084C12.1315 7.95537 11.5769 7.83264 10.8654 7.83264C10.2436 7.83264 9.71418 7.96374 9.27721 8.22594C8.84584 8.48815 8.51531 8.85635 8.28562 9.33054C8.06153 9.79916 7.94669 10.3515 7.94109 10.9874C7.94669 11.5788 8.04193 12.1395 8.2268 12.6695C8.41167 13.1939 8.71699 13.6206 9.14275 13.9498C9.56852 14.2734 10.1483 14.4351 10.8822 14.4351Z" fill="#414141"/>
</svg>
