<svg width="30" height="30" viewBox="0 0 30 30" fill="none" xmlns="http://www.w3.org/2000/svg">
<path d="M15.3665 30C12.9296 30 10.76 29.6691 8.85781 29.0072C6.95561 28.353 5.34753 27.3906 4.03357 26.1202C2.7196 24.8574 1.71885 23.313 1.03131 21.4873C0.34377 19.6615 0 17.5846 0 15.2568C0 12.9593 0.34377 10.8749 1.03131 9.00342C1.72649 7.13199 2.7387 5.52682 4.06795 4.18791C5.39719 2.84139 7.02055 1.80677 8.93802 1.08406C10.8631 0.361354 13.0556 0 15.5155 0C17.792 0 19.8241 0.330925 21.6117 0.992774C23.4069 1.65462 24.9271 2.59795 26.1724 3.82275C27.4252 5.03994 28.3763 6.48916 29.0256 8.17041C29.6826 9.84405 30.0073 11.6965 29.9997 13.7277C30.0073 15.1274 29.8851 16.4131 29.633 17.5846C29.3809 18.7562 28.9836 19.7794 28.4412 20.6542C27.9065 21.5215 27.2037 22.21 26.3328 22.7197C25.4619 23.2218 24.4077 23.507 23.1701 23.5755C22.2839 23.644 21.5658 23.5793 21.0158 23.3815C20.4658 23.1837 20.0456 22.8908 19.7553 22.5029C19.4727 22.1073 19.2893 21.647 19.2053 21.1221H19.0678C18.8844 21.5785 18.5254 21.9932 17.9906 22.3659C17.4559 22.7311 16.8027 23.0164 16.0311 23.2218C15.2672 23.4196 14.4536 23.4918 13.5904 23.4386C12.6889 23.3853 11.8333 23.1761 11.0236 22.811C10.2214 22.4458 9.50715 21.9171 8.88072 21.2248C8.26194 20.5325 7.77302 19.6767 7.41397 18.6573C7.06256 17.6379 6.88304 16.4587 6.8754 15.1198C6.88304 13.7961 7.0702 12.6436 7.43689 11.6622C7.81122 10.6809 8.30396 9.85546 8.9151 9.186C9.53389 8.51655 10.2214 7.99163 10.9777 7.61126C11.734 7.23089 12.4941 6.98745 13.2581 6.88094C14.1213 6.75162 14.9387 6.75162 15.7103 6.88094C16.4819 7.01027 17.1312 7.21948 17.6583 7.50856C18.1931 7.79764 18.5254 8.10955 18.6553 8.44428H18.8157V7.16622H22.4023V18.3035C22.41 18.8285 22.5284 19.2355 22.7576 19.5245C22.9868 19.8136 23.2961 19.9582 23.6858 19.9582C24.2129 19.9582 24.6521 19.7261 25.0035 19.2621C25.3626 18.798 25.63 18.0867 25.8057 17.1282C25.989 16.1696 26.0807 14.9486 26.0807 13.4652C26.0807 12.035 25.8897 10.7798 25.5077 9.69951C25.1334 8.61164 24.6063 7.68733 23.9264 6.92659C23.2541 6.15823 22.4711 5.53442 21.5773 5.05515C20.6835 4.57588 19.7133 4.22594 18.6667 4.00533C17.6278 3.78471 16.5583 3.6744 15.4582 3.6744C13.556 3.6744 11.8944 3.96348 10.4735 4.54165C9.05261 5.11221 7.86851 5.9148 6.92124 6.94941C5.97396 7.98402 5.2635 9.19741 4.78986 10.5896C4.32386 11.9741 4.08704 13.4842 4.0794 15.1198C4.08704 16.9228 4.33914 18.5204 4.8357 19.9125C5.33989 21.2971 6.08091 22.461 7.05874 23.4043C8.03658 24.3477 9.24359 25.0628 10.6798 25.5496C12.116 26.0365 13.7661 26.28 15.6301 26.28C16.5086 26.28 17.368 26.2153 18.2084 26.086C19.0487 25.9642 19.8088 25.8121 20.4887 25.6295C21.1686 25.4545 21.7148 25.2834 22.1273 25.116L23.2618 28.4253C22.7805 28.6991 22.1273 28.954 21.3023 29.1898C20.4849 29.4332 19.5605 29.6272 18.5292 29.7718C17.5055 29.9239 16.4513 30 15.3665 30ZM14.8394 19.6843C15.7714 19.6843 16.5124 19.5055 17.0625 19.148C17.6201 18.7904 18.0174 18.2617 18.2542 17.5618C18.4986 16.8543 18.6132 15.9833 18.598 14.9486C18.5903 14.0358 18.4719 13.2636 18.2427 12.6322C18.0212 11.9932 17.6354 11.5101 17.0854 11.183C16.543 10.8482 15.7867 10.6809 14.8165 10.6809C13.9685 10.6809 13.2466 10.8596 12.6507 11.2172C12.0625 11.5747 11.6118 12.0768 11.2986 12.7235C10.993 13.3625 10.8364 14.1156 10.8288 14.9829C10.8364 15.7893 10.9663 16.5538 11.2184 17.2765C11.4705 17.9916 11.8868 18.5736 12.4674 19.0224C13.048 19.4637 13.8387 19.6843 14.8394 19.6843Z" fill="black"/>
</svg>
