<svg width="20" height="20" viewBox="0 0 20 20" fill="none" xmlns="http://www.w3.org/2000/svg">
<path d="M10.3024 20C8.77939 20 7.38335 19.7614 6.11422 19.2842C4.86002 18.8069 3.77753 18.1273 2.86674 17.2451C1.95595 16.3774 1.24673 15.329 0.739082 14.0998C0.246361 12.8561 0 11.4751 0 9.95662C0 8.48156 0.253826 7.12943 0.761478 5.90022C1.28406 4.671 1.99328 3.62256 2.88914 2.75488C3.78499 1.87274 4.83763 1.19306 6.04703 0.715835C7.27137 0.238612 8.59276 0 10.0112 0C11.5192 0 12.8854 0.224151 14.1097 0.672452C15.349 1.10629 16.4016 1.7209 17.2676 2.51627C18.1486 3.31164 18.8205 4.27332 19.2833 5.4013C19.7611 6.52928 20 7.77296 20 9.13232C20 10.1591 19.8806 11.0557 19.6417 11.8221C19.4028 12.5741 19.0668 13.196 18.6338 13.6876C18.2158 14.1793 17.7156 14.5481 17.1333 14.7939C16.5659 15.0398 15.9388 15.1627 15.252 15.1627C14.9235 15.1627 14.6025 15.1338 14.2889 15.0759C13.9903 15.0181 13.7141 14.9096 13.4602 14.7505C13.2214 14.5915 13.0123 14.3818 12.8331 14.1215C12.654 13.8612 12.5196 13.5286 12.43 13.1236C12.2658 13.4418 12.0866 13.731 11.8925 13.9913C11.6984 14.2372 11.467 14.4469 11.1982 14.6204C10.9444 14.7939 10.6458 14.9313 10.3024 15.0325C9.97387 15.1193 9.59313 15.1627 9.16013 15.1627C8.54796 15.1627 7.98805 15.0615 7.4804 14.859C6.97275 14.6565 6.53229 14.3529 6.15901 13.9479C5.80067 13.543 5.51698 13.0296 5.30795 12.4078C5.11385 11.786 5.0168 11.0701 5.0168 10.2603V9.67462C5.0168 8.86479 5.11385 8.15618 5.30795 7.54881C5.51698 6.92697 5.79321 6.41359 6.13662 6.00868C6.49496 5.60376 6.92796 5.3073 7.43561 5.11931C7.94326 4.91685 8.49571 4.81562 9.09294 4.81562C9.52594 4.81562 9.89922 4.859 10.2128 4.94577C10.5412 5.03254 10.8249 5.15546 11.0638 5.31453C11.3027 5.45915 11.5043 5.63268 11.6685 5.83514C11.8328 6.02314 11.9597 6.2256 12.0493 6.44252V5.01085H14.2889V11.128C14.2889 11.5329 14.3113 11.8655 14.3561 12.1258C14.4009 12.3861 14.4681 12.5958 14.5577 12.7549C14.6473 12.8995 14.7592 13.0007 14.8936 13.0586C15.0429 13.1164 15.2146 13.1453 15.4087 13.1453C15.7671 13.1453 16.0956 13.0803 16.3942 12.9501C16.6928 12.82 16.9466 12.5958 17.1557 12.2777C17.3796 11.9595 17.5439 11.5474 17.6484 11.0412C17.7678 10.5206 17.8275 9.88431 17.8275 9.13232C17.8275 7.91757 17.6185 6.85466 17.2004 5.9436C16.7973 5.03254 16.2374 4.28055 15.5207 3.68764C14.819 3.08026 13.9903 2.62473 13.0347 2.32104C12.0791 2.01735 11.0713 1.86551 10.0112 1.86551C8.89138 1.86551 7.85368 2.05351 6.8981 2.4295C5.94252 2.8055 5.11385 3.34056 4.41209 4.03471C3.71034 4.72885 3.15789 5.57484 2.75476 6.57267C2.36655 7.5705 2.17245 8.69848 2.17245 9.95662C2.17245 11.2292 2.36655 12.3717 2.75476 13.3839C3.15789 14.3962 3.71034 15.2495 4.41209 15.9436C5.12878 16.6522 5.98731 17.1873 6.98768 17.5488C7.98805 17.9248 9.09294 18.1128 10.3024 18.1128C11.4968 18.1128 12.5047 17.9971 13.3259 17.7657C14.1471 17.5488 14.8339 17.2813 15.3863 16.9631V19.0022C14.804 19.2914 14.1097 19.53 13.3035 19.718C12.4972 19.906 11.4968 20 10.3024 20ZM9.60806 13.167C9.9664 13.167 10.2949 13.1092 10.5935 12.9935C10.8921 12.8778 11.1459 12.7115 11.355 12.4946C11.564 12.2777 11.7208 12.0174 11.8253 11.7137C11.9448 11.41 12.0045 11.0701 12.0045 10.6941V9.26247C12.0045 8.88648 11.9448 8.54664 11.8253 8.24295C11.7208 7.93926 11.564 7.68619 11.355 7.48373C11.1459 7.26681 10.8921 7.10051 10.5935 6.98482C10.2949 6.86913 9.95894 6.81128 9.58567 6.81128C8.89884 6.81128 8.35386 7.04266 7.95073 7.50542C7.56252 7.95372 7.36842 8.69848 7.36842 9.7397V10.2386C7.36842 11.2654 7.56999 12.0101 7.97312 12.4729C8.37626 12.9356 8.92124 13.167 9.60806 13.167Z" fill="#545B5E"/>
</svg>
