<svg width="31" height="30" viewBox="0 0 31 30" fill="none" xmlns="http://www.w3.org/2000/svg">
<g clip-path="url(#clip0_163_79245)">
<path d="M15.9687 30C13.6081 30 11.4442 29.6421 9.47704 28.9263C7.53303 28.2104 5.85517 27.191 4.44345 25.8677C3.03172 24.5661 1.93243 22.9935 1.14558 21.1497C0.38186 19.2842 0 17.2127 0 14.9349C0 12.7223 0.39343 10.6941 1.18029 8.85033C1.99029 7.0065 3.08958 5.43384 4.47817 4.13232C5.86673 2.80911 7.49833 1.78959 9.3729 1.07375C11.2706 0.357918 13.3188 0 15.5174 0C17.8548 0 19.9724 0.336226 21.87 1.00868C23.7909 1.65943 25.4225 2.58135 26.7648 3.7744C28.1303 4.96746 29.1718 6.40998 29.8891 8.10195C30.6297 9.79392 31 11.6594 31 13.6985C31 15.2387 30.8149 16.5835 30.4446 17.7331C30.0743 18.8611 29.5535 19.794 28.8824 20.5314C28.2345 21.269 27.4592 21.8221 26.5566 22.1908C25.6771 22.5597 24.7051 22.744 23.6406 22.744C23.1314 22.744 22.6339 22.7007 22.1478 22.6139C21.685 22.5272 21.2569 22.3644 20.8633 22.1257C20.4932 21.8872 20.1691 21.5727 19.8913 21.1823C19.6137 20.7918 19.4054 20.2929 19.2665 19.6854C19.012 20.1627 18.7342 20.5965 18.4334 20.9869C18.1325 21.3558 17.7738 21.6704 17.3572 21.9306C16.9638 22.1909 16.501 22.397 15.9687 22.5488C15.4595 22.679 14.8694 22.744 14.1982 22.744C13.2493 22.744 12.3815 22.5923 11.5946 22.2885C10.8078 21.9848 10.125 21.5293 9.54647 20.9218C8.99104 20.3145 8.55132 19.5444 8.22732 18.6117C7.92647 17.679 7.77604 16.6051 7.77604 15.3904V14.5119C7.77604 13.2972 7.92647 12.2343 8.22732 11.3232C8.55132 10.3905 8.97948 9.62038 9.51176 9.01302C10.0672 8.40564 10.7383 7.96095 11.5252 7.67896C12.3121 7.37527 13.1684 7.22343 14.0941 7.22343C14.7652 7.22343 15.3438 7.2885 15.8298 7.41865C16.3389 7.54881 16.7786 7.73319 17.1489 7.97179C17.5192 8.18872 17.8317 8.44902 18.0862 8.75271C18.3408 9.03471 18.5375 9.3384 18.6764 9.66378V7.51627H22.1478V16.692C22.1478 17.2994 22.1825 17.7983 22.252 18.1887C22.3214 18.5792 22.4256 18.8937 22.5644 19.1323C22.7033 19.3492 22.8768 19.5011 23.0851 19.5879C23.3165 19.6746 23.5826 19.7179 23.8835 19.7179C24.439 19.7179 24.9482 19.6204 25.411 19.4251C25.8738 19.23 26.2672 18.8937 26.5913 18.4166C26.9384 17.9393 27.193 17.3211 27.355 16.5618C27.5401 15.7809 27.6326 14.8265 27.6326 13.6985C27.6326 11.8764 27.3087 10.282 26.6606 8.9154C26.0358 7.54881 25.168 6.42082 24.0571 5.53146C22.9695 4.62039 21.685 3.93709 20.2038 3.48156C18.7226 3.02602 17.1605 2.79826 15.5174 2.79826C13.7816 2.79826 12.1732 3.08027 10.6921 3.64425C9.21091 4.20825 7.92647 5.01084 6.83874 6.05206C5.75103 7.09327 4.89473 8.36226 4.26988 9.859C3.66815 11.3557 3.3673 13.0477 3.3673 14.9349C3.3673 16.8438 3.66815 18.5575 4.26988 20.0758C4.89473 21.5943 5.75103 22.8742 6.83874 23.9154C7.94961 24.9783 9.28033 25.7809 10.8309 26.3232C12.3815 26.8872 14.0941 27.1692 15.9687 27.1692C17.82 27.1692 19.3823 26.9956 20.6551 26.6485C21.928 26.3232 22.9925 25.922 23.8488 25.4447V28.5033C22.9462 28.9371 21.87 29.295 20.6204 29.577C19.3707 29.859 17.82 30 15.9687 30ZM14.8925 19.7505C15.4479 19.7505 15.9571 19.6638 16.4199 19.4902C16.8828 19.3167 17.2761 19.0673 17.6002 18.7419C17.9242 18.4166 18.1672 18.0261 18.3292 17.5706C18.5144 17.115 18.607 16.6052 18.607 16.0412V13.8937C18.607 13.3297 18.5144 12.82 18.3292 12.3644C18.1672 11.9089 17.9242 11.5293 17.6002 11.2256C17.2761 10.9002 16.8828 10.6508 16.4199 10.4772C15.9571 10.3037 15.4364 10.2169 14.8578 10.2169C13.7932 10.2169 12.9485 10.564 12.3236 11.2581C11.7219 11.9306 11.4211 13.0477 11.4211 14.6096V15.3579C11.4211 16.8981 11.7335 18.0152 12.3583 18.7094C12.9832 19.4034 13.8279 19.7505 14.8925 19.7505Z" fill="white"/>
</g>
<defs>
<clipPath id="clip0_163_79245">
<rect width="31" height="30" fill="white"/>
</clipPath>
</defs>
</svg>
