<svg id="eTePLd6KvhJ1" xmlns="http://www.w3.org/2000/svg" xmlns:xlink="http://www.w3.org/1999/xlink" viewBox="0 0 410 296" shape-rendering="geometricPrecision" text-rendering="geometricPrecision"><path d="M133.341,209.652c-1.102-16.841,5.147-53.853,16.763-68.113c14.521-17.825,31.861-20.304,55.487-20.304c23.611,0,47.856-1.417,61.507,20.304c10.861,17.282,23.256,55.6,23.138,72.835" fill="none" stroke="#151515" stroke-width="2"/><path d="M156.125,94.9098c-1.039-6.044,2.322-7.9485,4.132-8.1453l19.479-49.9339L238.41,49.1075l10.507,25.8523c2.833,21.9096-5.194,29.2762-9.562,30.2202-3.589,13.788-12.593,26.993-16.646,31.873l5.902,11.096c-11.427,13.221-34.432,7.162-44.506,2.479l7.319-15.936c-4.439-1.795-14.521-17.432-19.007-25.026-9.09,1.534-14.993-7.201-16.292-14.7562Z" fill="#fdfdfd"/><path d="M409,266.314h-408" fill="none" stroke="#151515" stroke-width="2" stroke-linecap="round"/><path d="M212.565,85.7997c-.611-4.8264,3.796-13.5548,14.671-13.5548c10.874-.0001,14.554,10.5768,13.542,15.6085-1.179,5.8532-5.746,12.0145-13.542,12.0145-9.029,0-13.722-6.572-14.671-14.0682Zm0,0h-8.358m0,0c-.146-5.3951-4.148-13.5549-13.699-13.5548-9.532,0-13.076,6.6836-13.596,11.6037m27.295,1.9511c.02.7473-.034,1.4416-.157,2.0537-1.178,5.8532-5.746,12.0145-13.542,12.0145-7.797,0-13.132-6.0586-13.645-14.0682-.038-.5996-.025-1.2579.049-1.9511m0,0l-10.821,2.7726m28.513-7.5297c-1.527-.962-4.073-1.2154-5.982-.962-1.91.2535-3.819,1.5206-4.489,2.2969m48.958.6175c-.891-1.4805-2.911-2.6595-5.855-2.9144-2.928-.2534-4.672.5105-5.219.887" fill="none" stroke="#151515" stroke-width="2" stroke-linecap="round"/><path d="M185.216,147.913c2.12,3.007,11.52,8.133,22.211,8.133c10.301,0,19.292-5.719,21.116-8.133m-43.327,0l6.257-13.575m-6.257,13.575c-13.744,1.771-25.549,6.729-36.056,11.923s-35.006792,39.351-41.445792,68.223c-.122.935.439,3.122,3.658,4.39c9.843,2.975,26.793381,6.191,35.060912,7.037878M228.543,147.913l-5.903-10.742m5.903,10.742c16.36,0,35.569,8.927,42.45,13.694c18.063,12.513,34.7081,56.154825,37.3331,60.299825c2.101,3.317-1.953,6.494-3.703,7.022L277.014,241.076M209.08,87.6773c1.993,2.4568,5.927,8.7176,5.724,14.1057.084,1.101-.535,3.431-3.689,3.939m28.064,0c2.16-9.2221,2.786-18.4399,2.589-25.1611l1.399-49.6878-67.157-2.5416-6.741,59.3458c-5.13-1.8215-14.856-2.7195-12.719,8.2601c2.095,10.7646,11.574,15.6896,15.66,13.3646.131-.075.303-.03.374.102c7.85,14.506,12.638,20.795,18.889,24.934m47.706-28.616c3.237-1.567,12.383-5.718,10.094-29.6089M239.179,105.722c-6.007,18.463-12.643,28.616-16.539,31.449m-20.683-14.797c5.342,3.812,9.387,3.355,15.899,0m-26.383,11.964c1.605,1.063,5.733,3.347,7.177,3.987c5.007,2.219,8.977,2.218,11.436,2.217h.139c3.742,0,9.408-1.673,12.415-3.371M164.69,98.1019c.127,1.7791,2.035,3.8121,3.816,4.1941" fill="none" stroke="#151515" stroke-width="2" stroke-linecap="round"/><path id="eTePLd6KvhJ7" d="M122.597,250.733l9.756,2.56m-28.777,7.474c-1.535,10.034,8.264,14.992,17.705,16.156c14.759,1.819,18.538,1.787,36.6,3.203v-42.126L116,224.5c-6.964,12.964-11.467,30.01-12.424,36.267Z" fill="#fdfdfd" stroke="#151515" stroke-width="2" stroke-linecap="round"/><path id="eTePLd6KvhJ8" d="M298.096,247.073l-12.582,4.84m31.166,9.68c0,5.312-7.673,12.513-21.368,13.929h-33.812v-37.022l41-14.5c5.884,10.876,14.18,28.031,14.18,37.593Z" transform="matrix(.998135 0.061049-.061049 0.998135 14.78676-17.182667)" fill="#fdfdfd" stroke="#151515" stroke-width="2" stroke-linecap="round"/><path d="M173.444,69.3478c4.58,13.2099,3.689,25.8271,2.672,30.4844-.34.1698-1.349-.1778-2.672-2.9214-1.654-3.4295-3.307-8.6373-8.014-9.9075-3.766-1.0161-.891,0-4.962,0-5.089-10.1614-7.638-29.3412-4.707-40.5188c4.707-17.9483,13.994-28.1981,24.68-22.3553C191.509,1.51991,219.75,-6.16673,236.415,5.20343C272.544,24.1292,263.13,76.842,240.486,81.4145l-2.035-25.4036c-20.736-1.1432-34.221-.6351-50.377-9.5264c0,14.3277-9.541,19.5608-14.63,22.8633Z" fill="#151515"/><path id="eTePLd6KvhJ10" d="M193.132,86.0564c0,1.6809-1.412,3.075-3.194,3.075-1.781,0-3.193-1.3941-3.193-3.075c0-1.6808,1.412-3.0749,3.193-3.0749c1.782,0,3.194,1.3941,3.194,3.0749Z" fill="#151515" fill-opacity="0" stroke="#151515" stroke-width="1.16898"/><path id="eTePLd6KvhJ11" d="M229.493,86.0564c0,1.6809-1.412,3.075-3.193,3.075-1.782,0-3.194-1.3941-3.194-3.075c0-1.6808,1.412-3.0749,3.194-3.0749c1.781,0,3.193,1.3941,3.193,3.0749Z" fill-opacity="0" stroke="#151515" stroke-width="1.16898"/><path d="M377.966,252.735c.827,6.375,2.126,37.893-13.812,38.011-5.739.043-9.149-5.102-11.05-11.922-8.926-5.903-13.623-15.228-11.262-19.36c1.889-3.305,6.953-2.794,9.249-2.125.066-1.658.174-3.21.314-4.604c3.856-2.479,15.228-5.949,26.561,0Z" fill="#fdfdfd"/><path d="M351.405,252.735c8.689,3.117,21.603,1.299,26.561,0m-26.561,0c3.856-2.479,15.228-5.949,26.561,0m-26.561,0c-.14,1.394-.248,2.946-.314,4.604m26.875-4.604c.827,6.375,2.126,37.893-13.812,38.011-5.739.043-9.149-5.102-11.05-11.922m-2.013-21.485c-2.296-.669-7.36-1.18-9.249,2.125-2.361,4.132,2.336,13.457,11.262,19.36m-2.013-21.485c-.26,6.58.158,14.83,2.013,21.485" fill="none" stroke="#151515" stroke-width="2" stroke-linecap="round"/><path id="eTePLd6KvhJ14" d="M358.606,211.773c-2.164,3.148-4.627,12.088,2.834,22.665" fill="none" stroke="#151515" stroke-width="2" stroke-linecap="round" stroke-linejoin="round" stroke-dashoffset="-24.16" stroke-dasharray="24.166269"/><path id="eTePLd6KvhJ15" d="M367.697,243.645c2.439-3.147,4.901-10.491,0-18.179-6.021-9.444,2.597-20.068,4.368-20.304" fill="none" stroke="#151515" stroke-width="2" stroke-linecap="round" stroke-dashoffset="42.115861" stroke-dasharray="42.115861"/><path d="M44.7296,219.102c4.571-9.526,9.4089-10.976,11.3714-10.504.0377.008.0746.018.1106.029c3.2172.111,9.8845,3.625,10.8164,16.792.0482.682.0908,1.347.128,1.996c2.9526-.499,7.0019-3.976,8.5119-8.313c1.3312-3.824,1.1381-12.683,5.7974-12.517c1.6641.222,5.921,2.955,4.6587,10.97-1.5529,9.86-3.8304,12.637-7.7644,15.212-4.8258,3.159-8.6743,3.626-11.0014,3.459-.1384,8.959-1.3711,13.79-1.4951,18.621-.0979,3.817-.0818,9.846-.0443,14.356.0135,1.62-.0147,2.392,0,3.446l-8.551.312-7.4883-.011-4.9922-.198c-.17-1.219-.2386-2.015-.4174-3.464-.3654-2.96-.7371-6.349-1.0666-9.952-5.5707-.443-17.1058-2.372-20.434-13.012-4.1601-13.301-3.8756-23.232,1.4494-25.061c4.26-1.463,6.2226,6.041,6.8328,9.976.2218,4.932,1.3306,9.942,3.5937,13.799s6.1212,3.935,7.7673,3.492c-.6367-11.959-.3975-23.98,2.2171-29.428Z" fill="#fdfdfd"/><path d="M38.0733,271.14c2.1633,1.995,11.8149,1.829,17.8055,1.829c4.7925,0,17.1398-.333,17.639-1.829m-35.4445,0c.5959-1.092,2.3175-1.591,6.2966-1.852m-6.2966,1.852c0,8.75-4.5052,23.86,17.2326,23.86c21.6042,0,18.2119-15.936,18.2119-23.86m0,0c0-.941-2.9747-1.606-7.699-1.937M56.101,208.598c-1.9625-.472-6.8004.978-11.3714,10.504-2.6146,5.448-2.8538,17.469-2.2171,29.428M56.101,208.598c.038.009.0748.019.1106.029m-.1106-.029c.0377.008.0746.018.1106.029m-.1106-.029c-1.7602-.374-5.2644,3.304-6.0464,21.144-.9985,22.778.3328,22.944,0,30.924-.2663,6.385-.2751,10.732-.2751,12.284m6.4321-64.323c3.2172.111,9.8845,3.625,10.8164,16.792.0482.682.0908,1.347.128,1.996M56.2116,208.627c1.1094.388,3.2283,4.689,2.8289,18.788-.4992,17.623-1.4977,19.784-1.8305,28.43-.2662,6.916-.0532,14.178.0578,17.116m-7.4883-.011l-4.9922-.198c-.17-1.219-.2386-2.015-.4174-3.464m5.4096,3.662l7.4883.011m0,0l8.551-.312c-.0147-1.054.0135-1.826,0-3.446m1.3372-41.788c2.9526-.499,7.0019-3.976,8.5119-8.313c1.3312-3.824,1.1381-12.683,5.7974-12.517M67.156,227.415c.0771,1.343.1313,2.615.166,3.824m14.1433-24.654c1.6641.222,5.921,2.955,4.6587,10.97-1.5529,9.86-3.8304,12.637-7.7644,15.212-4.8258,3.159-8.6743,3.626-11.0014,3.459m14.1071-29.641c.6657,4.655,1.2381,9.225-1.2912,14.678-3.1617,6.817-9.3965,9.477-12.8521,9.976m.0362,4.987c-.1384,8.959-1.3711,13.79-1.4951,18.621-.0979,3.817-.0818,9.846-.0443,14.356m1.5394-32.977c.0237-1.534.0153-3.19-.0362-4.987M42.5125,248.53c-1.6461.443-5.5042.365-7.7673-3.492s-3.3719-8.867-3.5937-13.799c-.6102-3.935-2.5728-11.439-6.8328-9.976M42.5125,248.53c.0919,1.726.202,3.45.3259,5.154M24.3187,221.263c-5.325,1.829-5.6095,11.76-1.4494,25.061c3.3282,10.64,14.8633,12.569,20.434,13.012M24.3187,221.263c3.727,17.092-.2235,31.257,18.5197,32.421m.4649,5.652c-.1681-1.838-.3252-3.732-.4649-5.652m.4649,5.652c.3295,3.603.7012,6.992,1.0666,9.952" fill="none" stroke="#151515" stroke-width="2"/><rect width="5.43056" height="2.36007" rx="0" ry="0" transform="translate(66.521 269.856)" fill="#151515"/><rect width="5.66667" height="2.36007" rx="0" ry="0" transform="translate(39.1323 269.856)" fill="#151515"/><path d="M40.4303,219.804l4.368,3.777m1.6528-13.811l2.007,4.604m16.4097-5.312l-3.0695,3.777m6.6111,4.604l-3.5416,2.361m19.8333,0l3.8958-1.18M75.3747,208.235l2.5972,3.896m-46.9861,8.617l-2.4791,4.604m-12.3959,7.083l5.3125,1.771m-2.9513,11.45l4.7222-1.298m15.1111-12.513l5.0764,2.361m27.3889,8.499l-5.0764,2.361" fill="none" stroke="#151515" stroke-width="2" stroke-linecap="round" stroke-linejoin="round"/><ellipse id="eTePLd6KvhJ21" rx="2.125" ry="2.12485" transform="translate(189.938 86.8827)" fill="#151515"/><ellipse id="eTePLd6KvhJ22" rx="2.125" ry="2.12485" transform="translate(226.3 86.8827)" fill="#151515"/><path d="M207.597,156.176c-9.822.756-18.968-4.958-22.313-7.909-35.1918,7.909-38.443324,11.312552-52.049298,26.737293-2.484017,2.818634-9.249887,15.152412-14.894073,24.848671-5.892932,10.123846-8.94757,21.690451-10.034571,24.768451-1.7,4.816,1.496001,7.515,3.306,8.263L131.5,238l154.604-2.024c4.84-1.416,15.740656-4.867328,20.084656-7.417328c4.345-2.549,2.361-7.279.827-9.325l-10.47863-21.283013L284.923,177.661c-9.161-20.871-41.358-28.528-56.312-29.748-2.912,2.44-11.192,7.508-21.014,8.263Z" transform="translate(.094922 0)" fill="#151515"/><path d="M287.874,294.643l-154.003-.111c-2.185-.001-3.954-1.772-3.954-3.956c0-2.186,1.771-3.957,3.956-3.957h154.004c2.215,0,4.012,1.796,4.012,4.012c0,2.217-1.798,4.014-4.015,4.012Z" fill="#151515"/><path d="M296.959,178.372l-5.564,103.199c-.12,2.232-1.966,3.981-4.202,3.981h-151.991c-2.187,0-4.01-1.675-4.193-3.855l-8.505-101.071c-.205-2.434,1.698-4.53,4.14-4.561l166.059-2.128c2.434-.031,4.387,2.004,4.256,4.435Z" fill="#fdfdfd" stroke="#151515" stroke-width="2"/><path d="M217.709,227.965c.071,3.533-3.317,6.739-7.939,6.831-4.622.093-8.135-2.976-8.206-6.509-.07-3.533,3.317-6.74,7.939-6.832c4.623-.092,8.136,2.976,8.206,6.51Z" fill="none" stroke="#151515" stroke-width="2"/>
<script><![CDATA[
!function(t,n){"object"==typeof exports&&"undefined"!=typeof module?module.exports=n():"function"==typeof __SVGATOR_DEFINE__&&__SVGATOR_DEFINE__.amd?__SVGATOR_DEFINE__(n):((t="undefined"!=typeof globalThis?globalThis:t||self).__SVGATOR_PLAYER__=t.__SVGATOR_PLAYER__||{},t.__SVGATOR_PLAYER__["7c8cb2ed"]=n())}(this,(function(){"use strict";function t(t,n){var e=Object.keys(t);if(Object.getOwnPropertySymbols){var r=Object.getOwnPropertySymbols(t);n&&(r=r.filter((function(n){return Object.getOwnPropertyDescriptor(t,n).enumerable}))),e.push.apply(e,r)}return e}function n(n){for(var e=1;e<arguments.length;e++){var r=null!=arguments[e]?arguments[e]:{};e%2?t(Object(r),!0).forEach((function(t){o(n,t,r[t])})):Object.getOwnPropertyDescriptors?Object.defineProperties(n,Object.getOwnPropertyDescriptors(r)):t(Object(r)).forEach((function(t){Object.defineProperty(n,t,Object.getOwnPropertyDescriptor(r,t))}))}return n}function e(t){return(e="function"==typeof Symbol&&"symbol"==typeof Symbol.iterator?function(t){return typeof t}:function(t){return t&&"function"==typeof Symbol&&t.constructor===Symbol&&t!==Symbol.prototype?"symbol":typeof t})(t)}function r(t,n){if(!(t instanceof n))throw new TypeError("Cannot call a class as a function")}function i(t,n){for(var e=0;e<n.length;e++){var r=n[e];r.enumerable=r.enumerable||!1,r.configurable=!0,"value"in r&&(r.writable=!0),Object.defineProperty(t,r.key,r)}}function u(t,n,e){return n&&i(t.prototype,n),e&&i(t,e),t}function o(t,n,e){return n in t?Object.defineProperty(t,n,{value:e,enumerable:!0,configurable:!0,writable:!0}):t[n]=e,t}function a(t){return(a=Object.setPrototypeOf?Object.getPrototypeOf:function(t){return t.__proto__||Object.getPrototypeOf(t)})(t)}function l(t,n){return(l=Object.setPrototypeOf||function(t,n){return t.__proto__=n,t})(t,n)}function f(){if("undefined"==typeof Reflect||!Reflect.construct)return!1;if(Reflect.construct.sham)return!1;if("function"==typeof Proxy)return!0;try{return Boolean.prototype.valueOf.call(Reflect.construct(Boolean,[],(function(){}))),!0}catch(t){return!1}}function s(t,n,e){return(s=f()?Reflect.construct:function(t,n,e){var r=[null];r.push.apply(r,n);var i=new(Function.bind.apply(t,r));return e&&l(i,e.prototype),i}).apply(null,arguments)}function c(t,n){if(n&&("object"==typeof n||"function"==typeof n))return n;if(void 0!==n)throw new TypeError("Derived constructors may only return object or undefined");return function(t){if(void 0===t)throw new ReferenceError("this hasn't been initialised - super() hasn't been called");return t}(t)}function h(t,n,e){return(h="undefined"!=typeof Reflect&&Reflect.get?Reflect.get:function(t,n,e){var r=function(t,n){for(;!Object.prototype.hasOwnProperty.call(t,n)&&null!==(t=a(t)););return t}(t,n);if(r){var i=Object.getOwnPropertyDescriptor(r,n);return i.get?i.get.call(e):i.value}})(t,n,e||t)}function v(t){return function(t){if(Array.isArray(t))return y(t)}(t)||function(t){if("undefined"!=typeof Symbol&&null!=t[Symbol.iterator]||null!=t["@@iterator"])return Array.from(t)}(t)||function(t,n){if(!t)return;if("string"==typeof t)return y(t,n);var e=Object.prototype.toString.call(t).slice(8,-1);"Object"===e&&t.constructor&&(e=t.constructor.name);if("Map"===e||"Set"===e)return Array.from(t);if("Arguments"===e||/^(?:Ui|I)nt(?:8|16|32)(?:Clamped)?Array$/.test(e))return y(t,n)}(t)||function(){throw new TypeError("Invalid attempt to spread non-iterable instance.\nIn order to be iterable, non-array objects must have a [Symbol.iterator]() method.")}()}function y(t,n){(null==n||n>t.length)&&(n=t.length);for(var e=0,r=new Array(n);e<n;e++)r[e]=t[e];return r}Number.isInteger||(Number.isInteger=function(t){return"number"==typeof t&&isFinite(t)&&Math.floor(t)===t}),Number.EPSILON||(Number.EPSILON=2220446049250313e-31);var g=d(Math.pow(10,-6));function d(t){var n=arguments.length>1&&void 0!==arguments[1]?arguments[1]:6;if(Number.isInteger(t))return t;var e=Math.pow(10,n);return Math.round((+t+Number.EPSILON)*e)/e}function p(t,n){var e=arguments.length>2&&void 0!==arguments[2]?arguments[2]:g;return Math.abs(t-n)<e}var m=Math.PI/180;function b(t){return t}function A(t,n,e){var r=1-e;return 3*e*r*(t*r+n*e)+e*e*e}function w(){var t=arguments.length>0&&void 0!==arguments[0]?arguments[0]:0,n=arguments.length>1&&void 0!==arguments[1]?arguments[1]:0,e=arguments.length>2&&void 0!==arguments[2]?arguments[2]:1,r=arguments.length>3&&void 0!==arguments[3]?arguments[3]:1;return t<0||t>1||e<0||e>1?null:p(t,n)&&p(e,r)?b:function(i){if(i<=0)return t>0?i*n/t:0===n&&e>0?i*r/e:0;if(i>=1)return e<1?1+(i-1)*(r-1)/(e-1):1===e&&t<1?1+(i-1)*(n-1)/(t-1):1;for(var u,o=0,a=1;o<a;){var l=A(t,e,u=(o+a)/2);if(p(i,l))break;l<i?o=u:a=u}return A(n,r,u)}}function x(){return 1}function _(t){return 1===t?1:0}function k(){var t=arguments.length>0&&void 0!==arguments[0]?arguments[0]:1,n=arguments.length>1&&void 0!==arguments[1]?arguments[1]:0;if(1===t){if(0===n)return _;if(1===n)return x}var e=1/t;return function(t){return t>=1?1:(t+=n*e)-t%e}}var S=Math.sin,O=Math.cos,E=Math.acos,j=Math.asin,I=Math.tan,M=Math.atan2,P=Math.PI/180,R=180/Math.PI,B=Math.sqrt,F=function(){function t(){var n=arguments.length>0&&void 0!==arguments[0]?arguments[0]:1,e=arguments.length>1&&void 0!==arguments[1]?arguments[1]:0,i=arguments.length>2&&void 0!==arguments[2]?arguments[2]:0,u=arguments.length>3&&void 0!==arguments[3]?arguments[3]:1,o=arguments.length>4&&void 0!==arguments[4]?arguments[4]:0,a=arguments.length>5&&void 0!==arguments[5]?arguments[5]:0;r(this,t),this.m=[n,e,i,u,o,a],this.i=null,this.w=null,this.s=null}return u(t,[{key:"determinant",get:function(){var t=this.m;return t[0]*t[3]-t[1]*t[2]}},{key:"isIdentity",get:function(){if(null===this.i){var t=this.m;this.i=1===t[0]&&0===t[1]&&0===t[2]&&1===t[3]&&0===t[4]&&0===t[5]}return this.i}},{key:"point",value:function(t,n){var e=this.m;return{x:e[0]*t+e[2]*n+e[4],y:e[1]*t+e[3]*n+e[5]}}},{key:"translateSelf",value:function(){var t=arguments.length>0&&void 0!==arguments[0]?arguments[0]:0,n=arguments.length>1&&void 0!==arguments[1]?arguments[1]:0;if(!t&&!n)return this;var e=this.m;return e[4]+=e[0]*t+e[2]*n,e[5]+=e[1]*t+e[3]*n,this.w=this.s=this.i=null,this}},{key:"rotateSelf",value:function(){var t=arguments.length>0&&void 0!==arguments[0]?arguments[0]:0;if(t%=360){var n=S(t*=P),e=O(t),r=this.m,i=r[0],u=r[1];r[0]=i*e+r[2]*n,r[1]=u*e+r[3]*n,r[2]=r[2]*e-i*n,r[3]=r[3]*e-u*n,this.w=this.s=this.i=null}return this}},{key:"scaleSelf",value:function(){var t=arguments.length>0&&void 0!==arguments[0]?arguments[0]:1,n=arguments.length>1&&void 0!==arguments[1]?arguments[1]:1;if(1!==t||1!==n){var e=this.m;e[0]*=t,e[1]*=t,e[2]*=n,e[3]*=n,this.w=this.s=this.i=null}return this}},{key:"skewSelf",value:function(t,n){if(n%=360,(t%=360)||n){var e=this.m,r=e[0],i=e[1],u=e[2],o=e[3];t&&(t=I(t*P),e[2]+=r*t,e[3]+=i*t),n&&(n=I(n*P),e[0]+=u*n,e[1]+=o*n),this.w=this.s=this.i=null}return this}},{key:"resetSelf",value:function(){var t=arguments.length>0&&void 0!==arguments[0]?arguments[0]:1,n=arguments.length>1&&void 0!==arguments[1]?arguments[1]:0,e=arguments.length>2&&void 0!==arguments[2]?arguments[2]:0,r=arguments.length>3&&void 0!==arguments[3]?arguments[3]:1,i=arguments.length>4&&void 0!==arguments[4]?arguments[4]:0,u=arguments.length>5&&void 0!==arguments[5]?arguments[5]:0,o=this.m;return o[0]=t,o[1]=n,o[2]=e,o[3]=r,o[4]=i,o[5]=u,this.w=this.s=this.i=null,this}},{key:"recomposeSelf",value:function(){var t=arguments.length>0&&void 0!==arguments[0]?arguments[0]:null,n=arguments.length>1&&void 0!==arguments[1]?arguments[1]:null,e=arguments.length>2&&void 0!==arguments[2]?arguments[2]:null,r=arguments.length>3&&void 0!==arguments[3]?arguments[3]:null,i=arguments.length>4&&void 0!==arguments[4]?arguments[4]:null;return this.isIdentity||this.resetSelf(),t&&(t.x||t.y)&&this.translateSelf(t.x,t.y),n&&this.rotateSelf(n),e&&(e.x&&this.skewSelf(e.x,0),e.y&&this.skewSelf(0,e.y)),!r||1===r.x&&1===r.y||this.scaleSelf(r.x,r.y),i&&(i.x||i.y)&&this.translateSelf(i.x,i.y),this}},{key:"decompose",value:function(){var t=arguments.length>0&&void 0!==arguments[0]?arguments[0]:0,n=arguments.length>1&&void 0!==arguments[1]?arguments[1]:0,e=this.m,r=e[0]*e[0]+e[1]*e[1],i=[[e[0],e[1]],[e[2],e[3]]],u=B(r);if(0===u)return{origin:{x:d(e[4]),y:d(e[5])},translate:{x:d(t),y:d(n)},scale:{x:0,y:0},skew:{x:0,y:0},rotate:0};i[0][0]/=u,i[0][1]/=u;var o=e[0]*e[3]-e[1]*e[2]<0;o&&(u=-u);var a=i[0][0]*i[1][0]+i[0][1]*i[1][1];i[1][0]-=i[0][0]*a,i[1][1]-=i[0][1]*a;var l=B(i[1][0]*i[1][0]+i[1][1]*i[1][1]);if(0===l)return{origin:{x:d(e[4]),y:d(e[5])},translate:{x:d(t),y:d(n)},scale:{x:d(u),y:0},skew:{x:0,y:0},rotate:0};i[1][0]/=l,i[1][1]/=l,a/=l;var f=0;return i[1][1]<0?(f=E(i[1][1])*R,i[0][1]<0&&(f=360-f)):f=j(i[0][1])*R,o&&(f=-f),a=M(a,B(i[0][0]*i[0][0]+i[0][1]*i[0][1]))*R,o&&(a=-a),{origin:{x:d(e[4]),y:d(e[5])},translate:{x:d(t),y:d(n)},scale:{x:d(u),y:d(l)},skew:{x:d(a),y:0},rotate:d(f)}}},{key:"clone",value:function(){var t=this.m;return new this.constructor(t[0],t[1],t[2],t[3],t[4],t[5])}},{key:"toString",value:function(){var t=arguments.length>0&&void 0!==arguments[0]?arguments[0]:" ";if(null===this.s){var n=this.m.map((function(t){return d(t)}));1===n[0]&&0===n[1]&&0===n[2]&&1===n[3]?this.s="translate("+n[4]+t+n[5]+")":this.s="matrix("+n.join(t)+")"}return this.s}}],[{key:"create",value:function(t){return t?Array.isArray(t)?s(this,v(t)):t instanceof this?t.clone():(new this).recomposeSelf(t.origin,t.rotate,t.skew,t.scale,t.translate):new this}}]),t}();function N(t,n,e){return t>=.5?e:n}function T(t,n,e){return 0===t||n===e?n:t*(e-n)+n}function q(t,n,e){var r=T(t,n,e);return r<=0?0:r}function D(t,n,e){var r=T(t,n,e);return r<=0?0:r>=1?1:r}function L(t,n,e){return 0===t?n:1===t?e:{x:T(t,n.x,e.x),y:T(t,n.y,e.y)}}function C(t,n,e){return 0===t?n:1===t?e:{x:q(t,n.x,e.x),y:q(t,n.y,e.y)}}function V(t,n,e){var r=function(t,n,e){return Math.round(T(t,n,e))}(t,n,e);return r<=0?0:r>=255?255:r}function G(t,n,e){return 0===t?n:1===t?e:{r:V(t,n.r,e.r),g:V(t,n.g,e.g),b:V(t,n.b,e.b),a:T(t,null==n.a?1:n.a,null==e.a?1:e.a)}}function z(t,n,e){var r=n.length;if(r!==e.length)return N(t,n,e);for(var i=new Array(r),u=0;u<r;u++)i[u]=T(t,n[u],e[u]);return i}function Y(t,n){for(var e=[],r=0;r<t;r++)e.push(n);return e}function $(t,n){if(--n<=0)return t;var e=(t=Object.assign([],t)).length;do{for(var r=0;r<e;r++)t.push(t[r])}while(--n>0);return t}var U,Q=function(){function t(n){r(this,t),this.list=n,this.length=n.length}return u(t,[{key:"setAttribute",value:function(t,n){for(var e=this.list,r=0;r<this.length;r++)e[r].setAttribute(t,n)}},{key:"removeAttribute",value:function(t){for(var n=this.list,e=0;e<this.length;e++)n[e].removeAttribute(t)}},{key:"style",value:function(t,n){for(var e=this.list,r=0;r<this.length;r++)e[r].style[t]=n}}]),t}(),H=/-./g,J=function(t,n){return n.toUpperCase()};function Z(t){return"function"==typeof t?t:N}function K(t){return t?"function"==typeof t?t:Array.isArray(t)?function(t){var n=arguments.length>1&&void 0!==arguments[1]?arguments[1]:b;if(!Array.isArray(t))return n;switch(t.length){case 1:return k(t[0])||n;case 2:return k(t[0],t[1])||n;case 4:return w(t[0],t[1],t[2],t[3])||n}return n}(t,null):function(t,n){var e=arguments.length>2&&void 0!==arguments[2]?arguments[2]:b;switch(t){case"linear":return b;case"steps":return k(n.steps||1,n.jump||0)||e;case"bezier":case"cubic-bezier":return w(n.x1||0,n.y1||0,n.x2||0,n.y2||0)||e}return e}(t.type,t.value,null):null}function W(t,n,e){var r=arguments.length>3&&void 0!==arguments[3]&&arguments[3],i=n.length-1;if(t<=n[0].t)return r?[0,0,n[0].v]:n[0].v;if(t>=n[i].t)return r?[i,1,n[i].v]:n[i].v;var u,o=n[0],a=null;for(u=1;u<=i;u++){if(!(t>n[u].t)){a=n[u];break}o=n[u]}return null==a?r?[i,1,n[i].v]:n[i].v:o.t===a.t?r?[u,1,a.v]:a.v:(t=(t-o.t)/(a.t-o.t),o.e&&(t=o.e(t)),r?[u,t,e(t,o.v,a.v)]:e(t,o.v,a.v))}function X(t,n){var e=arguments.length>2&&void 0!==arguments[2]?arguments[2]:null;return t&&t.length?"function"!=typeof n?null:("function"!=typeof e&&(e=null),function(r){var i=W(r,t,n);return null!=i&&e&&(i=e(i)),i}):null}function tt(t,n){return t.t-n.t}function nt(t,n,r,i,u){var o,a="@"===r[0],l="#"===r[0],f=U[r],s=N;switch(a?(o=r.substr(1),r=o.replace(H,J)):l&&(r=r.substr(1)),e(f)){case"function":if(s=f(i,u,W,K,r,a,n,t),l)return s;break;case"string":s=X(i,Z(f));break;case"object":if((s=X(i,Z(f.i),f.f))&&"function"==typeof f.u)return f.u(n,s,r,a,t)}return s?function(t,n,e){if(arguments.length>3&&void 0!==arguments[3]&&arguments[3])return t instanceof Q?function(r){return t.style(n,e(r))}:function(r){return t.style[n]=e(r)};if(Array.isArray(n)){var r=n.length;return function(i){var u=e(i);if(null==u)for(var o=0;o<r;o++)t[o].removeAttribute(n);else for(var a=0;a<r;a++)t[a].setAttribute(n,u)}}return function(r){var i=e(r);null==i?t.removeAttribute(n):t.setAttribute(n,i)}}(n,r,s,a):null}function et(t,n,r,i){if(!i||"object"!==e(i))return null;var u=null,o=null;return Array.isArray(i)?o=function(t){if(!t||!t.length)return null;for(var n=0;n<t.length;n++)t[n].e&&(t[n].e=K(t[n].e));return t.sort(tt)}(i):(o=i.keys,u=i.data||null),o?nt(t,n,r,o,u):null}function rt(t,n,e){if(!e)return null;var r=[];for(var i in e)if(e.hasOwnProperty(i)){var u=et(t,n,i,e[i]);u&&r.push(u)}return r.length?r:null}function it(t,n){if(!n.settings.duration||n.settings.duration<0)return null;var e,r,i,u,o,a=function(t,n){if(!n)return null;var e=[];if(Array.isArray(n))for(var r=n.length,i=0;i<r;i++){var u=n[i];if(2===u.length){var o=null;if("string"==typeof u[0])o=t.getElementById(u[0]);else if(Array.isArray(u[0])){o=[];for(var a=0;a<u[0].length;a++)if("string"==typeof u[0][a]){var l=t.getElementById(u[0][a]);l&&o.push(l)}o=o.length?1===o.length?o[0]:new Q(o):null}if(o){var f=rt(t,o,u[1]);f&&(e=e.concat(f))}}}else for(var s in n)if(n.hasOwnProperty(s)){var c=t.getElementById(s);if(c){var h=rt(t,c,n[s]);h&&(e=e.concat(h))}}return e.length?e:null}(t,n.elements);return a?(e=a,r=n.settings,i=r.duration,u=e.length,o=null,function(t,n){var a=r.iterations||1/0,l=(r.alternate&&a%2==0)^r.direction>0?i:0,f=t%i,s=1+(t-f)/i;n*=r.direction,r.alternate&&s%2==0&&(n=-n);var c=!1;if(s>a)f=l,c=!0,-1===r.fill&&(f=r.direction>0?0:i);else if(n<0&&(f=i-f),f===o)return!1;o=f;for(var h=0;h<u;h++)e[h](f);return c}):null}function ut(t,n){if(U=n,!t||!t.root||!Array.isArray(t.animations))return null;var e=function(t){for(var n=document.getElementsByTagName("svg"),e=0;e<n.length;e++)if(n[e].id===t.root&&!n[e].svgatorAnimation)return n[e].svgatorAnimation=!0,n[e];return null}(t);if(!e)return null;var r=t.animations.map((function(t){return it(e,t)})).filter((function(t){return!!t}));return r.length?{svg:e,animations:r,animationSettings:t.animationSettings,options:t.options||void 0}:null}function ot(t){return+("0x"+(t.replace(/[^0-9a-fA-F]+/g,"")||27))}function at(t,n,e){return!t||!e||n>t.length?t:t.substring(0,n)+at(t.substring(n+1),e,e)}function lt(t){var n=arguments.length>1&&void 0!==arguments[1]?arguments[1]:27;return!t||t%n?t%n:lt(t/n,n)}function ft(t,n,e){if(t&&t.length){var r=ot(e),i=ot(n),u=lt(r)+5,o=at(t,lt(r,5),u);return o=o.replace(/\x7c$/g,"==").replace(/\x2f$/g,"="),o=function(t,n,e){var r=+("0x"+t.substring(0,4));t=t.substring(4);for(var i=n%r+e%27,u=[],o=0;o<t.length;o+=2)if("|"!==t[o]){var a=+("0x"+t[o]+t[o+1])-i;u.push(a)}else{var l=+("0x"+t.substring(o+1,o+1+4))-i;o+=3,u.push(l)}return String.fromCharCode.apply(String,u)}(o=(o=atob(o)).replace(/[\x41-\x5A]/g,""),i,r),o=JSON.parse(o)}}var st=[{key:"alternate",def:!1},{key:"fill",def:1},{key:"iterations",def:0},{key:"direction",def:1},{key:"speed",def:1},{key:"fps",def:100}],ct=function(){function t(n,e){var i=this,u=arguments.length>2&&void 0!==arguments[2]?arguments[2]:null;r(this,t),this._id=0,this._running=!1,this._rollingBack=!1,this._animations=n,this._settings=e,(!u||u<"2022-05-02")&&delete this._settings.speed,st.forEach((function(t){i._settings[t.key]=i._settings[t.key]||t.def})),this.duration=e.duration,this.offset=e.offset||0,this.rollbackStartOffset=0}return u(t,[{key:"alternate",get:function(){return this._settings.alternate}},{key:"fill",get:function(){return this._settings.fill}},{key:"iterations",get:function(){return this._settings.iterations}},{key:"direction",get:function(){return this._settings.direction}},{key:"speed",get:function(){return this._settings.speed}},{key:"fps",get:function(){return this._settings.fps}},{key:"maxFiniteDuration",get:function(){return this.iterations>0?this.iterations*this.duration:this.duration}},{key:"_apply",value:function(t){for(var n=arguments.length>1&&void 0!==arguments[1]?arguments[1]:{},e=this._animations,r=e.length,i=0,u=0;u<r;u++)n[u]?i++:(n[u]=e[u](t,1),n[u]&&i++);return i}},{key:"_rollback",value:function(t){var n=this,e=1/0,r=null;this.rollbackStartOffset=t,this._rollingBack=!0,this._running=!0;this._id=window.requestAnimationFrame((function i(u){if(n._rollingBack){null==r&&(r=u);var o=Math.round(t-(u-r)*n.speed);if(o>n.duration&&e!==1/0){var a=!!n.alternate&&o/n.duration%2>1,l=o%n.duration;o=(l+=a?n.duration:0)||n.duration}var f=(n.fps?1e3/n.fps:0)*n.speed,s=Math.max(0,o);s<=e-f&&(n.offset=s,e=s,n._apply(s));var c=n.iterations>0&&-1===n.fill&&o>=n.maxFiniteDuration;(o<=0||n.offset<o||c)&&n.stop(),n._id=window.requestAnimationFrame(i)}}))}},{key:"_start",value:function(){var t=this,n=arguments.length>0&&void 0!==arguments[0]?arguments[0]:0,e=-1/0,r=null,i={};this._running=!0;var u=function u(o){null==r&&(r=o);var a=Math.round((o-r)*t.speed+n),l=(t.fps?1e3/t.fps:0)*t.speed;if(a>=e+l&&!t._rollingBack&&(t.offset=a,e=a,t._apply(a,i)===t._animations.length))return void t.pause(!0);t._id=window.requestAnimationFrame(u)};this._id=window.requestAnimationFrame(u)}},{key:"_pause",value:function(){this._id&&window.cancelAnimationFrame(this._id),this._running=!1}},{key:"play",value:function(){if(!this._running)return this._rollingBack?this._rollback(this.offset):this._start(this.offset)}},{key:"stop",value:function(){this._pause(),this.offset=0,this.rollbackStartOffset=0,this._rollingBack=!1,this._apply(0)}},{key:"reachedToEnd",value:function(){return this.iterations>0&&this.offset>=this.iterations*this.duration}},{key:"restart",value:function(){var t=arguments.length>0&&void 0!==arguments[0]&&arguments[0];this.stop(t),this.play(t)}},{key:"pause",value:function(){this._pause()}},{key:"reverse",value:function(){this.direction=-this.direction}}],[{key:"build",value:function(t,n){delete t.animationSettings,t.options=ft(t.options,t.root,"7c8cb2ed"),t.animations.map((function(n){n.settings=ft(n.s,t.root,"7c8cb2ed"),delete n.s,t.animationSettings||(t.animationSettings=n.settings)}));var e=t.version;if(!(t=ut(t,n)))return null;var r=t.options||{},i=new this(t.animations,t.animationSettings,e);return{el:t.svg,options:r,player:i}}},{key:"push",value:function(t){return this.build(t)}},{key:"init",value:function(){var t=this,n=window.__SVGATOR_PLAYER__&&window.__SVGATOR_PLAYER__["7c8cb2ed"];Array.isArray(n)&&n.splice(0).forEach((function(n){return t.build(n)}))}}]),t}();function ht(t){return d(t)+""}function vt(t){var n=arguments.length>1&&void 0!==arguments[1]?arguments[1]:" ";return t&&t.length?t.map(ht).join(n):""}function yt(t){return ht(t.x)+","+ht(t.y)}function gt(t){if(!t)return"transparent";if(null==t.a||t.a>=1){var n=function(t){return 1===(t=parseInt(t).toString(16)).length?"0"+t:t},e=function(t){return t.charAt(0)===t.charAt(1)},r=n(t.r),i=n(t.g),u=n(t.b);return e(r)&&e(i)&&e(u)&&(r=r.charAt(0),i=i.charAt(0),u=u.charAt(0)),"#"+r+i+u}return"rgba("+t.r+","+t.g+","+t.b+","+t.a+")"}function dt(t){return t?"url(#"+t+")":"none"}!function(){for(var t=0,n=["ms","moz","webkit","o"],e=0;e<n.length&&!window.requestAnimationFrame;++e)window.requestAnimationFrame=window[n[e]+"RequestAnimationFrame"],window.cancelAnimationFrame=window[n[e]+"CancelAnimationFrame"]||window[n[e]+"CancelRequestAnimationFrame"];window.requestAnimationFrame||(window.requestAnimationFrame=function(n){var e=Date.now(),r=Math.max(0,16-(e-t)),i=window.setTimeout((function(){n(e+r)}),r);return t=e+r,i},window.cancelAnimationFrame=window.clearTimeout)}();var pt={f:null,i:C,u:function(t,n){return function(e){var r=n(e);t.setAttribute("rx",ht(r.x)),t.setAttribute("ry",ht(r.y))}}},mt={f:null,i:function(t,n,e){return 0===t?n:1===t?e:{width:q(t,n.width,e.width),height:q(t,n.height,e.height)}},u:function(t,n){return function(e){var r=n(e);t.setAttribute("width",ht(r.width)),t.setAttribute("height",ht(r.height))}}};Object.freeze({M:2,L:2,Z:0,H:1,V:1,C:6,Q:4,T:2,S:4,A:7});var bt={},At=null;function wt(t){var n=function(){if(At)return At;if("object"!==("undefined"==typeof document?"undefined":e(document))||!document.createElementNS)return{};var t=document.createElementNS("http://www.w3.org/2000/svg","svg");return t&&t.style?(t.style.position="absolute",t.style.opacity="0.01",t.style.zIndex="-9999",t.style.left="-9999px",t.style.width="1px",t.style.height="1px",At={svg:t}):{}}().svg;if(!n)return function(t){return null};var r=document.createElementNS(n.namespaceURI,"path");r.setAttributeNS(null,"d",t),r.setAttributeNS(null,"fill","none"),r.setAttributeNS(null,"stroke","none"),n.appendChild(r);var i=r.getTotalLength();return function(t){var n=r.getPointAtLength(i*t);return{x:n.x,y:n.y}}}function xt(t){return bt[t]?bt[t]:bt[t]=wt(t)}function _t(t,n,e,r){if(!t||!r)return!1;var i=["M",t.x,t.y];if(n&&e&&(i.push("C"),i.push(n.x),i.push(n.y),i.push(e.x),i.push(e.y)),n?!e:e){var u=n||e;i.push("Q"),i.push(u.x),i.push(u.y)}return n||e||i.push("L"),i.push(r.x),i.push(r.y),i.join(" ")}function kt(t,n,e,r){var i=arguments.length>4&&void 0!==arguments[4]?arguments[4]:1,u=_t(t,n,e,r),o=xt(u);try{return o(i)}catch(t){return null}}function St(t,n,e){return t+(n-t)*e}function Ot(t,n,e){var r=arguments.length>3&&void 0!==arguments[3]&&arguments[3],i={x:St(t.x,n.x,e),y:St(t.y,n.y,e)};return r&&(i.a=Et(t,n)),i}function Et(t,n){return Math.atan2(n.y-t.y,n.x-t.x)}function jt(t,n,e,r){var i=1-r;return i*i*t+2*i*r*n+r*r*e}function It(t,n,e,r){return 2*(1-r)*(n-t)+2*r*(e-n)}function Mt(t,n,e,r){var i=arguments.length>4&&void 0!==arguments[4]&&arguments[4],u=kt(t,n,null,e,r);return u||(u={x:jt(t.x,n.x,e.x,r),y:jt(t.y,n.y,e.y,r)}),i&&(u.a=Pt(t,n,e,r)),u}function Pt(t,n,e,r){return Math.atan2(It(t.y,n.y,e.y,r),It(t.x,n.x,e.x,r))}function Rt(t,n,e,r,i){var u=i*i;return i*u*(r-t+3*(n-e))+3*u*(t+e-2*n)+3*i*(n-t)+t}function Bt(t,n,e,r,i){var u=1-i;return 3*(u*u*(n-t)+2*u*i*(e-n)+i*i*(r-e))}function Ft(t,n,e,r,i){var u=arguments.length>5&&void 0!==arguments[5]&&arguments[5],o=kt(t,n,e,r,i);return o||(o={x:Rt(t.x,n.x,e.x,r.x,i),y:Rt(t.y,n.y,e.y,r.y,i)}),u&&(o.a=Nt(t,n,e,r,i)),o}function Nt(t,n,e,r,i){return Math.atan2(Bt(t.y,n.y,e.y,r.y,i),Bt(t.x,n.x,e.x,r.x,i))}function Tt(t,n,e){var r=arguments.length>3&&void 0!==arguments[3]&&arguments[3];if(Dt(n)){if(Lt(e))return Mt(n,e.start,e,t,r)}else if(Dt(e)){if(Ct(n))return Mt(n,n.end,e,t,r)}else{if(Ct(n))return Lt(e)?Ft(n,n.end,e.start,e,t,r):Mt(n,n.end,e,t,r);if(Lt(e))return Mt(n,e.start,e,t,r)}return Ot(n,e,t,r)}function qt(t,n,e){var r=Tt(t,n,e,!0);return r.a=function(t){return arguments.length>1&&void 0!==arguments[1]&&arguments[1]?t+Math.PI:t}(r.a)/m,r}function Dt(t){return!t.type||"corner"===t.type}function Lt(t){return null!=t.start&&!Dt(t)}function Ct(t){return null!=t.end&&!Dt(t)}var Vt=new F;var Gt={f:function(t){return t?t.join(" "):""},i:function(t,n,r){if(0===t)return n;if(1===t)return r;var i=n.length;if(i!==r.length)return N(t,n,r);for(var u,o=new Array(i),a=0;a<i;a++){if((u=e(n[a]))!==e(r[a]))return N(t,n,r);if("number"===u)o[a]=T(t,n[a],r[a]);else{if(n[a]!==r[a])return N(t,n,r);o[a]=n[a]}}return o}},zt={f:null,i:z,u:function(t,n){return function(e){var r=n(e);t.setAttribute("x1",ht(r[0])),t.setAttribute("y1",ht(r[1])),t.setAttribute("x2",ht(r[2])),t.setAttribute("y2",ht(r[3]))}}},Yt={f:ht,i:T},$t={f:ht,i:D},Ut={f:function(t){var n=arguments.length>1&&void 0!==arguments[1]?arguments[1]:" ";return t&&t.length>0&&(t=t.map((function(t){return d(t,4)}))),vt(t,n)},i:function(t,n,e){var r,i,u,o=n.length,a=e.length;if(o!==a)if(0===o)n=Y(o=a,0);else if(0===a)a=o,e=Y(o,0);else{var l=(u=(r=o)*(i=a)/function(t,n){for(var e;n;)e=n,n=t%n,t=e;return t||1}(r,i))<0?-u:u;n=$(n,Math.floor(l/o)),e=$(e,Math.floor(l/a)),o=a=l}for(var f=[],s=0;s<o;s++)f.push(d(q(t,n[s],e[s])));return f}};function Qt(t,n,e){return t.map((function(t){return function(t,n,e){var r=t.v;if(!r||"g"!==r.t||r.s||!r.v||!r.r)return t;var i=e.getElementById(r.r),u=i&&i.querySelectorAll("stop")||[];return r.s=r.v.map((function(t,n){var e=u[n]&&u[n].getAttribute("offset");return{c:t,o:e=d(parseInt(e)/100)}})),delete r.v,t}(t,0,e)}))}var Ht={gt:"gradientTransform",c:{x:"cx",y:"cy"},rd:"r",f:{x:"x1",y:"y1"},to:{x:"x2",y:"y2"}};function Jt(t,n,r,i,u,o,a,l){return Qt(t,0,l),n=function(t,n,e){for(var r,i,u,o=t.length-1,a={},l=0;l<=o;l++)(r=t[l]).e&&(r.e=n(r.e)),r.v&&"g"===(i=r.v).t&&i.r&&(u=e.getElementById(i.r))&&(a[i.r]={e:u,s:u.querySelectorAll("stop")});return a}(t,i,l),function(i){var u=r(i,t,Zt);if(!u)return"none";if("c"===u.t)return gt(u.v);if("g"===u.t){if(!n[u.r])return dt(u.r);var o=n[u.r];return function(t,n){for(var e=t.s,r=e.length;r<n.length;r++){var i=e[e.length-1].cloneNode();i.id=Xt(i.id),t.e.appendChild(i),e=t.s=t.e.querySelectorAll("stop")}for(var u=0,o=e.length,a=n.length-1;u<o;u++)e[u].setAttribute("stop-color",gt(n[Math.min(u,a)].c)),e[u].setAttribute("offset",n[Math.min(u,a)].o)}(o,u.s),Object.keys(Ht).forEach((function(t){if(void 0!==u[t])if("object"!==e(Ht[t])){var n,r="gt"===t?(n=u[t],Array.isArray(n)?"matrix("+n.join(" ")+")":""):u[t],i=Ht[t];o.e.setAttribute(i,r)}else Object.keys(Ht[t]).forEach((function(n){if(void 0!==u[t][n]){var e=u[t][n],r=Ht[t][n];o.e.setAttribute(r,e)}}))})),dt(u.r)}return"none"}}function Zt(t,e,r){if(0===t)return e;if(1===t)return r;if(e&&r){var i=e.t;if(i===r.t)switch(e.t){case"c":return{t:i,v:G(t,e.v,r.v)};case"g":if(e.r===r.r){var u={t:i,s:Kt(t,e.s,r.s),r:e.r};return e.gt&&r.gt&&(u.gt=z(t,e.gt,r.gt)),e.c?(u.c=L(t,e.c,r.c),u.rd=q(t,e.rd,r.rd)):e.f&&(u.f=L(t,e.f,r.f),u.to=L(t,e.to,r.to)),u}}if("c"===e.t&&"g"===r.t||"c"===r.t&&"g"===e.t){var o="c"===e.t?e:r,a="g"===e.t?n({},e):n({},r),l=a.s.map((function(t){return{c:o.v,o:t.o}}));return a.s="c"===e.t?Kt(t,l,a.s):Kt(t,a.s,l),a}}return N(t,e,r)}function Kt(t,n,e){if(n.length===e.length)return n.map((function(n,r){return Wt(t,n,e[r])}));for(var r=Math.max(n.length,e.length),i=[],u=0;u<r;u++){var o=Wt(t,n[Math.min(u,n.length-1)],e[Math.min(u,e.length-1)]);i.push(o)}return i}function Wt(t,n,e){return{o:D(t,n.o,e.o||0),c:G(t,n.c,e.c||{})}}function Xt(t){return t.replace(/-fill-([0-9]+)$/,(function(t,n){return"-fill-"+(+n+1)}))}var tn={blur:C,brightness:q,contrast:q,"drop-shadow":function(t,n,e){return 0===t?n:1===t?e:{blur:C(t,n.blur,e.blur),offset:L(t,n.offset,e.offset),color:G(t,n.color,e.color)}},grayscale:q,"hue-rotate":T,invert:q,opacity:q,saturate:q,sepia:q};function nn(t,n,e){if(0===t)return n;if(1===t)return e;var r=n.length;if(r!==e.length)return N(t,n,e);for(var i,u=[],o=0;o<r;o++){if(n[o].type!==e[o].type)return n;if(!(i=tn[n[o].type]))return N(t,n,e);u.push({type:n.type,value:i(t,n[o].value,e[o].value)})}return u}var en={blur:function(t){return t?function(n){t.setAttribute("stdDeviation",yt(n))}:null},brightness:function(t,n,e){return(t=un(e,n))?function(n){n=ht(n),t.map((function(t){return t.setAttribute("slope",n)}))}:null},contrast:function(t,n,e){return(t=un(e,n))?function(n){var e=ht((1-n)/2);n=ht(n),t.map((function(t){t.setAttribute("slope",n),t.setAttribute("intercept",e)}))}:null},"drop-shadow":function(t,n,e){var r=e.getElementById(n+"-blur");if(!r)return null;var i=e.getElementById(n+"-offset");if(!i)return null;var u=e.getElementById(n+"-flood");return u?function(t){r.setAttribute("stdDeviation",yt(t.blur)),i.setAttribute("dx",ht(t.offset.x)),i.setAttribute("dy",ht(t.offset.y)),u.setAttribute("flood-color",gt(t.color))}:null},grayscale:function(t){return t?function(n){t.setAttribute("values",vt(function(t){return[.2126+.7874*(t=1-t),.7152-.7152*t,.0722-.0722*t,0,0,.2126-.2126*t,.7152+.2848*t,.0722-.0722*t,0,0,.2126-.2126*t,.7152-.7152*t,.0722+.9278*t,0,0,0,0,0,1,0]}(n)))}:null},"hue-rotate":function(t){return t?function(n){return t.setAttribute("values",ht(n))}:null},invert:function(t,n,e){return(t=un(e,n))?function(n){n=ht(n)+" "+ht(1-n),t.map((function(t){return t.setAttribute("tableValues",n)}))}:null},opacity:function(t,n,e){return(t=e.getElementById(n+"-A"))?function(n){return t.setAttribute("tableValues","0 "+ht(n))}:null},saturate:function(t){return t?function(n){return t.setAttribute("values",ht(n))}:null},sepia:function(t){return t?function(n){return t.setAttribute("values",vt(function(t){return[.393+.607*(t=1-t),.769-.769*t,.189-.189*t,0,0,.349-.349*t,.686+.314*t,.168-.168*t,0,0,.272-.272*t,.534-.534*t,.131+.869*t,0,0,0,0,0,1,0]}(n)))}:null}};var rn=["R","G","B"];function un(t,n){var e=rn.map((function(e){return t.getElementById(n+"-"+e)||null}));return-1!==e.indexOf(null)?null:e}var on={fill:Jt,"fill-opacity":$t,stroke:Jt,"stroke-opacity":$t,"stroke-width":Yt,"stroke-dashoffset":{f:ht,i:T},"stroke-dasharray":Ut,opacity:$t,transform:function(t,n,r,i){if(!(t=function(t,n){if(!t||"object"!==e(t))return null;var r=!1;for(var i in t)t.hasOwnProperty(i)&&(t[i]&&t[i].length?(t[i].forEach((function(t){t.e&&(t.e=n(t.e))})),r=!0):delete t[i]);return r?t:null}(t,i)))return null;var u=function(e,i,u){var o=arguments.length>3&&void 0!==arguments[3]?arguments[3]:null;return t[e]?r(i,t[e],u):n&&n[e]?n[e]:o};return n&&n.a&&t.o?function(n){var e=r(n,t.o,qt);return Vt.recomposeSelf(e,u("r",n,T,0)+e.a,u("k",n,L),u("s",n,L),u("t",n,L)).toString()}:function(t){return Vt.recomposeSelf(u("o",t,Tt,null),u("r",t,T,0),u("k",t,L),u("s",t,L),u("t",t,L)).toString()}},"#filter":function(t,n,e,r,i,u,o,a){if(!n.items||!t||!t.length)return null;var l=function(t,n){var e=(t=t.map((function(t){return t&&en[t[0]]?(n.getElementById(t[1]),en[t[0]](n.getElementById(t[1]),t[1],n)):null}))).length;return function(n){for(var r=0;r<e;r++)t[r]&&t[r](n[r].value)}}(n.items,a);return l?(t=function(t,n){return t.map((function(t){return t.e=n(t.e),t}))}(t,r),function(n){l(e(n,t,nn))}):null},"#line":zt,points:{f:vt,i:z},d:Gt,r:Yt,"#size":mt,"#radius":pt,_:function(t,n){if(Array.isArray(t))for(var e=0;e<t.length;e++)this[t[e]]=n;else this[t]=n}},an=function(t){!function(t,n){if("function"!=typeof n&&null!==n)throw new TypeError("Super expression must either be null or a function");t.prototype=Object.create(n&&n.prototype,{constructor:{value:t,writable:!0,configurable:!0}}),n&&l(t,n)}(o,t);var n,e,i=(n=o,e=f(),function(){var t,r=a(n);if(e){var i=a(this).constructor;t=Reflect.construct(r,arguments,i)}else t=r.apply(this,arguments);return c(this,t)});function o(){return r(this,o),i.apply(this,arguments)}return u(o,null,[{key:"build",value:function(t){var n=h(a(o),"build",this).call(this,t,on);if(!n)return null;n.el,n.options,function(t,n,e){t.play()}(n.player)}}]),o}(ct);return an.init(),an}));
(function(s,i,o,w,d,a,b){w[o]=w[o]||{};w[o][s]=w[o][s]||[];w[o][s].push(i);})('7c8cb2ed',{"root":"eTePLd6KvhJ1","version":"2022-05-04","animations":[{"elements":{"eTePLd6KvhJ7":{"transform":{"data":{"t":{"x":-130.648621,"y":-252.313004}},"keys":{"o":[{"t":0,"v":{"x":130.648621,"y":252.313004,"type":"corner"}},{"t":400,"v":{"x":132.65,"y":252.313004,"type":"corner"}},{"t":800,"v":{"x":130.648621,"y":252.313004,"type":"corner"}},{"t":1200,"v":{"x":132.65,"y":252.313004,"type":"corner"}},{"t":1600,"v":{"x":130.648621,"y":252.313004,"type":"corner"}},{"t":2000,"v":{"x":132.65,"y":252.313004,"type":"corner"}},{"t":2400,"v":{"x":130.648621,"y":252.313004,"type":"corner"}},{"t":2800,"v":{"x":132.65,"y":252.313004,"type":"corner"}},{"t":3200,"v":{"x":130.648621,"y":252.313004,"type":"corner"}},{"t":3600,"v":{"x":132.65,"y":252.313004,"type":"corner"}},{"t":4000,"v":{"x":130.648621,"y":252.313004,"type":"corner"}}],"r":[{"t":0,"v":0},{"t":400,"v":-7},{"t":800,"v":0},{"t":1200,"v":-7},{"t":1600,"v":0},{"t":2000,"v":-7},{"t":2400,"v":0},{"t":2800,"v":-7},{"t":3200,"v":0},{"t":3600,"v":-7},{"t":4000,"v":0}]}}},"eTePLd6KvhJ8":{"transform":{"data":{"t":{"x":-289.089996,"y":-249.761002}},"keys":{"o":[{"t":0,"v":{"x":288.09,"y":249.761002,"type":"corner"}},{"t":200,"v":{"x":287.09,"y":249.761002,"type":"corner"}},{"t":600,"v":{"x":289.09,"y":249.761002,"type":"corner"}},{"t":1000,"v":{"x":287.09,"y":249.761002,"type":"corner"}},{"t":1400,"v":{"x":289.09,"y":249.761002,"type":"corner"}},{"t":1800,"v":{"x":287.09,"y":249.761002,"type":"corner"}},{"t":2200,"v":{"x":289.09,"y":249.761002,"type":"corner"}},{"t":2600,"v":{"x":287.09,"y":249.761002,"type":"corner"}},{"t":3000,"v":{"x":289.09,"y":249.761002,"type":"corner"}},{"t":3400,"v":{"x":287.09,"y":249.761002,"type":"corner"}},{"t":3800,"v":{"x":289.09,"y":249.761002,"type":"corner"}},{"t":4000,"v":{"x":288.09,"y":249.761002,"type":"corner"}}],"r":[{"t":0,"v":3.5},{"t":200,"v":7},{"t":600,"v":0},{"t":1000,"v":7},{"t":1400,"v":0},{"t":1800,"v":7},{"t":2200,"v":0},{"t":2600,"v":7},{"t":3000,"v":0},{"t":3400,"v":7},{"t":3800,"v":0},{"t":4000,"v":3.5}]}}},"eTePLd6KvhJ10":{"transform":{"data":{"o":{"x":189.938499,"y":86.05645,"type":"corner"},"t":{"x":-189.938499,"y":-86.05645}},"keys":{"s":[{"t":700,"v":{"x":1,"y":1}},{"t":800,"v":{"x":1,"y":0.2}},{"t":900,"v":{"x":1,"y":0.2}},{"t":1000,"v":{"x":1,"y":1}},{"t":2500,"v":{"x":1,"y":1}},{"t":2600,"v":{"x":1,"y":0.2}},{"t":2700,"v":{"x":1,"y":0.2}},{"t":2800,"v":{"x":1,"y":1}}]}},"fill-opacity":[{"t":700,"v":0},{"t":800,"v":1},{"t":900,"v":1},{"t":1000,"v":0},{"t":2500,"v":0},{"t":2600,"v":1},{"t":2700,"v":1},{"t":2800,"v":0}]},"eTePLd6KvhJ11":{"transform":{"data":{"o":{"x":226.2995,"y":86.05645,"type":"corner"},"t":{"x":-226.2995,"y":-86.05645}},"keys":{"s":[{"t":700,"v":{"x":1,"y":1}},{"t":800,"v":{"x":1,"y":0.2}},{"t":900,"v":{"x":1,"y":0.2}},{"t":1000,"v":{"x":1,"y":1}},{"t":2500,"v":{"x":1,"y":1}},{"t":2600,"v":{"x":1,"y":0.2}},{"t":2700,"v":{"x":1,"y":0.2}},{"t":2800,"v":{"x":1,"y":1}}]}},"fill-opacity":[{"t":700,"v":0},{"t":800,"v":1},{"t":900,"v":1},{"t":1000,"v":0},{"t":2500,"v":0},{"t":2600,"v":1},{"t":2700,"v":1},{"t":2800,"v":0}]},"eTePLd6KvhJ14":{"stroke-dashoffset":[{"t":300,"v":-24.16,"e":[0.42,0,0.58,1]},{"t":2200,"v":24.166269}]},"eTePLd6KvhJ15":{"stroke-dashoffset":[{"t":700,"v":42.115861,"e":[0.42,0,0.58,1]},{"t":3300,"v":-42.11}]},"eTePLd6KvhJ21":{"transform":{"data":{"t":{"x":-0.000004,"y":-0.000002}},"keys":{"o":[{"t":700,"v":{"x":189.938004,"y":86.882702,"type":"corner"}},{"t":800,"v":{"x":189.938504,"y":86.200017,"type":"corner"}},{"t":900,"v":{"x":189.938504,"y":86.200017,"type":"corner"}},{"t":1000,"v":{"x":189.938004,"y":86.882702,"type":"corner"}},{"t":2500,"v":{"x":189.938004,"y":86.882702,"type":"corner"}},{"t":2600,"v":{"x":189.938504,"y":86.200017,"type":"corner"}},{"t":2700,"v":{"x":189.938504,"y":86.200017,"type":"corner"}},{"t":2800,"v":{"x":189.938004,"y":86.882702,"type":"corner"}}],"s":[{"t":700,"v":{"x":1,"y":1}},{"t":800,"v":{"x":1,"y":0.221862}},{"t":900,"v":{"x":1,"y":0.221862}},{"t":1000,"v":{"x":1,"y":1}},{"t":2500,"v":{"x":1,"y":1}},{"t":2600,"v":{"x":1,"y":0.221862}},{"t":2700,"v":{"x":1,"y":0.221862}},{"t":2800,"v":{"x":1,"y":1}}]}}},"eTePLd6KvhJ22":{"transform":{"data":{"t":{"x":-0.000003,"y":-0.000002}},"keys":{"o":[{"t":700,"v":{"x":226.300003,"y":86.882702,"type":"corner"}},{"t":800,"v":{"x":226.299503,"y":86.200017,"type":"corner"}},{"t":900,"v":{"x":226.299503,"y":86.200017,"type":"corner"}},{"t":1000,"v":{"x":226.300003,"y":86.882702,"type":"corner"}},{"t":2500,"v":{"x":226.300003,"y":86.882702,"type":"corner"}},{"t":2600,"v":{"x":226.299503,"y":86.200017,"type":"corner"}},{"t":2700,"v":{"x":226.299503,"y":86.200017,"type":"corner"}},{"t":2800,"v":{"x":226.300003,"y":86.882702,"type":"corner"}}],"s":[{"t":700,"v":{"x":1,"y":1}},{"t":800,"v":{"x":1,"y":0.2}},{"t":900,"v":{"x":1,"y":0.2}},{"t":1000,"v":{"x":1,"y":1}},{"t":2500,"v":{"x":1,"y":1}},{"t":2600,"v":{"x":1,"y":0.2}},{"t":2700,"v":{"x":1,"y":0.2}},{"t":2800,"v":{"x":1,"y":1}}]}}}},"s":"MDA1LZDk0SzNiN2RROGU4YjdhOGQ4SMjg4ODczYjUzNGQ0OTQ5NDk0ANTNiN2Q4MjhiN2U3YzhkVTgyJODg4NzNiNTM0YTQ1M2I4MjhkDN2U4YjdhRThkODI4ODg3OGMzHYjUzNDk0NTNiTjdmTjgyODU4FNTNiRDUzNGFENDUzYjdhODVGYOGQ3ZThiVjg3N2E4ZEc3ZTNiMNTM3ZjdhODVQOGM3ZTQ1M2I4RYzg5N2U3ZTdkM2I1MzRhNDUzNYjdmODk4Y0wzYjUzSTRhNDk0FOTk2"}],"options":"MDAxKMDhmMzY4Nzg4NzU4Njg4MzY0PZTM2ODA4Mzc1NzhERzM2OTE/O"},'__SVGATOR_PLAYER__',window,document)
]]></script>
</svg>
