<svg id="es9CFvd0Iyo1" xmlns="http://www.w3.org/2000/svg" xmlns:xlink="http://www.w3.org/1999/xlink" viewBox="0 0 449 351" shape-rendering="geometricPrecision" text-rendering="geometricPrecision"><g id="es9CFvd0Iyo2" transform="translate(.000001 0.000001)"><path d="M286.473,182.272c2.434-.466,6.039-1.567,8.287-5.036" fill="none" stroke="#000" stroke-width="2" stroke-linecap="round" stroke-linejoin="round"/><path d="M284.503,145.818c-1.549.702-3.61-.127-4.516-2.112-.905-1.984-.177-4.075,1.372-4.777c1.549-.701,3.61.128,4.516,2.112.905,1.984.177,4.076-1.372,4.777Z" fill="none" stroke="#151515" stroke-width="1.40458"/><ellipse rx="2.47412" ry="2.20485" transform="matrix(.415213 0.909724-.910989 0.412431 282.033694 143.260115)" fill="#151515"/><path d="M340.239,164.953c-1.596,4.986.331,18.18,8.176,22.355m-79.631-65.31c-.217,1.248.577,15.705,3.722,20.568c2.119,3.763,4.032,10.484-2.467,15.645-6.169,4.46.126,10.762,9.014,8.887c8.569,11.506,4.33,18.392,10.791,25.246c4.916,3.078,11.658,1.819,17.408-3.257c2.941.365,5.17,4.925,6.951,13.048m6.204-74.678c.91,1.258,2.067,4.294-.571,6.373" fill="none" stroke="#000" stroke-width="2" stroke-linecap="round"/><path d="M348.902,107.015c7.25,18.19-3.289,55.075-8.958,67.563-9.298-2.848-22.662-31.369-17.617-33.577c5.301-2.321,8.127-18.549,1.821-22.087-7.403-4.151-11.458,5.163-11.3,11.582l-6.85-7.752c.214-6.418-1.378-17.284-9.426-9.415-8.047,7.87-21.939,8.99-27.877,8.567-12.693-5.707-33.644-20.738-15.932-35.2086c14.733-12.0359,38.41-5.2321,53.499,2.1112c8.401-4.095,32.756-6.5849,42.64,18.2164Z"/><path d="M289.374,137.414c-.416-1.695-.927-3.277-1.461-4.616-.279-.701-.957-1.067-1.572-.886l-12.938,3.563c-.576.169-.954.776-.835,1.473c1.247,7.307,8.381,19.183,13.773,17.59c6.031-1.783,4.723-10.219,3.033-17.124Zm0,0l13.392-4.103" fill="none" stroke="#000" stroke-width="2" stroke-linecap="round"/><path d="M311.674,87.3657c-.152-.1684-.358-.2799-.583-.3158l-11.669-1.8696c-.383-.0615-.768.1047-.987.4261-.218.3215-.231.74-.032,1.0734c2.983,5.0049,7.133,14.5222,6.798,25.7262-3.422.985-5.723,4.362-6.999,8.637-1.389,4.658-1.68,10.707-.786,17.017.927,6.544,5.043,10.969,9.96,13.57c4.892,2.587,10.655,3.419,15.111,2.766c3.363-.492,7.637-2.673,10.654-7.183c3.028-4.527,4.734-11.313,3.124-20.936-.865-5.175-3.572-9.283-6.767-12.157-2.913-2.621-6.292-4.267-9.154-4.735-1.087-6.107-2.837-15.5744-8.67-22.0193Z" fill="#151515" stroke="#fdfdfd" stroke-width="2" stroke-linecap="round" stroke-linejoin="round"/></g><path d="M227.752,340.259h-75.988c-1.124,0-4.467,1.931-4.354,9.093m5.759,0c0-3.078.449-4.756,3.371-4.756c2.921,0,18.259,0,25.563,0" fill="none" stroke="#151515" stroke-width="2" stroke-linecap="round" stroke-linejoin="round"/><path d="M238.981,331.775c-1.123-.699-4.775-3.497-2.949-6.295c2.431-3.726,22.209-8.494,29.372-7.934c5.731.447,17.932,6.022,23.597,8.913c7.191,2.351,12.782.972,14.748,1.019c10.883-1.998,10.739-6.201,20.086-12.31c6.959-4.549,8.295-9.266,11.798-12.49L331.7,278.977l-.983-8.994m-91.736,61.792c2.81-1.632,10.057-4.98,16.575-5.316m-16.575,5.316c-1.966,1.399-4.185,2.938-4.073,4.617.094,1.025,1.32,2.853,6.601,4.196m0,0c3.605-3.031,13.119-8.449,22.333-5.875m-22.333,5.875c-.749.606-2.022,2.322-1.123,4.337.898,2.014,3.932,1.026,5.337.28c1.545-1.446,5.731-4.337,10.113-4.337c4.776,0,11.113,6.194,24.597,6.194c2.95,0,8.652-.895,11.237-2.238c16.574,2.518,50.284-3.184,64.891-10.349c5.956-1.932,10.254-9.478,11.658-13.01l8.147-65.751c-32.811-14.548-42.465,3.451-45.649,14.269m0,0c-1.217.233-3.015-.226-4.073-3.078-2.388-6.435-3.841-30.915-.626-54.836M389.148,350c2.949-40.428,14.326-94.286-4.074-134.574-7.155-15.668-12.5-16.647-36.94-28.398-6.967,12.311-25.564,15.295-33.991,15.248-6.447,5.174-18.962,13.15-11.938,54.557M314.5,322.755c-2.803-10.75-5.039-20.824-6.98-30.809m-5.315-35.113c.161,1.562.336,3.148.525,4.757c1.108,9.415,2.702,19.61,4.79,30.356m-5.315-35.113c-2.95,7.275-7.726,24.481-8.148,30.217-.14,1.025-.224,3.385,1.124,4.056c1.686.84,8.568.84,12.339.84" fill="none" stroke="#151515" stroke-width="2" stroke-linecap="round" stroke-linejoin="round"/><path id="es9CFvd0Iyo12" d="M228.885,308.749c2.313,4.192,9.626,10.786,19.805,10.335m-34.132-4.739c5.442,5.5,17.654,6.754,24.019,2.78M231.413,296.6c-1.172-.433-4.148-1.645-6.18-.161m0,0c-2.539,1.855-12.962,3.314-10.618,6.096c2.344,2.783,4.492,3.895,16.798,2.597m-6.18-8.693l9.832-15.388M213.146,300.15h-4.24c-1.48,0-1.423.661-1.48,1.449-.738,10.265-12.881,14.31-10.172,8.175c2.833-6.416,3.967-18.305,7.933-18.683c3.044-.289,8.765-3.381,11.56-5.076.224-.135.478-.207.74-.207h4.235m7.98,3.637c5.43,4.675,19.967,15.809,26.713,17.346c10.253,1.885,27.305,1.069,32.024,0c4.72-1.069,7.164-8.97,8.006-15.265m-61.38-10.475c-.983,0-3.315-.196-4.775-.979-1.461-.783-2.482-2.285-2.81-2.938m7.585,3.917c.094-.746-.253-2.574-2.388-3.917-2.668-1.678-4.916-.449-5.197,0m-8.708,29.097l-13.007,22.516c-1.247,2.16-5.985,6.077-9.888,6.984m0,0c-.331-1.569-1.164-4.914,1.484-9.721c2.648-4.806,21.183-34.586,30.119-48.876m-31.603,58.597l-.702,1.119m117.002-24.34c-.328,4.896-3.793,14.772-15.029,15.108" fill="none" stroke="#000" stroke-width="2" stroke-linecap="round"/><path d="M348.134,187.868c-8.315,11.862-26.031,14.548-33.85,14.408-15.17,6.603-15.591,38.19-12.22,55.956-5.057,8.058-7.585,25.367-8.147,32.595l13.484.979l7.585,31.335c4.607-2.686,15.684-14.921,20.647-20.704l-5.056-33.014c6.517-25.963,33.148-20.05,45.649-13.849-2.388,17.626-4.776,63.93-11.377,72.743-5.67,5.882-35.619,12.857-48.458,17.346l.561,3.917h72.196c1.03-7.647,3.124-28.436,5.056-52.179c4.214-51.759-5.243-78.058-14.045-91.208-3.596-5.371-22.895-14.735-32.025-18.325Z" fill="#151515"/><path d="M448,349.951h-327.83M1,349.951h65.5153m53.6547,0v-7.414c0-1.539-1.011-3.218-3.371-3.218h-39.8898c-7.3038,0-23.2037-6.379-22.1924-25.18l18.8214-91.493M120.17,349.951h-53.6547m15.8718-139.75c-1.5451-9.233-8.0061-11.487-11.2367-11.611-3.7924-.145-13.6553,1.819-13.9054,12.031-.1272,5.196,2.4251,8.266,5.0565,10.156m20.0856-10.576c-.406,11.322-8.1143,13.164-14.3299,13.283-.4595.009-.9114-.106-1.329-.298-1.07-.492-2.7641-1.215-4.4267-2.409m20.0856-10.576l1.9664-.42M66.5153,349.951c-11.7985-4.057-27.5017-16.731-23.4565-39.449l19.2427-89.725M73.5382,91.7144l8.1466-2.6579L139.694,314.139l-8.287,2.518M73.5382,91.7144L131.407,316.657M73.5382,91.7144c-1.6855,38.1896,3.371,91.2086,10.8153,118.0666M131.407,316.657c-33.1481-40.288-43.06-92.467-47.0535-106.876" fill="none" stroke="#151515" stroke-width="2" stroke-linecap="round" stroke-linejoin="round"/><path d="M410.594,179.342c2.247-.979,4.073-1.384,5.197-1.259c2.247.248,4.073,1.445,4.916,2.098L418.319,282.86c-.408.532-1.458,1.434-3.09,2.003m-4.635-105.521l-3.09,102.539m3.09-102.539c-2.95-1.259-5.618-1.259-8.989,0-4.211,1.573-8.177,9.365-8.384,12.723-3.933,63.782-9.876,76.2-4.258,84.92c1.265,1.958,4.86,6.043,9.13,6.715c4.27.671,8.015-.467,9.353-1.12m.058-.699c.281,1.212,1.657,3.609,4.916,3.497c1.071-.037,2.01-.236,2.809-.515m-7.725-2.982c-.019.23-.038.463-.058.699m7.783,2.283c-.936,20.223-1.782,58.282-2.809,65.137m-13.159,0c1.685-5.875,6.595-48.244,8.185-67.42" fill="none" stroke="#151515" stroke-width="2" stroke-linejoin="round"/><path d="M407.548,283.832l2.95-104.218c-4.27-1.902-9.364.047-11.377,1.259-7.978,2.798-8.147,46.63-10.113,57.355l3.371,44.765l15.169.839Z" fill="#151515"/><path d="M351.798,184.449c-.498-.24-1.095-.03-1.334.467-.24.498-.03,1.096.467,1.335l.867-1.802Zm36.086,30.977l.91-.415-.91.415Zm-36.953-29.175c12.259,5.894,19.481,9.445,24.555,13.453c5.005,3.953,7.943,8.374,11.488,16.138l1.82-.831c-3.61-7.904-6.712-12.646-12.068-16.877-5.287-4.176-12.747-7.829-24.928-13.685l-.867,1.802Zm36.043,29.591c9.103,19.932,10.794,42.757,9.901,65.783-.447,11.508-1.537,23.039-2.658,34.265-1.121,11.215-2.274,22.137-2.837,32.376l1.997.11c.56-10.184,1.707-21.05,2.83-32.287c1.121-11.227,2.217-22.812,2.666-34.386.898-23.138-.783-46.336-10.079-66.692l-1.82.831Z" fill="#fdfdfd"/><g id="es9CFvd0Iyo18" opacity="0"><ellipse rx="3.9575" ry="3.13914" transform="matrix(.966187 0.257841-.2598 0.965662 343.081137 59.568456)" fill="#151515"/><path d="M354.615,51.5832c-2.414-1.6311-3.816-5.7204-4.2-7.0842l-1.611,5.9859c2.538,1.1707,3.676,5.1758,4.17,7.1994c1.234-2.3027,1.664-3.7506,1.641-6.1011Z" fill="#151515"/><path d="M346.182,60.2313l2.622-9.7464m0,0l1.611-5.9859c.384,1.3638,1.786,5.4531,4.2,7.0842.023,2.3505-.407,3.7984-1.641,6.1011-.494-2.0236-1.632-6.0287-4.17-7.1994Z" fill="none" stroke="#151515" stroke-width="1.4" stroke-linecap="round" stroke-linejoin="round"/></g><g id="es9CFvd0Iyo22" opacity="0"><ellipse rx="3.95857" ry="3.13829" transform="translate(291.274 36.4463)" fill="#151515"/><path d="M300.339,25.7602c-2.755-.9534-5.172-4.5419-5.898-5.7601v6.1971c2.755.4767,4.895,4.052,5.898,5.8793.594-2.5424.634-4.052,0-6.3163Z" fill="#151515"/><path d="M294.441,36.2874v-10.0902m0,0v-6.1971c.726,1.2182,3.143,4.8067,5.898,5.7601.634,2.2643.594,3.7739,0,6.3163-1.003-1.8273-3.143-5.4026-5.898-5.8793Z" fill="none" stroke="#151515" stroke-width="1.4" stroke-linecap="round" stroke-linejoin="round"/></g><g id="es9CFvd0Iyo26" transform="translate(0 0.000001)" opacity="0"><path d="M271.898,39.4918l-11.851,4.6778.9,3.348l11.852-4.6778-.901-3.348Z" fill="#151515"/><path d="M263.81,58.1568l-2.863-10.6392m14.724,5.9986l-2.872-10.6764m0,0l-.901-3.348-11.851,4.6778.9,3.348m11.852-4.6778l-11.852,4.6778" fill="none" stroke="#151515" stroke-width="1.4" stroke-linecap="round" stroke-linejoin="round"/><ellipse rx="3.51872" ry="2.85068" transform="matrix(.966187-.257841 0.2598 0.965662 273.04335 54.496624)" fill="#151515"/><ellipse rx="3.51872" ry="2.85068" transform="matrix(.966187-.257841 0.2598 0.965662 261.20935 59.090324)" fill="#151515"/></g><g id="es9CFvd0Iyo31" transform="translate(.000001 0.000001)" opacity="0"><path d="M321.704,50.7758l-12.663,1.4634v3.4661l12.663-1.4634v-3.4661Z" fill="#151515"/><path d="M309.041,66.7198v-11.0145m12.663,9.5895v-11.0529m0,0v-3.4661l-12.663,1.4634v3.4661m12.663-1.4634l-12.663,1.4634" fill="none" stroke="#151515" stroke-width="1.4" stroke-linecap="round" stroke-linejoin="round"/><ellipse rx="3.51967" ry="2.8499" transform="translate(318.911 65.5644)" fill="#151515"/><ellipse rx="3.51967" ry="2.8499" transform="translate(306.286 66.951)" fill="#151515"/></g>
<script><![CDATA[
!function(t,n){"object"==typeof exports&&"undefined"!=typeof module?module.exports=n():"function"==typeof __SVGATOR_DEFINE__&&__SVGATOR_DEFINE__.amd?__SVGATOR_DEFINE__(n):((t="undefined"!=typeof globalThis?globalThis:t||self).__SVGATOR_PLAYER__=t.__SVGATOR_PLAYER__||{},t.__SVGATOR_PLAYER__["5c7f360c"]=n())}(this,(function(){"use strict";function t(t,n){var e=Object.keys(t);if(Object.getOwnPropertySymbols){var r=Object.getOwnPropertySymbols(t);n&&(r=r.filter((function(n){return Object.getOwnPropertyDescriptor(t,n).enumerable}))),e.push.apply(e,r)}return e}function n(n){for(var e=1;e<arguments.length;e++){var r=null!=arguments[e]?arguments[e]:{};e%2?t(Object(r),!0).forEach((function(t){o(n,t,r[t])})):Object.getOwnPropertyDescriptors?Object.defineProperties(n,Object.getOwnPropertyDescriptors(r)):t(Object(r)).forEach((function(t){Object.defineProperty(n,t,Object.getOwnPropertyDescriptor(r,t))}))}return n}function e(t){return(e="function"==typeof Symbol&&"symbol"==typeof Symbol.iterator?function(t){return typeof t}:function(t){return t&&"function"==typeof Symbol&&t.constructor===Symbol&&t!==Symbol.prototype?"symbol":typeof t})(t)}function r(t,n){if(!(t instanceof n))throw new TypeError("Cannot call a class as a function")}function i(t,n){for(var e=0;e<n.length;e++){var r=n[e];r.enumerable=r.enumerable||!1,r.configurable=!0,"value"in r&&(r.writable=!0),Object.defineProperty(t,r.key,r)}}function u(t,n,e){return n&&i(t.prototype,n),e&&i(t,e),t}function o(t,n,e){return n in t?Object.defineProperty(t,n,{value:e,enumerable:!0,configurable:!0,writable:!0}):t[n]=e,t}function a(t){return(a=Object.setPrototypeOf?Object.getPrototypeOf:function(t){return t.__proto__||Object.getPrototypeOf(t)})(t)}function l(t,n){return(l=Object.setPrototypeOf||function(t,n){return t.__proto__=n,t})(t,n)}function s(){if("undefined"==typeof Reflect||!Reflect.construct)return!1;if(Reflect.construct.sham)return!1;if("function"==typeof Proxy)return!0;try{return Boolean.prototype.valueOf.call(Reflect.construct(Boolean,[],(function(){}))),!0}catch(t){return!1}}function f(t,n,e){return(f=s()?Reflect.construct:function(t,n,e){var r=[null];r.push.apply(r,n);var i=new(Function.bind.apply(t,r));return e&&l(i,e.prototype),i}).apply(null,arguments)}function c(t,n){if(n&&("object"==typeof n||"function"==typeof n))return n;if(void 0!==n)throw new TypeError("Derived constructors may only return object or undefined");return function(t){if(void 0===t)throw new ReferenceError("this hasn't been initialised - super() hasn't been called");return t}(t)}function h(t,n,e){return(h="undefined"!=typeof Reflect&&Reflect.get?Reflect.get:function(t,n,e){var r=function(t,n){for(;!Object.prototype.hasOwnProperty.call(t,n)&&null!==(t=a(t)););return t}(t,n);if(r){var i=Object.getOwnPropertyDescriptor(r,n);return i.get?i.get.call(e):i.value}})(t,n,e||t)}function v(t){return function(t){if(Array.isArray(t))return y(t)}(t)||function(t){if("undefined"!=typeof Symbol&&null!=t[Symbol.iterator]||null!=t["@@iterator"])return Array.from(t)}(t)||function(t,n){if(!t)return;if("string"==typeof t)return y(t,n);var e=Object.prototype.toString.call(t).slice(8,-1);"Object"===e&&t.constructor&&(e=t.constructor.name);if("Map"===e||"Set"===e)return Array.from(t);if("Arguments"===e||/^(?:Ui|I)nt(?:8|16|32)(?:Clamped)?Array$/.test(e))return y(t,n)}(t)||function(){throw new TypeError("Invalid attempt to spread non-iterable instance.\nIn order to be iterable, non-array objects must have a [Symbol.iterator]() method.")}()}function y(t,n){(null==n||n>t.length)&&(n=t.length);for(var e=0,r=new Array(n);e<n;e++)r[e]=t[e];return r}Number.isInteger||(Number.isInteger=function(t){return"number"==typeof t&&isFinite(t)&&Math.floor(t)===t}),Number.EPSILON||(Number.EPSILON=2220446049250313e-31);var g=p(Math.pow(10,-6));function p(t){var n=arguments.length>1&&void 0!==arguments[1]?arguments[1]:6;if(Number.isInteger(t))return t;var e=Math.pow(10,n);return Math.round((+t+Number.EPSILON)*e)/e}function d(t,n){var e=arguments.length>2&&void 0!==arguments[2]?arguments[2]:g;return Math.abs(t-n)<e}var m=Math.PI/180;function b(t){return t}function w(t,n,e){var r=1-e;return 3*e*r*(t*r+n*e)+e*e*e}function A(){var t=arguments.length>0&&void 0!==arguments[0]?arguments[0]:0,n=arguments.length>1&&void 0!==arguments[1]?arguments[1]:0,e=arguments.length>2&&void 0!==arguments[2]?arguments[2]:1,r=arguments.length>3&&void 0!==arguments[3]?arguments[3]:1;return t<0||t>1||e<0||e>1?null:d(t,n)&&d(e,r)?b:function(i){if(i<=0)return t>0?i*n/t:0===n&&e>0?i*r/e:0;if(i>=1)return e<1?1+(i-1)*(r-1)/(e-1):1===e&&t<1?1+(i-1)*(n-1)/(t-1):1;for(var u,o=0,a=1;o<a;){var l=w(t,e,u=(o+a)/2);if(d(i,l))break;l<i?o=u:a=u}return w(n,r,u)}}function _(){return 1}function x(t){return 1===t?1:0}function k(){var t=arguments.length>0&&void 0!==arguments[0]?arguments[0]:1,n=arguments.length>1&&void 0!==arguments[1]?arguments[1]:0;if(1===t){if(0===n)return x;if(1===n)return _}var e=1/t;return function(t){return t>=1?1:(t+=n*e)-t%e}}var S=Math.sin,O=Math.cos,j=Math.acos,E=Math.asin,M=Math.tan,P=Math.atan2,I=Math.PI/180,R=180/Math.PI,F=Math.sqrt,N=function(){function t(){var n=arguments.length>0&&void 0!==arguments[0]?arguments[0]:1,e=arguments.length>1&&void 0!==arguments[1]?arguments[1]:0,i=arguments.length>2&&void 0!==arguments[2]?arguments[2]:0,u=arguments.length>3&&void 0!==arguments[3]?arguments[3]:1,o=arguments.length>4&&void 0!==arguments[4]?arguments[4]:0,a=arguments.length>5&&void 0!==arguments[5]?arguments[5]:0;r(this,t),this.m=[n,e,i,u,o,a],this.i=null,this.w=null,this.s=null}return u(t,[{key:"determinant",get:function(){var t=this.m;return t[0]*t[3]-t[1]*t[2]}},{key:"isIdentity",get:function(){if(null===this.i){var t=this.m;this.i=1===t[0]&&0===t[1]&&0===t[2]&&1===t[3]&&0===t[4]&&0===t[5]}return this.i}},{key:"point",value:function(t,n){var e=this.m;return{x:e[0]*t+e[2]*n+e[4],y:e[1]*t+e[3]*n+e[5]}}},{key:"translateSelf",value:function(){var t=arguments.length>0&&void 0!==arguments[0]?arguments[0]:0,n=arguments.length>1&&void 0!==arguments[1]?arguments[1]:0;if(!t&&!n)return this;var e=this.m;return e[4]+=e[0]*t+e[2]*n,e[5]+=e[1]*t+e[3]*n,this.w=this.s=this.i=null,this}},{key:"rotateSelf",value:function(){var t=arguments.length>0&&void 0!==arguments[0]?arguments[0]:0;if(t%=360){var n=S(t*=I),e=O(t),r=this.m,i=r[0],u=r[1];r[0]=i*e+r[2]*n,r[1]=u*e+r[3]*n,r[2]=r[2]*e-i*n,r[3]=r[3]*e-u*n,this.w=this.s=this.i=null}return this}},{key:"scaleSelf",value:function(){var t=arguments.length>0&&void 0!==arguments[0]?arguments[0]:1,n=arguments.length>1&&void 0!==arguments[1]?arguments[1]:1;if(1!==t||1!==n){var e=this.m;e[0]*=t,e[1]*=t,e[2]*=n,e[3]*=n,this.w=this.s=this.i=null}return this}},{key:"skewSelf",value:function(t,n){if(n%=360,(t%=360)||n){var e=this.m,r=e[0],i=e[1],u=e[2],o=e[3];t&&(t=M(t*I),e[2]+=r*t,e[3]+=i*t),n&&(n=M(n*I),e[0]+=u*n,e[1]+=o*n),this.w=this.s=this.i=null}return this}},{key:"resetSelf",value:function(){var t=arguments.length>0&&void 0!==arguments[0]?arguments[0]:1,n=arguments.length>1&&void 0!==arguments[1]?arguments[1]:0,e=arguments.length>2&&void 0!==arguments[2]?arguments[2]:0,r=arguments.length>3&&void 0!==arguments[3]?arguments[3]:1,i=arguments.length>4&&void 0!==arguments[4]?arguments[4]:0,u=arguments.length>5&&void 0!==arguments[5]?arguments[5]:0,o=this.m;return o[0]=t,o[1]=n,o[2]=e,o[3]=r,o[4]=i,o[5]=u,this.w=this.s=this.i=null,this}},{key:"recomposeSelf",value:function(){var t=arguments.length>0&&void 0!==arguments[0]?arguments[0]:null,n=arguments.length>1&&void 0!==arguments[1]?arguments[1]:null,e=arguments.length>2&&void 0!==arguments[2]?arguments[2]:null,r=arguments.length>3&&void 0!==arguments[3]?arguments[3]:null,i=arguments.length>4&&void 0!==arguments[4]?arguments[4]:null;return this.isIdentity||this.resetSelf(),t&&(t.x||t.y)&&this.translateSelf(t.x,t.y),n&&this.rotateSelf(n),e&&(e.x&&this.skewSelf(e.x,0),e.y&&this.skewSelf(0,e.y)),!r||1===r.x&&1===r.y||this.scaleSelf(r.x,r.y),i&&(i.x||i.y)&&this.translateSelf(i.x,i.y),this}},{key:"decompose",value:function(){var t=arguments.length>0&&void 0!==arguments[0]?arguments[0]:0,n=arguments.length>1&&void 0!==arguments[1]?arguments[1]:0,e=this.m,r=e[0]*e[0]+e[1]*e[1],i=[[e[0],e[1]],[e[2],e[3]]],u=F(r);if(0===u)return{origin:{x:p(e[4]),y:p(e[5])},translate:{x:p(t),y:p(n)},scale:{x:0,y:0},skew:{x:0,y:0},rotate:0};i[0][0]/=u,i[0][1]/=u;var o=e[0]*e[3]-e[1]*e[2]<0;o&&(u=-u);var a=i[0][0]*i[1][0]+i[0][1]*i[1][1];i[1][0]-=i[0][0]*a,i[1][1]-=i[0][1]*a;var l=F(i[1][0]*i[1][0]+i[1][1]*i[1][1]);if(0===l)return{origin:{x:p(e[4]),y:p(e[5])},translate:{x:p(t),y:p(n)},scale:{x:p(u),y:0},skew:{x:0,y:0},rotate:0};i[1][0]/=l,i[1][1]/=l,a/=l;var s=0;return i[1][1]<0?(s=j(i[1][1])*R,i[0][1]<0&&(s=360-s)):s=E(i[0][1])*R,o&&(s=-s),a=P(a,F(i[0][0]*i[0][0]+i[0][1]*i[0][1]))*R,o&&(a=-a),{origin:{x:p(e[4]),y:p(e[5])},translate:{x:p(t),y:p(n)},scale:{x:p(u),y:p(l)},skew:{x:p(a),y:0},rotate:p(s)}}},{key:"clone",value:function(){var t=this.m;return new this.constructor(t[0],t[1],t[2],t[3],t[4],t[5])}},{key:"toString",value:function(){var t=arguments.length>0&&void 0!==arguments[0]?arguments[0]:" ";if(null===this.s){var n=this.m.map((function(t){return p(t)}));1===n[0]&&0===n[1]&&0===n[2]&&1===n[3]?this.s="translate("+n[4]+t+n[5]+")":this.s="matrix("+n.join(t)+")"}return this.s}}],[{key:"create",value:function(t){return t?Array.isArray(t)?f(this,v(t)):t instanceof this?t.clone():(new this).recomposeSelf(t.origin,t.rotate,t.skew,t.scale,t.translate):new this}}]),t}();function T(t,n,e){return t>=.5?e:n}function q(t,n,e){return 0===t||n===e?n:t*(e-n)+n}function B(t,n,e){var r=q(t,n,e);return r<=0?0:r}function D(t,n,e){var r=q(t,n,e);return r<=0?0:r>=1?1:r}function L(t,n,e){return 0===t?n:1===t?e:{x:q(t,n.x,e.x),y:q(t,n.y,e.y)}}function C(t,n,e){var r=function(t,n,e){return Math.round(q(t,n,e))}(t,n,e);return r<=0?0:r>=255?255:r}function V(t,n,e){return 0===t?n:1===t?e:{r:C(t,n.r,e.r),g:C(t,n.g,e.g),b:C(t,n.b,e.b),a:q(t,null==n.a?1:n.a,null==e.a?1:e.a)}}function G(t,n){for(var e=[],r=0;r<t;r++)e.push(n);return e}function z(t,n){if(--n<=0)return t;var e=(t=Object.assign([],t)).length;do{for(var r=0;r<e;r++)t.push(t[r])}while(--n>0);return t}var Y,$=function(){function t(n){r(this,t),this.list=n,this.length=n.length}return u(t,[{key:"setAttribute",value:function(t,n){for(var e=this.list,r=0;r<this.length;r++)e[r].setAttribute(t,n)}},{key:"removeAttribute",value:function(t){for(var n=this.list,e=0;e<this.length;e++)n[e].removeAttribute(t)}},{key:"style",value:function(t,n){for(var e=this.list,r=0;r<this.length;r++)e[r].style[t]=n}}]),t}(),U=/-./g,Q=function(t,n){return n.toUpperCase()};function H(t){return"function"==typeof t?t:T}function J(t){return t?"function"==typeof t?t:Array.isArray(t)?function(t){var n=arguments.length>1&&void 0!==arguments[1]?arguments[1]:b;if(!Array.isArray(t))return n;switch(t.length){case 1:return k(t[0])||n;case 2:return k(t[0],t[1])||n;case 4:return A(t[0],t[1],t[2],t[3])||n}return n}(t,null):function(t,n){var e=arguments.length>2&&void 0!==arguments[2]?arguments[2]:b;switch(t){case"linear":return b;case"steps":return k(n.steps||1,n.jump||0)||e;case"bezier":case"cubic-bezier":return A(n.x1||0,n.y1||0,n.x2||0,n.y2||0)||e}return e}(t.type,t.value,null):null}function Z(t,n,e){var r=arguments.length>3&&void 0!==arguments[3]&&arguments[3],i=n.length-1;if(t<=n[0].t)return r?[0,0,n[0].v]:n[0].v;if(t>=n[i].t)return r?[i,1,n[i].v]:n[i].v;var u,o=n[0],a=null;for(u=1;u<=i;u++){if(!(t>n[u].t)){a=n[u];break}o=n[u]}return null==a?r?[i,1,n[i].v]:n[i].v:o.t===a.t?r?[u,1,a.v]:a.v:(t=(t-o.t)/(a.t-o.t),o.e&&(t=o.e(t)),r?[u,t,e(t,o.v,a.v)]:e(t,o.v,a.v))}function K(t,n){var e=arguments.length>2&&void 0!==arguments[2]?arguments[2]:null;return t&&t.length?"function"!=typeof n?null:("function"!=typeof e&&(e=null),function(r){var i=Z(r,t,n);return null!=i&&e&&(i=e(i)),i}):null}function W(t,n){return t.t-n.t}function X(t,n,r,i,u){var o,a="@"===r[0],l="#"===r[0],s=Y[r],f=T;switch(a?(o=r.substr(1),r=o.replace(U,Q)):l&&(r=r.substr(1)),e(s)){case"function":if(f=s(i,u,Z,J,r,a,n,t),l)return f;break;case"string":f=K(i,H(s));break;case"object":if((f=K(i,H(s.i),s.f))&&"function"==typeof s.u)return s.u(n,f,r,a,t)}return f?function(t,n,e){if(arguments.length>3&&void 0!==arguments[3]&&arguments[3])return t instanceof $?function(r){return t.style(n,e(r))}:function(r){return t.style[n]=e(r)};if(Array.isArray(n)){var r=n.length;return function(i){var u=e(i);if(null==u)for(var o=0;o<r;o++)t[o].removeAttribute(n);else for(var a=0;a<r;a++)t[a].setAttribute(n,u)}}return function(r){var i=e(r);null==i?t.removeAttribute(n):t.setAttribute(n,i)}}(n,r,f,a):null}function tt(t,n,r,i){if(!i||"object"!==e(i))return null;var u=null,o=null;return Array.isArray(i)?o=function(t){if(!t||!t.length)return null;for(var n=0;n<t.length;n++)t[n].e&&(t[n].e=J(t[n].e));return t.sort(W)}(i):(o=i.keys,u=i.data||null),o?X(t,n,r,o,u):null}function nt(t,n,e){if(!e)return null;var r=[];for(var i in e)if(e.hasOwnProperty(i)){var u=tt(t,n,i,e[i]);u&&r.push(u)}return r.length?r:null}function et(t,n){if(!n.settings.duration||n.settings.duration<0)return null;var e,r,i,u,o,a=function(t,n){if(!n)return null;var e=[];if(Array.isArray(n))for(var r=n.length,i=0;i<r;i++){var u=n[i];if(2===u.length){var o=null;if("string"==typeof u[0])o=t.getElementById(u[0]);else if(Array.isArray(u[0])){o=[];for(var a=0;a<u[0].length;a++)if("string"==typeof u[0][a]){var l=t.getElementById(u[0][a]);l&&o.push(l)}o=o.length?1===o.length?o[0]:new $(o):null}if(o){var s=nt(t,o,u[1]);s&&(e=e.concat(s))}}}else for(var f in n)if(n.hasOwnProperty(f)){var c=t.getElementById(f);if(c){var h=nt(t,c,n[f]);h&&(e=e.concat(h))}}return e.length?e:null}(t,n.elements);return a?(e=a,r=n.settings,i=r.duration,u=e.length,o=null,function(t,n){var a=r.iterations||1/0,l=(r.alternate&&a%2==0)^r.direction>0?i:0,s=t%i,f=1+(t-s)/i;n*=r.direction,r.alternate&&f%2==0&&(n=-n);var c=!1;if(f>a)s=l,c=!0,-1===r.fill&&(s=r.direction>0?0:i);else if(n<0&&(s=i-s),s===o)return!1;o=s;for(var h=0;h<u;h++)e[h](s);return c}):null}function rt(t,n){if(Y=n,!t||!t.root||!Array.isArray(t.animations))return null;var e=function(t){for(var n=document.getElementsByTagName("svg"),e=0;e<n.length;e++)if(n[e].id===t.root&&!n[e].svgatorAnimation)return n[e].svgatorAnimation=!0,n[e];return null}(t);if(!e)return null;var r=t.animations.map((function(t){return et(e,t)})).filter((function(t){return!!t}));return r.length?{svg:e,animations:r,animationSettings:t.animationSettings,options:t.options||void 0}:null}function it(t){return+("0x"+(t.replace(/[^0-9a-fA-F]+/g,"")||27))}function ut(t,n,e){return!t||!e||n>t.length?t:t.substring(0,n)+ut(t.substring(n+1),e,e)}function ot(t){var n=arguments.length>1&&void 0!==arguments[1]?arguments[1]:27;return!t||t%n?t%n:ot(t/n,n)}function at(t,n,e){if(t&&t.length){var r=it(e),i=it(n),u=ot(r)+5,o=ut(t,ot(r,5),u);return o=o.replace(/\x7c$/g,"==").replace(/\x2f$/g,"="),o=function(t,n,e){var r=+("0x"+t.substring(0,4));t=t.substring(4);for(var i=n%r+e%27,u=[],o=0;o<t.length;o+=2)if("|"!==t[o]){var a=+("0x"+t[o]+t[o+1])-i;u.push(a)}else{var l=+("0x"+t.substring(o+1,o+1+4))-i;o+=3,u.push(l)}return String.fromCharCode.apply(String,u)}(o=(o=atob(o)).replace(/[\x41-\x5A]/g,""),i,r),o=JSON.parse(o)}}var lt=[{key:"alternate",def:!1},{key:"fill",def:1},{key:"iterations",def:0},{key:"direction",def:1},{key:"speed",def:1},{key:"fps",def:100}],st=function(){function t(n,e){var i=this,u=arguments.length>2&&void 0!==arguments[2]?arguments[2]:null;r(this,t),this._id=0,this._running=!1,this._rollingBack=!1,this._animations=n,this._settings=e,(!u||u<"2022-05-02")&&delete this._settings.speed,lt.forEach((function(t){i._settings[t.key]=i._settings[t.key]||t.def})),this.duration=e.duration,this.offset=e.offset||0,this.rollbackStartOffset=0}return u(t,[{key:"alternate",get:function(){return this._settings.alternate}},{key:"fill",get:function(){return this._settings.fill}},{key:"iterations",get:function(){return this._settings.iterations}},{key:"direction",get:function(){return this._settings.direction}},{key:"speed",get:function(){return this._settings.speed}},{key:"fps",get:function(){return this._settings.fps}},{key:"maxFiniteDuration",get:function(){return this.iterations>0?this.iterations*this.duration:this.duration}},{key:"_apply",value:function(t){for(var n=arguments.length>1&&void 0!==arguments[1]?arguments[1]:{},e=this._animations,r=e.length,i=0,u=0;u<r;u++)n[u]?i++:(n[u]=e[u](t,1),n[u]&&i++);return i}},{key:"_rollback",value:function(t){var n=this,e=1/0,r=null;this.rollbackStartOffset=t,this._rollingBack=!0,this._running=!0;this._id=window.requestAnimationFrame((function i(u){if(n._rollingBack){null==r&&(r=u);var o=Math.round(t-(u-r)*n.speed);if(o>n.duration&&e!==1/0){var a=!!n.alternate&&o/n.duration%2>1,l=o%n.duration;o=(l+=a?n.duration:0)||n.duration}var s=(n.fps?1e3/n.fps:0)*n.speed,f=Math.max(0,o);f<=e-s&&(n.offset=f,e=f,n._apply(f));var c=n.iterations>0&&-1===n.fill&&o>=n.maxFiniteDuration;(o<=0||n.offset<o||c)&&n.stop(),n._id=window.requestAnimationFrame(i)}}))}},{key:"_start",value:function(){var t=this,n=arguments.length>0&&void 0!==arguments[0]?arguments[0]:0,e=-1/0,r=null,i={};this._running=!0;var u=function u(o){null==r&&(r=o);var a=Math.round((o-r)*t.speed+n),l=(t.fps?1e3/t.fps:0)*t.speed;if(a>=e+l&&!t._rollingBack&&(t.offset=a,e=a,t._apply(a,i)===t._animations.length))return void t.pause(!0);t._id=window.requestAnimationFrame(u)};this._id=window.requestAnimationFrame(u)}},{key:"_pause",value:function(){this._id&&window.cancelAnimationFrame(this._id),this._running=!1}},{key:"play",value:function(){if(!this._running)return this._rollingBack?this._rollback(this.offset):this._start(this.offset)}},{key:"stop",value:function(){this._pause(),this.offset=0,this.rollbackStartOffset=0,this._rollingBack=!1,this._apply(0)}},{key:"reachedToEnd",value:function(){return this.iterations>0&&this.offset>=this.iterations*this.duration}},{key:"restart",value:function(){var t=arguments.length>0&&void 0!==arguments[0]&&arguments[0];this.stop(t),this.play(t)}},{key:"pause",value:function(){this._pause()}},{key:"reverse",value:function(){this.direction=-this.direction}}],[{key:"build",value:function(t,n){delete t.animationSettings,t.options=at(t.options,t.root,"5c7f360c"),t.animations.map((function(n){n.settings=at(n.s,t.root,"5c7f360c"),delete n.s,t.animationSettings||(t.animationSettings=n.settings)}));var e=t.version;if(!(t=rt(t,n)))return null;var r=t.options||{},i=new this(t.animations,t.animationSettings,e);return{el:t.svg,options:r,player:i}}},{key:"push",value:function(t){return this.build(t)}},{key:"init",value:function(){var t=this,n=window.__SVGATOR_PLAYER__&&window.__SVGATOR_PLAYER__["5c7f360c"];Array.isArray(n)&&n.splice(0).forEach((function(n){return t.build(n)}))}}]),t}();function ft(t){return p(t)+""}function ct(t){var n=arguments.length>1&&void 0!==arguments[1]?arguments[1]:" ";return t&&t.length?t.map(ft).join(n):""}function ht(t){if(!t)return"transparent";if(null==t.a||t.a>=1){var n=function(t){return 1===(t=parseInt(t).toString(16)).length?"0"+t:t},e=function(t){return t.charAt(0)===t.charAt(1)},r=n(t.r),i=n(t.g),u=n(t.b);return e(r)&&e(i)&&e(u)&&(r=r.charAt(0),i=i.charAt(0),u=u.charAt(0)),"#"+r+i+u}return"rgba("+t.r+","+t.g+","+t.b+","+t.a+")"}function vt(t){return t?"url(#"+t+")":"none"}!function(){for(var t=0,n=["ms","moz","webkit","o"],e=0;e<n.length&&!window.requestAnimationFrame;++e)window.requestAnimationFrame=window[n[e]+"RequestAnimationFrame"],window.cancelAnimationFrame=window[n[e]+"CancelAnimationFrame"]||window[n[e]+"CancelRequestAnimationFrame"];window.requestAnimationFrame||(window.requestAnimationFrame=function(n){var e=Date.now(),r=Math.max(0,16-(e-t)),i=window.setTimeout((function(){n(e+r)}),r);return t=e+r,i},window.cancelAnimationFrame=window.clearTimeout)}();var yt={f:null,i:function(t,n,e){return 0===t?n:1===t?e:{x:B(t,n.x,e.x),y:B(t,n.y,e.y)}},u:function(t,n){return function(e){var r=n(e);t.setAttribute("rx",ft(r.x)),t.setAttribute("ry",ft(r.y))}}},gt={f:null,i:function(t,n,e){return 0===t?n:1===t?e:{width:B(t,n.width,e.width),height:B(t,n.height,e.height)}},u:function(t,n){return function(e){var r=n(e);t.setAttribute("width",ft(r.width)),t.setAttribute("height",ft(r.height))}}};Object.freeze({M:2,L:2,Z:0,H:1,V:1,C:6,Q:4,T:2,S:4,A:7});var pt={},dt=null;function mt(t){var n=function(){if(dt)return dt;if("object"!==("undefined"==typeof document?"undefined":e(document))||!document.createElementNS)return{};var t=document.createElementNS("http://www.w3.org/2000/svg","svg");return t&&t.style?(t.style.position="absolute",t.style.opacity="0.01",t.style.zIndex="-9999",t.style.left="-9999px",t.style.width="1px",t.style.height="1px",dt={svg:t}):{}}().svg;if(!n)return function(t){return null};var r=document.createElementNS(n.namespaceURI,"path");r.setAttributeNS(null,"d",t),r.setAttributeNS(null,"fill","none"),r.setAttributeNS(null,"stroke","none"),n.appendChild(r);var i=r.getTotalLength();return function(t){var n=r.getPointAtLength(i*t);return{x:n.x,y:n.y}}}function bt(t){return pt[t]?pt[t]:pt[t]=mt(t)}function wt(t,n,e,r){if(!t||!r)return!1;var i=["M",t.x,t.y];if(n&&e&&(i.push("C"),i.push(n.x),i.push(n.y),i.push(e.x),i.push(e.y)),n?!e:e){var u=n||e;i.push("Q"),i.push(u.x),i.push(u.y)}return n||e||i.push("L"),i.push(r.x),i.push(r.y),i.join(" ")}function At(t,n,e,r){var i=arguments.length>4&&void 0!==arguments[4]?arguments[4]:1,u=wt(t,n,e,r),o=bt(u);try{return o(i)}catch(t){return null}}function _t(t,n,e){return t+(n-t)*e}function xt(t,n,e){var r=arguments.length>3&&void 0!==arguments[3]&&arguments[3],i={x:_t(t.x,n.x,e),y:_t(t.y,n.y,e)};return r&&(i.a=kt(t,n)),i}function kt(t,n){return Math.atan2(n.y-t.y,n.x-t.x)}function St(t,n,e,r){var i=1-r;return i*i*t+2*i*r*n+r*r*e}function Ot(t,n,e,r){return 2*(1-r)*(n-t)+2*r*(e-n)}function jt(t,n,e,r){var i=arguments.length>4&&void 0!==arguments[4]&&arguments[4],u=At(t,n,null,e,r);return u||(u={x:St(t.x,n.x,e.x,r),y:St(t.y,n.y,e.y,r)}),i&&(u.a=Et(t,n,e,r)),u}function Et(t,n,e,r){return Math.atan2(Ot(t.y,n.y,e.y,r),Ot(t.x,n.x,e.x,r))}function Mt(t,n,e,r,i){var u=i*i;return i*u*(r-t+3*(n-e))+3*u*(t+e-2*n)+3*i*(n-t)+t}function Pt(t,n,e,r,i){var u=1-i;return 3*(u*u*(n-t)+2*u*i*(e-n)+i*i*(r-e))}function It(t,n,e,r,i){var u=arguments.length>5&&void 0!==arguments[5]&&arguments[5],o=At(t,n,e,r,i);return o||(o={x:Mt(t.x,n.x,e.x,r.x,i),y:Mt(t.y,n.y,e.y,r.y,i)}),u&&(o.a=Rt(t,n,e,r,i)),o}function Rt(t,n,e,r,i){return Math.atan2(Pt(t.y,n.y,e.y,r.y,i),Pt(t.x,n.x,e.x,r.x,i))}function Ft(t,n,e){var r=arguments.length>3&&void 0!==arguments[3]&&arguments[3];if(Tt(n)){if(qt(e))return jt(n,e.start,e,t,r)}else if(Tt(e)){if(Bt(n))return jt(n,n.end,e,t,r)}else{if(Bt(n))return qt(e)?It(n,n.end,e.start,e,t,r):jt(n,n.end,e,t,r);if(qt(e))return jt(n,e.start,e,t,r)}return xt(n,e,t,r)}function Nt(t,n,e){var r=Ft(t,n,e,!0);return r.a=function(t){return arguments.length>1&&void 0!==arguments[1]&&arguments[1]?t+Math.PI:t}(r.a)/m,r}function Tt(t){return!t.type||"corner"===t.type}function qt(t){return null!=t.start&&!Tt(t)}function Bt(t){return null!=t.end&&!Tt(t)}var Dt=new N;var Lt={f:ft,i:q},Ct={f:ft,i:D};function Vt(t,n,e){return t.map((function(t){return function(t,n,e){var r=t.v;if(!r||"g"!==r.t||r.s||!r.v||!r.r)return t;var i=e.getElementById(r.r),u=i&&i.querySelectorAll("stop")||[];return r.s=r.v.map((function(t,n){var e=u[n]&&u[n].getAttribute("offset");return{c:t,o:e=p(parseInt(e)/100)}})),delete r.v,t}(t,0,e)}))}var Gt={gt:"gradientTransform",c:{x:"cx",y:"cy"},rd:"r",f:{x:"x1",y:"y1"},to:{x:"x2",y:"y2"}};function zt(t,n,r,i,u,o,a,l){return Vt(t,0,l),n=function(t,n,e){for(var r,i,u,o=t.length-1,a={},l=0;l<=o;l++)(r=t[l]).e&&(r.e=n(r.e)),r.v&&"g"===(i=r.v).t&&i.r&&(u=e.getElementById(i.r))&&(a[i.r]={e:u,s:u.querySelectorAll("stop")});return a}(t,i,l),function(i){var u=r(i,t,Yt);if(!u)return"none";if("c"===u.t)return ht(u.v);if("g"===u.t){if(!n[u.r])return vt(u.r);var o=n[u.r];return function(t,n){for(var e=t.s,r=e.length;r<n.length;r++){var i=e[e.length-1].cloneNode();i.id=Qt(i.id),t.e.appendChild(i),e=t.s=t.e.querySelectorAll("stop")}for(var u=0,o=e.length,a=n.length-1;u<o;u++)e[u].setAttribute("stop-color",ht(n[Math.min(u,a)].c)),e[u].setAttribute("offset",n[Math.min(u,a)].o)}(o,u.s),Object.keys(Gt).forEach((function(t){if(void 0!==u[t])if("object"!==e(Gt[t])){var n,r="gt"===t?(n=u[t],Array.isArray(n)?"matrix("+n.join(" ")+")":""):u[t],i=Gt[t];o.e.setAttribute(i,r)}else Object.keys(Gt[t]).forEach((function(n){if(void 0!==u[t][n]){var e=u[t][n],r=Gt[t][n];o.e.setAttribute(r,e)}}))})),vt(u.r)}return"none"}}function Yt(t,e,r){if(0===t)return e;if(1===t)return r;if(e&&r){var i=e.t;if(i===r.t)switch(e.t){case"c":return{t:i,v:V(t,e.v,r.v)};case"g":if(e.r===r.r){var u={t:i,s:$t(t,e.s,r.s),r:e.r};return e.gt&&r.gt&&(u.gt=function(t,n,e){var r=n.length;if(r!==e.length)return T(t,n,e);for(var i=new Array(r),u=0;u<r;u++)i[u]=q(t,n[u],e[u]);return i}(t,e.gt,r.gt)),e.c?(u.c=L(t,e.c,r.c),u.rd=B(t,e.rd,r.rd)):e.f&&(u.f=L(t,e.f,r.f),u.to=L(t,e.to,r.to)),u}}if("c"===e.t&&"g"===r.t||"c"===r.t&&"g"===e.t){var o="c"===e.t?e:r,a="g"===e.t?n({},e):n({},r),l=a.s.map((function(t){return{c:o.v,o:t.o}}));return a.s="c"===e.t?$t(t,l,a.s):$t(t,a.s,l),a}}return T(t,e,r)}function $t(t,n,e){if(n.length===e.length)return n.map((function(n,r){return Ut(t,n,e[r])}));for(var r=Math.max(n.length,e.length),i=[],u=0;u<r;u++){var o=Ut(t,n[Math.min(u,n.length-1)],e[Math.min(u,e.length-1)]);i.push(o)}return i}function Ut(t,n,e){return{o:D(t,n.o,e.o||0),c:V(t,n.c,e.c||{})}}function Qt(t){return t.replace(/-fill-([0-9]+)$/,(function(t,n){return"-fill-"+(+n+1)}))}var Ht={fill:zt,"fill-opacity":Ct,stroke:zt,"stroke-opacity":Ct,"stroke-width":Lt,"stroke-dashoffset":{f:ft,i:q},"stroke-dasharray":{f:function(t){var n=arguments.length>1&&void 0!==arguments[1]?arguments[1]:" ";return t&&t.length>0&&(t=t.map((function(t){return p(t,4)}))),ct(t,n)},i:function(t,n,e){var r,i,u,o=n.length,a=e.length;if(o!==a)if(0===o)n=G(o=a,0);else if(0===a)a=o,e=G(o,0);else{var l=(u=(r=o)*(i=a)/function(t,n){for(var e;n;)e=n,n=t%n,t=e;return t||1}(r,i))<0?-u:u;n=z(n,Math.floor(l/o)),e=z(e,Math.floor(l/a)),o=a=l}for(var s=[],f=0;f<o;f++)s.push(p(B(t,n[f],e[f])));return s}},opacity:Ct,transform:function(t,n,r,i){if(!(t=function(t,n){if(!t||"object"!==e(t))return null;var r=!1;for(var i in t)t.hasOwnProperty(i)&&(t[i]&&t[i].length?(t[i].forEach((function(t){t.e&&(t.e=n(t.e))})),r=!0):delete t[i]);return r?t:null}(t,i)))return null;var u=function(e,i,u){var o=arguments.length>3&&void 0!==arguments[3]?arguments[3]:null;return t[e]?r(i,t[e],u):n&&n[e]?n[e]:o};return n&&n.a&&t.o?function(n){var e=r(n,t.o,Nt);return Dt.recomposeSelf(e,u("r",n,q,0)+e.a,u("k",n,L),u("s",n,L),u("t",n,L)).toString()}:function(t){return Dt.recomposeSelf(u("o",t,Ft,null),u("r",t,q,0),u("k",t,L),u("s",t,L),u("t",t,L)).toString()}},r:Lt,"#size":gt,"#radius":yt,_:function(t,n){if(Array.isArray(t))for(var e=0;e<t.length;e++)this[t[e]]=n;else this[t]=n}},Jt=function(t){!function(t,n){if("function"!=typeof n&&null!==n)throw new TypeError("Super expression must either be null or a function");t.prototype=Object.create(n&&n.prototype,{constructor:{value:t,writable:!0,configurable:!0}}),n&&l(t,n)}(o,t);var n,e,i=(n=o,e=s(),function(){var t,r=a(n);if(e){var i=a(this).constructor;t=Reflect.construct(r,arguments,i)}else t=r.apply(this,arguments);return c(this,t)});function o(){return r(this,o),i.apply(this,arguments)}return u(o,null,[{key:"build",value:function(t){var n=h(a(o),"build",this).call(this,t,Ht);if(!n)return null;n.el,n.options,function(t,n,e){t.play()}(n.player)}}]),o}(st);return Jt.init(),Jt}));
(function(s,i,o,w,d,a,b){w[o]=w[o]||{};w[o][s]=w[o][s]||[];w[o][s].push(i);})('5c7f360c',{"root":"es9CFvd0Iyo1","version":"2022-05-04","animations":[{"elements":{"es9CFvd0Iyo2":{"transform":{"data":{"t":{"x":-298.653892,"y":-141.125202}},"keys":{"o":[{"t":0,"v":{"x":298.653893,"y":141.125203,"type":"corner"},"e":[0.42,0,0.58,1]},{"t":400,"v":{"x":304.526291,"y":138.768392,"type":"corner"},"e":[0.42,0,0.58,1]},{"t":800,"v":{"x":298.653893,"y":141.125203,"type":"corner"},"e":[0.42,0,0.58,1]},{"t":1200,"v":{"x":304.526291,"y":138.768392,"type":"corner"},"e":[0.42,0,0.58,1]},{"t":1600,"v":{"x":298.653893,"y":141.125203,"type":"corner"},"e":[0.42,0,0.58,1]},{"t":2000,"v":{"x":304.526291,"y":138.768392,"type":"corner"},"e":[0.42,0,0.58,1]},{"t":2400,"v":{"x":298.653893,"y":141.125203,"type":"corner"},"e":[0.42,0,0.58,1]},{"t":2800,"v":{"x":304.526291,"y":138.768392,"type":"corner"},"e":[0.42,0,0.58,1]},{"t":3200,"v":{"x":298.653893,"y":141.125203,"type":"corner"}},{"t":3600,"v":{"x":304.526291,"y":138.768392,"type":"corner"},"e":[0.42,0,0.58,1]},{"t":4000,"v":{"x":298.653893,"y":141.125203,"type":"corner"}}],"r":[{"t":0,"v":0,"e":[0.42,0,0.58,1]},{"t":400,"v":5.188581,"e":[0.42,0,0.58,1]},{"t":800,"v":0,"e":[0.42,0,0.58,1]},{"t":1200,"v":5.188581,"e":[0.42,0,0.58,1]},{"t":1600,"v":0,"e":[0.42,0,0.58,1]},{"t":2000,"v":5.188581,"e":[0.42,0,0.58,1]},{"t":2400,"v":0,"e":[0.42,0,0.58,1]},{"t":2800,"v":5.188581,"e":[0.42,0,0.58,1]},{"t":3200,"v":0},{"t":3600,"v":5.188581,"e":[0.42,0,0.58,1]},{"t":4000,"v":0}]}}},"es9CFvd0Iyo12":{"transform":{"data":{"t":{"x":-253.676003,"y":-306.564041}},"keys":{"o":[{"t":300,"v":{"x":253.676003,"y":306.564041,"type":"corner"},"e":[0.42,0,0.58,1]},{"t":700,"v":{"x":250.501003,"y":306.564041,"type":"corner"},"e":[0.42,0,0.58,1]},{"t":900,"v":{"x":250.501003,"y":306.564041,"type":"corner"},"e":[0.42,0,0.58,1]},{"t":1300,"v":{"x":253.676003,"y":306.564041,"type":"corner"},"e":[0.42,0,0.58,1]},{"t":2000,"v":{"x":253.676003,"y":306.564041,"type":"corner"},"e":[0.42,0,0.58,1]},{"t":2400,"v":{"x":250.501003,"y":306.564041,"type":"corner"},"e":[0.42,0,0.58,1]},{"t":2600,"v":{"x":250.501003,"y":306.564041,"type":"corner"},"e":[0.42,0,0.58,1]},{"t":3000,"v":{"x":253.676003,"y":306.564041,"type":"corner"},"e":[0.42,0,0.58,1]}],"r":[{"t":300,"v":0,"e":[0.42,0,0.58,1]},{"t":700,"v":-2,"e":[0.42,0,0.58,1]},{"t":900,"v":-2,"e":[0.42,0,0.58,1]},{"t":1300,"v":0,"e":[0.42,0,0.58,1]},{"t":2000,"v":0,"e":[0.42,0,0.58,1]},{"t":2400,"v":-2,"e":[0.42,0,0.58,1]},{"t":2600,"v":-2,"e":[0.42,0,0.58,1]},{"t":3000,"v":0,"e":[0.42,0,0.58,1]}]}}},"es9CFvd0Iyo18":{"transform":{"data":{"t":{"x":-346.5289,"y":-54.059605}},"keys":{"o":[{"t":500,"v":{"x":346.5289,"y":54.059605,"type":"corner"},"e":[0.42,0,0.58,1]},{"t":800,"v":{"x":346.5289,"y":54.059605,"type":"corner"},"e":[0.42,0,0.58,1]},{"t":1600,"v":{"x":354.5289,"y":35.059605,"type":"corner"},"e":[0.42,0,0.58,1]},{"t":2400,"v":{"x":346.5289,"y":54.059605,"type":"corner"},"e":[0.42,0,0.58,1]},{"t":2700,"v":{"x":346.5289,"y":54.059605,"type":"corner"},"e":[0.42,0,0.58,1]},{"t":3300,"v":{"x":354.5289,"y":35.059605,"type":"corner"}}]}},"opacity":[{"t":500,"v":0,"e":[0.42,0,0.58,1]},{"t":800,"v":1,"e":[0.42,0,0.58,1]},{"t":1600,"v":0,"e":[0.42,0,0.58,1]},{"t":2400,"v":0,"e":[0.42,0,0.58,1]},{"t":2700,"v":1,"e":[0.42,0,0.58,1]},{"t":3300,"v":0}]},"es9CFvd0Iyo22":{"transform":{"data":{"t":{"x":-294.057526,"y":-29.792345}},"keys":{"o":[{"t":700,"v":{"x":294.057526,"y":29.792345,"type":"corner"},"e":[0.42,0,0.58,1]},{"t":1000,"v":{"x":294.057526,"y":29.792345,"type":"corner"},"e":[0.42,0,0.58,1]},{"t":1800,"v":{"x":290.057526,"y":19.792345,"type":"corner"},"e":[0.42,0,0.58,1]},{"t":2600,"v":{"x":294.057526,"y":29.792345,"type":"corner"},"e":[0.42,0,0.58,1]},{"t":2900,"v":{"x":294.057526,"y":29.792345,"type":"corner"},"e":[0.42,0,0.58,1]},{"t":3700,"v":{"x":290.057526,"y":19.792345,"type":"corner"}}]}},"opacity":[{"t":700,"v":0,"e":[0.42,0,0.58,1]},{"t":1000,"v":1,"e":[0.42,0,0.58,1]},{"t":1800,"v":0,"e":[0.42,0,0.58,1]},{"t":2600,"v":0,"e":[0.42,0,0.58,1]},{"t":2900,"v":1,"e":[0.42,0,0.58,1]},{"t":3700,"v":0}]},"es9CFvd0Iyo26":{"transform":{"data":{"t":{"x":-267.126343,"y":-51.121093}},"keys":{"o":[{"t":200,"v":{"x":267.126343,"y":51.121094,"type":"corner"},"e":[0.42,0,0.58,1]},{"t":500,"v":{"x":267.126343,"y":51.121094,"type":"corner"},"e":[0.42,0,0.58,1]},{"t":1300,"v":{"x":257.126343,"y":41.121094,"type":"corner"},"e":[0.42,0,0.58,1]},{"t":2100,"v":{"x":267.126343,"y":51.121094,"type":"corner"},"e":[0.42,0,0.58,1]},{"t":2400,"v":{"x":267.126343,"y":51.121094,"type":"corner"},"e":[0.42,0,0.58,1]},{"t":3200,"v":{"x":257.126343,"y":41.121094,"type":"corner"}}]}},"opacity":[{"t":200,"v":0,"e":[0.42,0,0.58,1]},{"t":500,"v":1,"e":[0.42,0,0.58,1]},{"t":1300,"v":0,"e":[0.42,0,0.58,1]},{"t":2100,"v":0,"e":[0.42,0,0.58,1]},{"t":2400,"v":1,"e":[0.42,0,0.58,1]},{"t":3200,"v":0}]},"es9CFvd0Iyo31":{"transform":{"data":{"t":{"x":-312.598495,"y":-60.288347}},"keys":{"o":[{"t":500,"v":{"x":312.598496,"y":60.288348,"type":"corner"},"e":[0.42,0,0.58,1]},{"t":800,"v":{"x":312.598496,"y":60.288348,"type":"corner"},"e":[0.42,0,0.58,1]},{"t":1600,"v":{"x":321.598496,"y":43.288348,"type":"corner"},"e":[0.42,0,0.58,1]},{"t":2400,"v":{"x":312.598496,"y":60.288348,"type":"corner"},"e":[0.42,0,0.58,1]},{"t":2700,"v":{"x":312.598496,"y":60.288348,"type":"corner"},"e":[0.42,0,0.58,1]},{"t":3500,"v":{"x":321.598496,"y":43.288348,"type":"corner"}}]}},"opacity":[{"t":500,"v":0,"e":[0.42,0,0.58,1]},{"t":800,"v":1,"e":[0.42,0,0.58,1]},{"t":1600,"v":0,"e":[0.42,0,0.58,1]},{"t":2400,"v":0,"e":[0.42,0,0.58,1]},{"t":2700,"v":1,"e":[0.42,0,0.58,1]},{"t":3500,"v":0}]}},"s":"MYDA1Y2Q4N2ZOYzFkMmINmYmVkMWM2Y2NjYkoE3Zjk3OTE4ZDhkOGQ4SOTdmYzFjNmNmYzJCYEzBkMWM2Y2NjYjdmOTMc4ZTg5N2ZjNmQxS2MKyY2ZiZUZkMVhjNmNjXY2JkMDdmOTc4ZDg5NQ2ZjM2M2YzljOTdmVTUk3OGU4OTdmYmVjOWQTxYzJjZmNiYmVkMWMyXUTdmOTdjM2JlYzlkMJGMyODk3ZldkMGNkYzNJjMmMxN2Y5NzhlODlGPN2ZjM2NkZDA3Zjk3XOTM4ZGRh"}],"options":"MHDAxMDg4MmY4MDgxNmIU3ZjgxMmZCNDcyZjcX5N2M2ZTcxMmY4YQ|"},'__SVGATOR_PLAYER__',window,document)
]]></script>
</svg>
