<svg width="20" height="20" viewBox="0 0 20 20" fill="none" xmlns="http://www.w3.org/2000/svg">
<path fill-rule="evenodd" clip-rule="evenodd" d="M2.11241 9.54597C6.94423 7.48204 10.1662 6.12138 11.7783 5.46397C16.3813 3.58694 17.3377 3.26088 17.9611 3.25011C18.0982 3.24775 18.4048 3.28106 18.6034 3.43904C18.7711 3.57244 18.8172 3.75264 18.8393 3.87911C18.8614 4.00559 18.8889 4.2937 18.867 4.51882C18.6176 7.08833 17.5383 13.3239 16.9892 16.2017C16.7568 17.4195 16.2994 17.8278 15.8565 17.8678C14.8939 17.9546 14.163 17.2441 13.2308 16.645C11.772 15.7075 10.9479 15.1238 9.53191 14.209C7.89548 13.1517 8.95631 12.5706 9.88891 11.621C10.133 11.3724 14.3738 7.59059 14.4559 7.24751C14.4662 7.2046 14.4757 7.04467 14.3788 6.96021C14.2819 6.87576 14.1389 6.90464 14.0356 6.92761C13.8893 6.96017 11.5589 8.47032 7.04438 11.4581C6.3829 11.9034 5.78375 12.1204 5.24693 12.109C4.65513 12.0965 3.51675 11.781 2.67048 11.5113C1.63249 11.1805 0.807524 11.0056 0.879361 10.4438C0.916777 10.1511 1.32779 9.85187 2.11241 9.54597Z" fill="#545B5E"/>
</svg>
