<svg width="20" height="19" viewBox="0 0 20 19" fill="none" xmlns="http://www.w3.org/2000/svg">
<path fill-rule="evenodd" clip-rule="evenodd" d="M1.3749 8.17936C6.74358 5.49802 10.3235 3.73033 12.1148 2.87627C17.2292 0.437738 18.2919 0.0141399 18.9845 0.000148192C19.1369 -0.00291778 19.4775 0.0403567 19.6982 0.245595C19.8845 0.4189 19.9357 0.653006 19.9603 0.817308C19.9849 0.981624 20.0154 1.35592 19.9911 1.64838C19.714 4.98654 18.5148 13.0874 17.9046 16.8261C17.6464 18.4082 17.1382 18.9386 16.6461 18.9906C15.5765 19.1034 14.7644 18.1803 13.7286 17.402C12.1078 16.1841 11.1921 15.4257 9.61877 14.2373C7.80052 12.8637 8.97922 12.1088 10.0154 10.8751C10.2867 10.5522 14.9986 5.63905 15.0899 5.19334C15.1013 5.13759 15.1119 4.92982 15.0042 4.82009C14.8965 4.71038 14.7376 4.7479 14.6229 4.77774C14.4603 4.82004 11.871 6.78194 6.85486 10.6635C6.11988 11.242 5.45416 11.5239 4.85769 11.5091C4.20014 11.4929 2.93527 11.083 1.99497 10.7326C0.841654 10.3028 -0.0749735 10.0756 0.00484528 9.34577C0.0464186 8.96551 0.503099 8.57677 1.3749 8.17936Z" fill="#414141"/>
</svg>
