<svg width="29" height="30" viewBox="0 0 29 30" fill="none" xmlns="http://www.w3.org/2000/svg">
<path fill-rule="evenodd" clip-rule="evenodd" d="M3.0628 14.319C10.0689 11.2231 14.7408 9.18208 17.0783 8.19596C23.7527 5.38042 25.1395 4.89133 26.0434 4.87517C26.2422 4.87163 26.6868 4.9216 26.9747 5.15857C27.2179 5.35867 27.2847 5.62897 27.3168 5.81867C27.3488 6.00839 27.3887 6.44056 27.357 6.77824C26.9953 10.6325 25.4303 19.9859 24.6341 24.3026C24.2972 26.1293 23.6339 26.7417 22.9917 26.8017C21.596 26.9319 20.5362 25.8662 19.1845 24.9675C17.0692 23.5613 15.8743 22.6857 13.8211 21.3135C11.4483 19.7276 12.9865 18.8559 14.3387 17.4315C14.6927 17.0586 20.8418 11.3859 20.9609 10.8713C20.9758 10.8069 20.9896 10.567 20.8491 10.4403C20.7086 10.3136 20.5012 10.357 20.3514 10.3914C20.1393 10.4403 16.7602 12.7055 10.2142 17.1872C9.25501 17.8551 8.38624 18.1806 7.60785 18.1635C6.74974 18.1448 5.09909 17.6715 3.872 17.267C2.36691 16.7708 1.17071 16.5084 1.27488 15.6657C1.32913 15.2267 1.9251 14.7778 3.0628 14.319Z" fill="black"/>
</svg>
