<svg width="449" height="332" viewBox="0 0 449 332" fill="none" xmlns="http://www.w3.org/2000/svg">
<path d="M286.473 163.272C288.907 162.806 292.512 161.706 294.76 158.236" stroke="black" stroke-width="2" stroke-linecap="round" stroke-linejoin="round"/>
<path d="M284.503 126.818C282.954 127.52 280.893 126.691 279.987 124.706C279.082 122.722 279.81 120.63 281.359 119.929C282.908 119.228 284.969 120.057 285.875 122.041C286.78 124.025 286.052 126.117 284.503 126.818Z" stroke="#151515" stroke-width="1.40458"/>
<ellipse cx="2.47412" cy="2.20485" rx="2.47412" ry="2.20485" transform="matrix(0.415213 0.909724 -0.910989 0.412431 283.015 121.1)" fill="#151515"/>
<path d="M227.752 321.259H151.764C150.64 321.259 147.297 323.19 147.41 330.352M153.169 330.352C153.169 327.275 153.618 325.596 156.54 325.596C159.461 325.596 174.799 325.596 182.103 325.596" stroke="#151515" stroke-width="2" stroke-linecap="round" stroke-linejoin="round"/>
<path d="M238.981 312.775C237.858 312.076 234.206 309.278 236.032 306.48C238.463 302.754 258.241 297.986 265.404 298.545C271.135 298.993 283.336 304.568 289.001 307.459C296.192 309.809 301.783 308.431 303.749 308.478C314.632 306.48 314.488 302.277 323.835 296.168C330.794 291.619 332.13 286.902 335.633 283.677L331.7 259.976L330.717 250.983M238.981 312.775C241.791 311.143 249.038 307.795 255.556 307.459M238.981 312.775C237.015 314.174 234.796 315.713 234.908 317.391C235.002 318.417 236.228 320.245 241.509 321.588M241.509 321.588C245.114 318.557 254.628 313.139 263.842 315.713M241.509 321.588C240.76 322.194 239.487 323.91 240.386 325.925C241.284 327.939 244.318 326.951 245.723 326.204C247.268 324.759 251.454 321.868 255.836 321.868C260.612 321.868 266.949 328.062 280.433 328.062C283.383 328.062 289.085 327.167 291.67 325.824C308.244 328.342 341.954 322.64 356.561 315.475C362.517 313.543 366.815 305.996 368.219 302.465L376.366 236.714C343.555 222.166 333.901 240.165 330.717 250.983M330.717 250.983C329.5 251.216 327.702 250.757 326.644 247.905C324.256 241.47 322.803 216.99 326.018 193.069M389.148 331C392.097 290.572 403.474 236.714 385.074 196.426C377.919 180.758 372.574 179.779 348.134 168.028C341.167 180.339 322.57 183.323 314.143 183.276C307.696 188.45 295.181 196.426 302.205 237.833M314.632 304.141C311.83 293.392 309.461 282.931 307.52 272.946M302.205 237.833C302.366 239.395 302.541 240.981 302.73 242.59C303.838 252.005 305.432 262.2 307.52 272.946M302.205 237.833C299.255 245.108 294.479 262.314 294.057 268.05C293.917 269.075 293.833 271.435 295.181 272.106C296.867 272.946 303.749 272.946 307.52 272.946" stroke="#151515" stroke-width="2" stroke-linecap="round" stroke-linejoin="round"/>
<path d="M340.239 145.953C338.643 150.939 340.57 164.133 348.415 168.308M268.784 102.997C268.567 104.246 269.361 118.703 272.506 123.565C274.625 127.329 276.538 134.05 270.039 139.211C263.87 143.671 270.165 149.973 279.053 148.098C287.622 159.603 283.383 166.49 289.844 173.344C294.76 176.422 301.502 175.163 307.252 170.087C310.193 170.452 312.422 175.012 314.203 183.135M320.407 108.457C321.317 109.714 322.474 112.751 319.836 114.83" stroke="black" stroke-width="2" stroke-linecap="round"/>
<path d="M348.902 88.0153C356.152 106.205 345.613 143.09 339.944 155.578C330.646 152.73 317.282 124.209 322.327 122.001C327.628 119.68 330.454 103.452 324.148 99.9136C316.745 95.7632 312.69 105.077 312.848 111.496L305.998 103.744C306.212 97.3261 304.62 86.4597 296.572 94.3293C288.525 102.199 274.633 103.319 268.695 102.896C256.002 97.1894 235.051 82.1575 252.763 67.6874C267.496 55.6514 291.173 62.4552 306.262 69.7986C314.663 65.7036 339.018 63.2136 348.902 88.0153Z" fill="black"/>
<path d="M289.374 118.414C288.958 116.719 288.447 115.137 287.913 113.798C287.634 113.097 286.956 112.731 286.341 112.912L273.403 116.475C272.827 116.644 272.449 117.251 272.568 117.948C273.815 125.255 280.949 137.131 286.341 135.538C292.372 133.755 291.064 125.319 289.374 118.414ZM289.374 118.414L302.766 114.311" stroke="black" stroke-width="2" stroke-linecap="round"/>
<path d="M228.885 289.749C231.198 293.941 238.511 300.535 248.69 300.084M214.558 295.345C220 300.845 232.212 302.099 238.577 298.125M231.413 277.6C230.241 277.167 227.265 275.955 225.233 277.439M225.233 277.439C222.694 279.294 212.271 280.753 214.615 283.535C216.959 286.318 219.107 287.43 231.413 286.132M225.233 277.439L235.065 262.051M213.146 281.15H208.906C207.426 281.15 207.483 281.811 207.426 282.599C206.688 292.864 194.545 296.909 197.254 290.774C200.087 284.358 201.221 272.469 205.187 272.091C208.231 271.802 213.952 268.71 216.747 267.015C216.971 266.88 217.225 266.808 217.487 266.808H221.722M229.702 270.445C235.132 275.12 249.669 286.254 256.415 287.791C266.668 289.676 283.72 288.86 288.439 287.791C293.159 286.722 295.603 278.821 296.445 272.526M235.065 262.051C234.082 262.051 231.75 261.855 230.29 261.072C228.829 260.289 227.808 258.787 227.48 258.134M235.065 262.051C235.159 261.305 234.812 259.477 232.677 258.134C230.009 256.456 227.761 257.685 227.48 258.134M218.772 287.231L205.765 309.747C204.518 311.907 199.78 315.824 195.877 316.731M195.877 316.731C195.546 315.162 194.713 311.817 197.361 307.01C200.009 302.204 218.544 272.424 227.48 258.134M195.877 316.731L195.175 317.85M312.177 293.51C311.849 298.406 308.384 308.282 297.148 308.618" stroke="black" stroke-width="2" stroke-linecap="round"/>
<path d="M299.422 66.1803C299.039 66.1189 298.654 66.285 298.435 66.6065C298.217 66.9279 298.204 67.3465 298.403 67.6799C301.386 72.6848 305.536 82.202 305.201 93.4058C301.779 94.3915 299.478 97.7679 298.202 102.043C296.813 106.701 296.522 112.75 297.416 119.06C298.343 125.604 302.459 130.029 307.376 132.63C312.268 135.217 318.031 136.049 322.487 135.396C325.85 134.904 330.124 132.723 333.141 128.213C336.169 123.686 337.875 116.9 336.265 107.277C335.4 102.102 332.693 97.9938 329.498 95.1198C326.585 92.4993 323.206 90.8529 320.344 90.3855C319.257 84.2778 317.507 74.8106 311.674 68.3658C311.522 68.1973 311.316 68.0859 311.091 68.0499L299.422 66.1803Z" fill="#151515" stroke="#FDFDFD" stroke-width="2" stroke-linecap="round" stroke-linejoin="round"/>
<path d="M348.134 168.868C339.819 180.73 322.103 183.416 314.284 183.276C299.114 189.879 298.693 221.466 302.064 239.232C297.007 247.29 294.479 264.599 293.917 271.827L307.401 272.806L314.986 304.141C319.593 301.455 330.67 289.219 335.633 283.437L330.577 250.423C337.094 224.46 363.725 230.373 376.226 236.574C373.838 254.2 371.45 300.504 364.849 309.317C359.179 315.199 329.23 322.174 316.391 326.663L316.952 330.58H389.148C390.178 322.933 392.272 302.144 394.204 278.401C398.418 226.642 388.961 200.343 380.159 187.193C376.563 181.821 357.264 172.458 348.134 168.868Z" fill="#151515"/>
<path d="M448 330.951H120.17M1 330.951H66.5153M120.17 330.951V323.537C120.17 321.998 119.159 320.319 116.799 320.319H76.9092C69.6054 320.319 53.7055 313.94 54.7168 295.139L73.5382 203.646M120.17 330.951H66.5153M82.3871 191.201C80.842 181.968 74.381 179.714 71.1504 179.59C67.358 179.445 57.4951 181.409 57.245 191.621C57.1178 196.817 59.6701 199.887 62.3015 201.777M82.3871 191.201C81.9811 202.523 74.2728 204.365 68.0572 204.484C67.5977 204.493 67.1458 204.378 66.7282 204.186C65.6582 203.694 63.9641 202.971 62.3015 201.777M82.3871 191.201L84.3535 190.781M66.5153 330.951C54.7168 326.894 39.0136 314.22 43.0588 291.502L62.3015 201.777M73.5382 72.7143L81.6848 70.0564L139.694 295.139L131.407 297.657M73.5382 72.7143L131.407 297.657M73.5382 72.7143C71.8527 110.904 76.9092 163.922 84.3535 190.781M131.407 297.657C98.2589 257.369 88.347 205.19 84.3535 190.781" stroke="#151515" stroke-width="2" stroke-linecap="round" stroke-linejoin="round"/>
<path d="M410.594 160.342C412.841 159.362 414.667 158.958 415.791 159.083C418.038 159.331 419.864 160.528 420.707 161.181L418.319 263.86C417.911 264.392 416.861 265.294 415.229 265.863M410.594 160.342L407.504 262.881M410.594 160.342C407.644 159.083 404.976 159.083 401.605 160.342C397.394 161.914 393.428 169.707 393.221 173.064C389.288 236.847 383.345 249.265 388.963 257.985C390.228 259.943 393.823 264.028 398.093 264.699C402.363 265.371 406.108 264.233 407.446 263.58M407.504 262.881C407.785 264.093 409.161 266.49 412.42 266.378C413.491 266.341 414.43 266.142 415.229 265.863M407.504 262.881C407.485 263.111 407.466 263.344 407.446 263.58M415.229 265.863C414.293 286.086 413.447 324.145 412.42 331M399.261 331C400.946 325.125 405.856 282.756 407.446 263.58" stroke="#151515" stroke-width="2" stroke-linejoin="round"/>
<path d="M407.548 264.832L410.498 160.614C406.228 158.712 401.134 160.661 399.121 161.873C391.143 164.671 390.974 208.503 389.008 219.228L392.379 263.993L407.548 264.832Z" fill="#151515"/>
<path d="M351.798 165.449C351.3 165.209 350.703 165.419 350.464 165.917C350.224 166.414 350.434 167.012 350.931 167.251L351.798 165.449ZM387.884 196.426L388.794 196.011L387.884 196.426ZM350.931 167.251C363.19 173.145 370.412 176.696 375.486 180.704C380.491 184.657 383.429 189.078 386.974 196.842L388.794 196.011C385.184 188.107 382.082 183.365 376.726 179.134C371.439 174.958 363.979 171.305 351.798 165.449L350.931 167.251ZM386.974 196.842C396.077 216.774 397.768 239.599 396.875 262.625C396.428 274.133 395.338 285.664 394.217 296.89C393.096 308.105 391.943 319.027 391.38 329.266L393.377 329.376C393.937 319.192 395.084 308.326 396.207 297.089C397.328 285.862 398.424 274.277 398.873 262.703C399.771 239.565 398.09 216.367 388.794 196.011L386.974 196.842Z" fill="#FDFDFD"/>
<ellipse cx="3.9575" cy="3.13914" rx="3.9575" ry="3.13914" transform="matrix(0.966187 0.257841 -0.2598 0.965662 340.073 36.5166)" fill="#151515"/>
<path d="M354.615 32.5831C352.201 30.9519 350.799 26.8626 350.415 25.4988L348.804 31.4847C351.342 32.6554 352.48 36.6605 352.974 38.6841C354.208 36.3814 354.638 34.9335 354.615 32.5831Z" fill="#151515"/>
<path d="M346.182 41.2311L348.804 31.4847M348.804 31.4847L350.415 25.4988C350.799 26.8626 352.201 30.9519 354.615 32.5831C354.638 34.9335 354.208 36.3814 352.974 38.6841C352.48 36.6605 351.342 32.6554 348.804 31.4847Z" stroke="#151515" stroke-width="1.4" stroke-linecap="round" stroke-linejoin="round"/>
<ellipse cx="291.274" cy="17.4461" rx="3.95857" ry="3.13829" fill="#151515"/>
<path d="M300.339 6.76015C297.584 5.80675 295.167 2.21824 294.441 1V7.19713C297.196 7.67383 299.336 11.2491 300.339 13.0765C300.933 10.534 300.973 9.02449 300.339 6.76015Z" fill="#151515"/>
<path d="M294.441 17.2873V7.19713M294.441 7.19713V1C295.167 2.21824 297.584 5.80675 300.339 6.76015C300.973 9.02449 300.933 10.534 300.339 13.0765C299.336 11.2491 297.196 7.67383 294.441 7.19713Z" stroke="#151515" stroke-width="1.4" stroke-linecap="round" stroke-linejoin="round"/>
<path d="M271.898 20.4919L260.047 25.1697L260.947 28.5177L272.799 23.8399L271.898 20.4919Z" fill="#151515"/>
<path d="M263.81 39.1569L260.947 28.5177M275.671 34.5163L272.799 23.8399M272.799 23.8399L271.898 20.4919L260.047 25.1697L260.947 28.5177M272.799 23.8399L260.947 28.5177" stroke="#151515" stroke-width="1.4" stroke-linecap="round" stroke-linejoin="round"/>
<ellipse cx="3.51872" cy="2.85068" rx="3.51872" ry="2.85068" transform="matrix(0.966187 -0.257841 0.2598 0.965662 268.903 33.6511)" fill="#151515"/>
<ellipse cx="3.51872" cy="2.85068" rx="3.51872" ry="2.85068" transform="matrix(0.966187 -0.257841 0.2598 0.965662 257.069 38.2449)" fill="#151515"/>
<path d="M321.704 31.7759L309.041 33.2393V36.7054L321.704 35.242V31.7759Z" fill="#151515"/>
<path d="M309.041 47.7199V36.7054M321.704 46.295V35.242M321.704 35.242V31.7759L309.041 33.2393V36.7054M321.704 35.242L309.041 36.7054" stroke="#151515" stroke-width="1.4" stroke-linecap="round" stroke-linejoin="round"/>
<ellipse cx="318.911" cy="46.5645" rx="3.51967" ry="2.8499" fill="#151515"/>
<ellipse cx="306.286" cy="47.951" rx="3.51967" ry="2.8499" fill="#151515"/>
</svg>
