<svg width="76" height="35" viewBox="0 0 76 35" fill="none" xmlns="http://www.w3.org/2000/svg">
<g clip-path="url(#clip0_114_328)">
<path d="M60.9359 29.5941C69.3854 29.5941 74.3489 26.4315 74.3489 26.4315L74.3455 31.0882C74.3455 31.0882 69.5318 34.9682 60.9393 34.9682H60.9359C52.3435 34.9682 47.5298 31.0882 47.5298 31.0882L47.5264 26.4315C47.5264 26.4315 52.4864 29.5941 60.9359 29.5941Z" fill="#FF4646"/>
<path d="M20.7313 10.1973C16.8095 10.1973 13.6299 13.271 13.6299 17.0622C13.6299 20.8534 16.8095 23.9271 20.7313 23.9271C24.653 23.9271 27.8326 20.8534 27.8326 17.0622C27.8326 13.271 24.653 10.1973 20.7313 10.1973ZM20.7313 19.6193C19.3083 19.6193 18.1576 18.4378 18.1576 17.0622C18.1576 15.6866 19.3117 14.5051 20.7313 14.5051C22.1543 14.5051 23.3049 15.6866 23.3049 17.0622C23.3049 18.4378 22.1543 19.6193 20.7313 19.6193Z" fill="#222222"/>
<path d="M14.6851 10.5231H9.76244L7.64156 14.9626L5.20748 10.5231H0.33252L5.28919 19.1651L2.98107 23.6046H7.91731L14.6851 10.5231Z" fill="#222222"/>
<path d="M68.8987 10.1973C64.977 10.1973 61.7974 13.271 61.7974 17.0622C61.7974 20.8534 64.977 23.9271 68.8987 23.9271C72.8205 23.9271 76.0001 20.8534 76.0001 17.0622C76.0001 13.271 72.8205 10.1973 68.8987 10.1973ZM68.8987 19.6193C67.4757 19.6193 66.3251 18.4378 66.3251 17.0622C66.3251 15.6866 67.4791 14.5051 68.8987 14.5051C70.3183 14.5051 71.4724 15.6866 71.4724 17.0622C71.4758 18.4378 70.3217 19.6193 68.8987 19.6193Z" fill="#222222"/>
<path d="M37.5552 10.5461V17.8751C37.5552 18.8393 36.745 19.6226 35.7475 19.6226C34.75 19.6226 33.9398 18.8393 33.9398 17.8751V10.5461H29.4087V18.3259C29.4087 21.742 32.0709 23.9271 35.5705 23.9271H35.9177C39.4173 23.9271 42.0795 21.742 42.0795 18.3259C42.0795 16.381 42.0795 10.5461 42.0795 10.5461H37.5552Z" fill="#222222"/>
<path d="M53.2285 10.5461C49.6199 10.5461 47.4956 10.5461 47.4956 10.5461V23.6046C47.4956 23.6046 49.7424 23.6046 53.2965 23.6046C57.5247 23.6046 60.4694 20.6823 60.4694 17.0754V16.9075C60.4728 13.3007 57.3987 10.5461 53.2285 10.5461ZM56.037 17.0754C56.037 18.4016 55.0736 19.4449 53.4497 19.4909C52.5987 19.5173 51.8327 19.4909 51.8327 19.4909V14.6598C51.8327 14.6598 52.517 14.6335 53.4497 14.6598C55.1076 14.7059 56.037 15.7491 56.037 17.0754Z" fill="#222222"/>
</g>
<defs>
<clipPath id="clip0_114_328">
<rect width="76" height="25" fill="white" transform="translate(0 10)"/>
</clipPath>
</defs>
</svg>
